<?xml version="1.0" encoding="utf-8"?>
<!-- Generator: Adobe Illustrator 18.0.0, SVG Export Plug-In . SVG Version: 6.00 Build 0)  -->
<!DOCTYPE svg PUBLIC "-//W3C//DTD SVG 1.1//EN" "http://www.w3.org/Graphics/SVG/1.1/DTD/svg11.dtd" [
	<!ENTITY ns_extend "http://ns.adobe.com/Extensibility/1.0/">
	<!ENTITY ns_ai "http://ns.adobe.com/AdobeIllustrator/10.0/">
	<!ENTITY ns_graphs "http://ns.adobe.com/Graphs/1.0/">
	<!ENTITY ns_vars "http://ns.adobe.com/Variables/1.0/">
	<!ENTITY ns_imrep "http://ns.adobe.com/ImageReplacement/1.0/">
	<!ENTITY ns_sfw "http://ns.adobe.com/SaveForWeb/1.0/">
	<!ENTITY ns_custom "http://ns.adobe.com/GenericCustomNamespace/1.0/">
	<!ENTITY ns_adobe_xpath "http://ns.adobe.com/XPath/1.0/">
]>
<svg version="1.1" id="Lag_1" xmlns:x="&ns_extend;" xmlns:i="&ns_ai;" xmlns:graph="&ns_graphs;"
	 xmlns="http://www.w3.org/2000/svg" xmlns:xlink="http://www.w3.org/1999/xlink" x="0px" y="0px" width="40px" height="40px"
	 viewBox="0 0 40 40" enable-background="new 0 0 40 40" xml:space="preserve">
<metadata>
	<sfw  xmlns="&ns_sfw;">
		<slices></slices>
		<sliceSourceBounds  height="31.6" width="38.1" y="47.7" x="43" bottomLeftOrigin="true"></sliceSourceBounds>
		<optimizationSettings>
			<targetSettings  fileFormat="PNG24Format" targetSettingsID="0">
				<PNG24Format  transparency="true" interlaced="false" noMatteColor="false" filtered="false" matteColor="#FFFFFF">
					</PNG24Format>
			</targetSettings>
		</optimizationSettings>
	</sfw>
</metadata>
<g id="Lag_1_1_">
	<g>
		<path fill="#464665" d="M27.3,19.8c0.2,0.1,0.4,0,0.5-0.2c0.2-0.3,0.4-0.5,0.7-0.6l0,0c0-6.8-5.5-12.2-12.2-12.2S4,12.2,4,18.9
			c0,6.8,5.5,12.2,12.2,12.2c0.6,0,1.2,0,1.8-0.1c0-0.1,0-0.2,0-0.4v-0.1c0-0.4,0.1-0.8,0.3-1.2c0.1-0.3,0.3-0.6,0.4-0.9
			c0.1-0.1,0.1-0.2,0.1-0.4c0-0.3,0-0.7,0-1c0-0.2,0.1-0.4,0.1-0.6c0.1-0.2,0.1-0.4,0.2-0.6s0.2-0.3,0.2-0.5
			c0.5-1.2,1.6-2.1,2.9-2.4c0-0.1,0.1-0.2,0.1-0.4h-0.1l-2.1-3.4h-1.4v3.4h-1.4V14h2.4c1.1,0,1.9,0.2,2.5,0.6c0.5,0.4,0.8,1,0.8,1.9
			c0,1.1-0.6,1.8-1.7,2.3l1.6,2.5l0.1-0.1c0.2-0.2,0.3-0.3,0.5-0.5c0.1-0.1,0.3-0.2,0.4-0.3l0.1-0.1C25.1,19.8,26.3,19.6,27.3,19.8z
			 M14.7,22.6L12,18.7l-0.8,0.7v3.2H9.8V14h1.3v4.1c0.4-0.5,0.8-0.9,1.2-1.3l2.3-2.7h1.6c-1.5,1.7-2.6,3-3.2,3.7l3.3,4.8
			C16.3,22.6,14.7,22.6,14.7,22.6z M16.3,32.7C8.7,32.7,2.6,26.5,2.6,19c0-7.6,6.2-13.7,13.7-13.7c7.4,0,13.4,5.8,13.7,13.1
			c0,0,0,0,0.1,0c0.6-0.1,1.2-0.5,1.4-0.8C30.8,9.8,24.2,3.7,16.3,3.7C7.8,3.7,1,10.5,1,18.9s6.7,15.2,15.2,15.3v-0.5
			c0.2,0.2,0.6,0.4,0.9,0.4h0.1c0.3,0,0.7-0.1,0.9-0.4l0,0c0.3-0.3,0.4-0.7,0.3-1.1C17.7,32.6,17,32.7,16.3,32.7z M38.9,32.9
			l-0.6-1.3c-0.2-0.4-0.6-0.6-1-0.4l-1.1,0.4c-0.2,0.1-0.3,0.2-0.4,0.4l-0.6,1.3c-0.1,0.2-0.1,0.5,0.1,0.8c0.2,0.2,0.4,0.4,0.7,0.4
			h1c0.1,0,0.2,0,0.3,0.1l0.7,0.3c0.2,0.1,0.5,0.1,0.7-0.1c0.2-0.1,0.3-0.4,0.4-0.6v-0.7C39,33.1,39,33,38.9,32.9z M21.2,15.5
			c-0.3-0.2-0.8-0.3-1.4-0.3h-0.9V18h1c0.7,0,1.1-0.1,1.4-0.4c0.3-0.2,0.4-0.6,0.4-1.1C21.7,16.1,21.5,15.7,21.2,15.5z M30,30.6
			c-0.3-0.2-0.6-0.2-0.9,0L26.7,32c-0.2,0.1-0.4,0.4-0.4,0.6s0.1,0.5,0.3,0.7l2.2,1.8c0.2,0.1,0.4,0.2,0.6,0.2l0.9-0.1
			c0.3,0,0.5-0.2,0.7-0.5l0.7-1.9c0.1-0.3,0-0.7-0.3-0.9L30,30.6z"/>
	</g>
</g>
</svg>
