<?xml version="1.0" encoding="utf-8"?>
<!-- Generator: Adobe Illustrator 18.0.0, SVG Export Plug-In . SVG Version: 6.00 Build 0)  -->
<!DOCTYPE svg PUBLIC "-//W3C//DTD SVG 1.1//EN" "http://www.w3.org/Graphics/SVG/1.1/DTD/svg11.dtd" [
	<!ENTITY ns_extend "http://ns.adobe.com/Extensibility/1.0/">
	<!ENTITY ns_ai "http://ns.adobe.com/AdobeIllustrator/10.0/">
	<!ENTITY ns_graphs "http://ns.adobe.com/Graphs/1.0/">
	<!ENTITY ns_vars "http://ns.adobe.com/Variables/1.0/">
	<!ENTITY ns_imrep "http://ns.adobe.com/ImageReplacement/1.0/">
	<!ENTITY ns_sfw "http://ns.adobe.com/SaveForWeb/1.0/">
	<!ENTITY ns_custom "http://ns.adobe.com/GenericCustomNamespace/1.0/">
	<!ENTITY ns_adobe_xpath "http://ns.adobe.com/XPath/1.0/">
]>
<svg version="1.1" id="Lag_1" xmlns:x="&ns_extend;" xmlns:i="&ns_ai;" xmlns:graph="&ns_graphs;"
	 xmlns="http://www.w3.org/2000/svg" xmlns:xlink="http://www.w3.org/1999/xlink" x="0px" y="0px" width="40px" height="40px"
	 viewBox="0 0 40 40" enable-background="new 0 0 40 40" xml:space="preserve">
<metadata>
	<sfw  xmlns="&ns_sfw;">
		<slices></slices>
		<sliceSourceBounds  height="38.2" width="36.9" y="381.8" x="305.5" bottomLeftOrigin="true"></sliceSourceBounds>
	</sfw>
</metadata>
<g id="tekst">
</g>
<g>
	<path fill="#FFFFFF" d="M25.1,18.7c0.7-0.3,1.1-0.6,1.4-1s0.4-0.7,0.4-1.1c0-0.5-0.2-0.8-0.5-1.1c-0.3-0.3-0.8-0.4-1.3-0.4
		c-0.5,0-1,0.1-1.3,0.4c-0.3,0.3-0.5,0.6-0.5,1.1c0,0.4,0.1,0.8,0.4,1.1S24.4,18.4,25.1,18.7z"/>
	<path fill="#FFFFFF" d="M25,21.4c-1.4,0.7-2.2,1.5-2.2,2.5c0,0.6,0.2,1,0.6,1.4c0.4,0.3,1,0.5,1.7,0.5c0.8,0,1.4-0.2,1.8-0.5
		s0.6-0.8,0.6-1.3c0-0.5-0.2-0.9-0.6-1.3C26.4,22.3,25.8,21.9,25,21.4z"/>
	<path fill="#FFFFFF" d="M36.5,2.5h-3.3V1h-2.7v1.5h-3.2V1h-2.8v1.5h-3.2V1h-2.8v1.5h-3.2V1h-2.8v1.5h-3V1H6.7v1.5H3.5
		c-1.1,0-2,0.9-2,2v32.8c0,1.1,1,1.9,2,1.9h26.1c0.7,0,1.6-0.3,2.1-0.8l5.8-5.8c0.1-0.1,0.2-0.2,0.3-0.3c0.3-0.5,0.6-1.1,0.6-1.6
		V4.5C38.5,3.3,37.6,2.5,36.5,2.5z M12.6,4.8h2.8V8h-2.8V4.8z M6.7,4.7h2.8v3.2H6.7V4.7z M15.8,27.9h-3.2v-8.6l0-1.4l0.1-1.6
		c-0.5,0.5-0.9,0.9-1.1,1l-1.7,1.4l-1.5-1.9l4.8-3.8h2.6V27.9z M30.5,4.8h2.7V8h-2.7V4.8z M24.6,4.8h2.8V8h-2.8V4.8z M18.6,4.7h2.7
		v3.2h-2.7V4.7z M25.1,28.1c-1.6,0-2.9-0.3-3.9-1c-0.9-0.7-1.4-1.7-1.4-3c0-0.9,0.2-1.6,0.7-2.3c0.5-0.7,1.2-1.2,2.2-1.7
		c-0.9-0.5-1.5-1.1-1.8-1.7c-0.4-0.6-0.6-1.3-0.6-2c0-1.1,0.4-1.9,1.3-2.6c0.9-0.7,2-1,3.5-1c1.4,0,2.6,0.3,3.5,1
		c0.9,0.7,1.3,1.5,1.3,2.6c0,0.8-0.2,1.4-0.6,2s-1.1,1.1-2,1.6c1.1,0.6,1.9,1.2,2.4,1.9c0.5,0.7,0.7,1.4,0.7,2.1
		c0,1.2-0.5,2.2-1.4,3C27.9,27.8,26.7,28.1,25.1,28.1z M29.2,38.2v-8.5h8.6L29.2,38.2z"/>
</g>
</svg>
