<?xml version="1.0" encoding="utf-8"?>
<!-- Generator: Adobe Illustrator 18.0.0, SVG Export Plug-In . SVG Version: 6.00 Build 0)  -->
<!DOCTYPE svg PUBLIC "-//W3C//DTD SVG 1.1//EN" "http://www.w3.org/Graphics/SVG/1.1/DTD/svg11.dtd" [
	<!ENTITY ns_extend "http://ns.adobe.com/Extensibility/1.0/">
	<!ENTITY ns_ai "http://ns.adobe.com/AdobeIllustrator/10.0/">
	<!ENTITY ns_graphs "http://ns.adobe.com/Graphs/1.0/">
	<!ENTITY ns_vars "http://ns.adobe.com/Variables/1.0/">
	<!ENTITY ns_imrep "http://ns.adobe.com/ImageReplacement/1.0/">
	<!ENTITY ns_sfw "http://ns.adobe.com/SaveForWeb/1.0/">
	<!ENTITY ns_custom "http://ns.adobe.com/GenericCustomNamespace/1.0/">
	<!ENTITY ns_adobe_xpath "http://ns.adobe.com/XPath/1.0/">
]>
<svg version="1.1" id="Lag_1" xmlns:x="&ns_extend;" xmlns:i="&ns_ai;" xmlns:graph="&ns_graphs;"
	 xmlns="http://www.w3.org/2000/svg" xmlns:xlink="http://www.w3.org/1999/xlink" x="0px" y="0px" width="40px" height="40px"
	 viewBox="0 0 40 40" enable-background="new 0 0 40 40" xml:space="preserve">
<metadata>
	<sfw  xmlns="&ns_sfw;">
		<slices></slices>
		<sliceSourceBounds  height="38.5" width="38.5" y="43.6" x="42.6" bottomLeftOrigin="true"></sliceSourceBounds>
		<optimizationSettings>
			<targetSettings  fileFormat="PNG24Format" targetSettingsID="0">
				<PNG24Format  transparency="true" interlaced="false" noMatteColor="false" filtered="false" matteColor="#FFFFFF">
					</PNG24Format>
			</targetSettings>
		</optimizationSettings>
	</sfw>
</metadata>
<g id="Lag_1_1_">
	<path fill="#464665" d="M30.9,28.4h2.8v2.8h-2.8v0.7c0,1.1-0.9,2.1-2.1,2.1c-1.1,0-2.1-0.9-2.1-2.1v-0.7h-1.4v0.7
		c0,1.1-0.9,2.1-2.1,2.1c-1.1,0-2.1-0.9-2.1-2.1v-0.7h-1.4v0.7c0,1.1-0.9,2.1-2.1,2.1s-2.1-0.9-2.1-2.1v-0.7H6.1v-2.8h9.6v-0.7
		c0-1.1,0.9-2.1,2.1-2.1s2.1,0.9,2.1,2.1v0.7h1.4v-0.7c0-1.1,0.9-2.1,2.1-2.1c1.1,0,2.1,0.9,2.1,2.1v0.7h1.4v-0.7
		c0-1.1,0.9-2.1,2.1-2.1c1.1,0,2.1,0.9,2.1,2.1v0.7H30.9z M30.9,9.1h2.8v2.8h-2.8v0.7c0,1.1-0.9,2.1-2.1,2.1s-2.1-0.9-2.1-2.1v-0.7
		h-1.4v0.7c0,1.1-0.9,2.1-2.1,2.1c-1.1,0-2.1-0.9-2.1-2.1v-0.7h-5.5v0.7c0,1.1-0.9,2.1-2.1,2.1s-2.1-0.9-2.1-2.1v-0.7H6.1V9.1h5.5
		V8.5c0-1.1,0.9-2.1,2.1-2.1s2.1,0.9,2.1,2.1v0.7h5.5V8.5c0-1.1,0.9-2.1,2.1-2.1c1.1,0,2.1,0.9,2.1,2.1v0.7h1.4V8.5
		c0-1.1,0.9-2.1,2.1-2.1s2.1,0.9,2.1,2.1v0.6H30.9z M28.2,18.8h5.5v2.8h-5.5v0.7c0,1.1-0.9,2.1-2.1,2.1s-2.1-1-2.1-2.2v-0.7h-5.5
		v0.7c0,1.1-0.9,2.1-2.1,2.1s-2.1-0.9-2.1-2.1v-0.7H13v0.7c0,1.1-0.9,2.1-2.1,2.1s-2.1-0.9-2.1-2.1v-0.7H6.1v-2.8h2.8V18
		c0-1,0.9-2,2.1-2s2,1,2,2.1v0.7h1.4v-0.7c0-1.1,0.9-2.1,2.1-2.1s2.1,0.9,2.1,2.1v0.7H24v-0.7c0-1.1,1-2.1,2.1-2.1s2.1,0.9,2.1,2.1
		V18.8z M35.1,34.6c0,0.4-0.3,0.7-0.7,0.7h-29c-0.4,0-0.7-0.3-0.7-0.7V5.7C4.8,5.3,5.1,5,5.4,5h28.9C34.7,5,35,5.3,35,5.7L35.1,34.6
		L35.1,34.6z M35.1,0.9H4.8C2.5,0.9,0.6,2.7,0.6,5v30.3c0,2.3,1.9,4.1,4.1,4.1H35c2.3,0,4.1-1.9,4.1-4.1V5
		C39.2,2.7,37.4,0.9,35.1,0.9z"/>
</g>
</svg>
