<?xml version="1.0" encoding="utf-8"?>
<!-- Generator: Adobe Illustrator 18.0.0, SVG Export Plug-In . SVG Version: 6.00 Build 0)  -->
<!DOCTYPE svg PUBLIC "-//W3C//DTD SVG 1.1//EN" "http://www.w3.org/Graphics/SVG/1.1/DTD/svg11.dtd" [
	<!ENTITY ns_extend "http://ns.adobe.com/Extensibility/1.0/">
	<!ENTITY ns_ai "http://ns.adobe.com/AdobeIllustrator/10.0/">
	<!ENTITY ns_graphs "http://ns.adobe.com/Graphs/1.0/">
	<!ENTITY ns_vars "http://ns.adobe.com/Variables/1.0/">
	<!ENTITY ns_imrep "http://ns.adobe.com/ImageReplacement/1.0/">
	<!ENTITY ns_sfw "http://ns.adobe.com/SaveForWeb/1.0/">
	<!ENTITY ns_custom "http://ns.adobe.com/GenericCustomNamespace/1.0/">
	<!ENTITY ns_adobe_xpath "http://ns.adobe.com/XPath/1.0/">
]>
<svg version="1.1" id="Lag_1" xmlns:x="&ns_extend;" xmlns:i="&ns_ai;" xmlns:graph="&ns_graphs;"
	 xmlns="http://www.w3.org/2000/svg" xmlns:xlink="http://www.w3.org/1999/xlink" x="0px" y="0px" width="40px" height="40px"
	 viewBox="0 0 40 40" enable-background="new 0 0 40 40" xml:space="preserve">
<metadata>
	<sfw  xmlns="&ns_sfw;">
		<slices></slices>
		<sliceSourceBounds  height="27" width="39.1" y="51.1" x="42.4" bottomLeftOrigin="true"></sliceSourceBounds>
		<optimizationSettings>
			<targetSettings  fileFormat="PNG24Format" targetSettingsID="0">
				<PNG24Format  transparency="true" interlaced="false" noMatteColor="false" filtered="false" matteColor="#FFFFFF">
					</PNG24Format>
			</targetSettings>
		</optimizationSettings>
	</sfw>
</metadata>
<g id="Lag_1_1_">
	<g>
		<path fill="#464665" d="M18.2,25.7h10.5l0,0c0.4,0,0.7-0.3,0.7-0.7c0-0.4-0.3-0.7-0.7-0.7H18.2c-0.4,0-0.7,0.3-0.7,0.7
			c0,0.1,0,0.1,0,0.2C17.6,25.5,17.9,25.7,18.2,25.7z"/>
		<path fill="#464665" d="M36.5,14.3h-20c-1.7,0-3,1.3-3,3h1h-1v3.1V22v4.7v2.1c0,0.1,0,0.1,0,0.2l0,0c0,1.6,1.4,2.9,3,2.9h20
			c1.7,0,3-1.3,3-3V17.3C39.5,15.6,38.2,14.3,36.5,14.3z M37.5,28.8c0,0.5-0.4,0.9-0.9,0.9h-20c-0.5,0-0.9-0.4-0.9-0.9v-3.1v-3.5
			h21.9L37.5,28.8L37.5,28.8z M37.5,18.6H15.6v-1.3c0-0.5,0.4-0.9,0.9-0.9h20c0.5,0,0.9,0.4,0.9,0.9L37.5,18.6L37.5,18.6z"/>
		<path fill="#464665" d="M27.2,12.6l-2.1-5.7c-0.4-1.2-1.6-2-2.8-2c-0.3,0-0.7,0.1-1,0.2L2.4,11.9c-1.2,0.4-2,1.6-2,2.8
			c0,0.3,0.1,0.7,0.2,1l0,0l4,10.9c0.4,1.2,1.6,2,2.8,2c0.3,0,0.7-0.1,1-0.2l3.5-1.3v-4.7L8,23.9c-0.1,0-0.2,0-0.2,0
			c-0.3,0-0.6-0.2-0.7-0.5C7,23,7.2,22.6,7.5,22.5l4.4-1.6v-3.7v-0.1c0.1-2.5,2.1-4.5,4.6-4.5L27.2,12.6L27.2,12.6z M9.2,19L7,19.7
			c-0.1,0-0.3,0.1-0.4,0.1c-0.5,0-1-0.3-1.1-0.8L5,17.6c-0.1-0.1-0.1-0.3-0.1-0.4c0-0.5,0.3-1,0.8-1.1l2.2-0.8
			c0.1,0,0.3-0.1,0.4-0.1c0.5,0,1,0.3,1.1,0.8l0.5,1.5c0.1,0.1,0.1,0.3,0.1,0.4C10,18.3,9.7,18.8,9.2,19z"/>
	</g>
</g>
<g id="tekst">
</g>
</svg>
