<?xml version="1.0" encoding="utf-8"?>
<!-- Generator: Adobe Illustrator 18.0.0, SVG Export Plug-In . SVG Version: 6.00 Build 0)  -->
<!DOCTYPE svg PUBLIC "-//W3C//DTD SVG 1.1//EN" "http://www.w3.org/Graphics/SVG/1.1/DTD/svg11.dtd" [
	<!ENTITY ns_extend "http://ns.adobe.com/Extensibility/1.0/">
	<!ENTITY ns_ai "http://ns.adobe.com/AdobeIllustrator/10.0/">
	<!ENTITY ns_graphs "http://ns.adobe.com/Graphs/1.0/">
	<!ENTITY ns_vars "http://ns.adobe.com/Variables/1.0/">
	<!ENTITY ns_imrep "http://ns.adobe.com/ImageReplacement/1.0/">
	<!ENTITY ns_sfw "http://ns.adobe.com/SaveForWeb/1.0/">
	<!ENTITY ns_custom "http://ns.adobe.com/GenericCustomNamespace/1.0/">
	<!ENTITY ns_adobe_xpath "http://ns.adobe.com/XPath/1.0/">
]>
<svg version="1.1" id="Lag_1" xmlns:x="&ns_extend;" xmlns:i="&ns_ai;" xmlns:graph="&ns_graphs;"
	 xmlns="http://www.w3.org/2000/svg" xmlns:xlink="http://www.w3.org/1999/xlink" x="0px" y="0px" width="40px" height="40px"
	 viewBox="0 0 40 40" enable-background="new 0 0 40 40" xml:space="preserve">
<metadata>
	<sfw  xmlns="&ns_sfw;">
		<slices></slices>
		<sliceSourceBounds  height="38.6" width="38" y="44" x="43" bottomLeftOrigin="true"></sliceSourceBounds>
		<optimizationSettings>
			<targetSettings  fileFormat="PNG24Format" targetSettingsID="0">
				<PNG24Format  transparency="true" interlaced="false" noMatteColor="false" filtered="false" matteColor="#FFFFFF">
					</PNG24Format>
			</targetSettings>
		</optimizationSettings>
	</sfw>
</metadata>
<g id="Lag_1_1_">
	<circle fill="#464665" cx="24.1" cy="7.5" r="7.1"/>
	<circle fill="#464665" cx="9.1" cy="24.7" r="3.8"/>
	<path fill="#464665" d="M31.9,15.3c-2,2.1-4.8,3.4-7.9,3.4s-5.9-1.3-7.9-3.4c-2.2,0.1-4.2,1.1-5.5,2.7c3.1,0.7,5.5,3.5,5.5,6.8
		c0,0.5-0.2,1-0.3,1.5C18.3,27.4,20,30,20,33v3h19V23C39,18.9,35.9,15.5,31.9,15.3z"/>
	<path fill="#464665" d="M13.2,28.8c-1.1,1.1-2.5,1.8-4.2,1.8s-3.1-0.7-4.1-1.8C2.7,28.9,1,30.7,1,33v6h16v-6
		C17,30.8,15.4,29,13.2,28.8z"/>
</g>
<g id="tekst">
</g>
</svg>
