<?xml version="1.0" encoding="utf-8"?>
<!-- Generator: Adobe Illustrator 18.0.0, SVG Export Plug-In . SVG Version: 6.00 Build 0)  -->
<!DOCTYPE svg PUBLIC "-//W3C//DTD SVG 1.1//EN" "http://www.w3.org/Graphics/SVG/1.1/DTD/svg11.dtd" [
	<!ENTITY ns_extend "http://ns.adobe.com/Extensibility/1.0/">
	<!ENTITY ns_ai "http://ns.adobe.com/AdobeIllustrator/10.0/">
	<!ENTITY ns_graphs "http://ns.adobe.com/Graphs/1.0/">
	<!ENTITY ns_vars "http://ns.adobe.com/Variables/1.0/">
	<!ENTITY ns_imrep "http://ns.adobe.com/ImageReplacement/1.0/">
	<!ENTITY ns_sfw "http://ns.adobe.com/SaveForWeb/1.0/">
	<!ENTITY ns_custom "http://ns.adobe.com/GenericCustomNamespace/1.0/">
	<!ENTITY ns_adobe_xpath "http://ns.adobe.com/XPath/1.0/">
]>
<svg version="1.1" id="Lag_1" xmlns:x="&ns_extend;" xmlns:i="&ns_ai;" xmlns:graph="&ns_graphs;"
	 xmlns="http://www.w3.org/2000/svg" xmlns:xlink="http://www.w3.org/1999/xlink" x="0px" y="0px" width="40px" height="40px"
	 viewBox="0 0 40 40" enable-background="new 0 0 40 40" xml:space="preserve">
<metadata>
	<sfw  xmlns="&ns_sfw;">
		<slices></slices>
		<sliceSourceBounds  height="39.3" width="39.9" y="43.1" x="42.1" bottomLeftOrigin="true"></sliceSourceBounds>
		<optimizationSettings>
			<targetSettings  fileFormat="PNG24Format" targetSettingsID="0">
				<PNG24Format  transparency="true" interlaced="false" noMatteColor="false" filtered="false" matteColor="#FFFFFF">
					</PNG24Format>
			</targetSettings>
		</optimizationSettings>
	</sfw>
</metadata>
<g id="Lag_1_1_">
	<g>
		<path fill="#464665" d="M13.2,26.7l-1.9-5l-1.9,4.8H6.8l3.1-6.7L7,13.3h2.7l1.7,4.5l2.1-4.9l2.6-0.1l-3.2,7l3.3,7.2L13.2,26.7z
			 M0.1,4.7v31.1L23,39.9V0.6L0.1,4.7z"/>
	</g>
	<g>
		<path fill="#464665" d="M37.3,11h-6.6V6.9h6.6V11z M37.3,16.3h-6.6v-4.1h6.6V16.3z M37.3,21.6h-6.6v-4.1h6.6V21.6z M37.3,27h-6.6
			v-4.1h6.6V27z M37.3,32.3h-6.6v-4.1h6.6V32.3z M39.2,4.6H23.7v2.3h5.8V11h-5.8v1.2h5.8v4.1h-5.8v1.2h5.8v4.1h-5.8v1.2h5.8V27h-5.8
			v1.3h5.8v4.1h-5.8V35h15.5c0.4,0,0.8-0.4,0.8-0.8V5.4C39.9,5,39.6,4.6,39.2,4.6z"/>
	</g>
</g>
<g id="tekst">
</g>
</svg>
