<?xml version="1.0" encoding="utf-8"?>
<!-- Generator: Adobe Illustrator 18.0.0, SVG Export Plug-In . SVG Version: 6.00 Build 0)  -->
<!DOCTYPE svg PUBLIC "-//W3C//DTD SVG 1.1//EN" "http://www.w3.org/Graphics/SVG/1.1/DTD/svg11.dtd" [
	<!ENTITY ns_extend "http://ns.adobe.com/Extensibility/1.0/">
	<!ENTITY ns_ai "http://ns.adobe.com/AdobeIllustrator/10.0/">
	<!ENTITY ns_graphs "http://ns.adobe.com/Graphs/1.0/">
	<!ENTITY ns_vars "http://ns.adobe.com/Variables/1.0/">
	<!ENTITY ns_imrep "http://ns.adobe.com/ImageReplacement/1.0/">
	<!ENTITY ns_sfw "http://ns.adobe.com/SaveForWeb/1.0/">
	<!ENTITY ns_custom "http://ns.adobe.com/GenericCustomNamespace/1.0/">
	<!ENTITY ns_adobe_xpath "http://ns.adobe.com/XPath/1.0/">
]>
<svg version="1.1" id="Lag_1" xmlns:x="&ns_extend;" xmlns:i="&ns_ai;" xmlns:graph="&ns_graphs;"
	 xmlns="http://www.w3.org/2000/svg" xmlns:xlink="http://www.w3.org/1999/xlink" x="0px" y="0px" width="40px" height="40px"
	 viewBox="0 0 40 40" enable-background="new 0 0 40 40" xml:space="preserve">
<metadata>
	<sfw  xmlns="&ns_sfw;">
		<slices></slices>
		<sliceSourceBounds  height="40" width="40.2" y="43" x="41.9" bottomLeftOrigin="true"></sliceSourceBounds>
		<optimizationSettings>
			<targetSettings  fileFormat="PNG24Format" targetSettingsID="0">
				<PNG24Format  transparency="true" interlaced="false" noMatteColor="false" filtered="false" matteColor="#FFFFFF">
					</PNG24Format>
			</targetSettings>
		</optimizationSettings>
	</sfw>
</metadata>
<g id="Lag_1_1_">
	<path fill="#464665" d="M32.4,0H7.6C3.3,0-0.1,3.4-0.1,7.7v8.1v16.5c0,4.3,3.4,7.7,7.7,7.7h24.8c4.3,0,7.7-3.4,7.7-7.7V15.8V7.9
		C40.1,3.4,36.7,0,32.4,0z M34.5,4.7h0.9v0.9v6h-6.8V4.7H34.5z M14.2,16c1.3-1.7,3.4-3,5.8-3s4.5,1.1,5.8,3c0.9,1.1,1.3,2.6,1.3,4.1
		c0,3.9-3.2,7.1-7.1,7.1s-7.1-3.2-7.1-7.1C12.9,18.6,13.4,17.1,14.2,16z M36.3,32.5c0,2.1-1.7,3.9-3.9,3.9H7.6
		c-2.1,0-3.9-1.7-3.9-3.9V16h6c-0.4,1.3-0.9,2.6-0.9,4.1c0,6,4.9,10.9,10.9,10.9s10.9-4.9,10.9-10.9c0-1.5-0.2-2.8-0.9-4.1h6v16.5
		H36.3z"/>
</g>
<g id="tekst">
</g>
</svg>
