<?xml version="1.0" encoding="utf-8"?>
<!-- Generator: Adobe Illustrator 18.0.0, SVG Export Plug-In . SVG Version: 6.00 Build 0)  -->
<!DOCTYPE svg PUBLIC "-//W3C//DTD SVG 1.1//EN" "http://www.w3.org/Graphics/SVG/1.1/DTD/svg11.dtd" [
	<!ENTITY ns_extend "http://ns.adobe.com/Extensibility/1.0/">
	<!ENTITY ns_ai "http://ns.adobe.com/AdobeIllustrator/10.0/">
	<!ENTITY ns_graphs "http://ns.adobe.com/Graphs/1.0/">
	<!ENTITY ns_vars "http://ns.adobe.com/Variables/1.0/">
	<!ENTITY ns_imrep "http://ns.adobe.com/ImageReplacement/1.0/">
	<!ENTITY ns_sfw "http://ns.adobe.com/SaveForWeb/1.0/">
	<!ENTITY ns_custom "http://ns.adobe.com/GenericCustomNamespace/1.0/">
	<!ENTITY ns_adobe_xpath "http://ns.adobe.com/XPath/1.0/">
]>
<svg version="1.1" id="Lag_1" xmlns:x="&ns_extend;" xmlns:i="&ns_ai;" xmlns:graph="&ns_graphs;"
	 xmlns="http://www.w3.org/2000/svg" xmlns:xlink="http://www.w3.org/1999/xlink" x="0px" y="0px" width="40px" height="40px"
	 viewBox="0 0 40 40" enable-background="new 0 0 40 40" xml:space="preserve">
<metadata>
	<sfw  xmlns="&ns_sfw;">
		<slices></slices>
		<sliceSourceBounds  height="25.4" width="40" y="50.9" x="42" bottomLeftOrigin="true"></sliceSourceBounds>
		<optimizationSettings>
			<targetSettings  fileFormat="PNG24Format" targetSettingsID="0">
				<PNG24Format  transparency="true" interlaced="false" noMatteColor="false" filtered="false" matteColor="#FFFFFF">
					</PNG24Format>
			</targetSettings>
		</optimizationSettings>
	</sfw>
</metadata>
<g id="Lag_1_1_">
	<g>
		<g>
			<path fill="#464665" d="M13.1,8H9.4v5.3l3.7-2.5C13.1,10.8,13.1,8,13.1,8z M6.2,20.1l4.9-3.4l10-7L36,20.1
				c0.6,0.5,1.4,0.3,1.9-0.3c0.5-0.6,0.3-1.5-0.3-1.9l-15.7-11c-0.5-0.3-1.1-0.3-1.6,0L9.4,14.5l-4.9,3.3c-0.6,0.5-0.7,1.3-0.3,1.9
				C4.8,20.4,5.6,20.5,6.2,20.1z M3.6,22.5L3.6,22.5L3.6,22.5L3.6,22.5z M39.2,22.6c-0.4,0-0.8,0.4-0.8,0.8v1.2h-1.3v-1.1
				c0-0.3-0.1-0.5-0.3-0.7c-0.5-0.5-1.2,0.1-1.2,0.6v1.2h-1.3v-4.3l-13.2-9L8,20.4v4.1H7.4v-1.2c0-0.4-0.4-0.8-0.8-0.8
				s-0.8,0.4-0.8,0.8v1.2H4.4v-1.2c0-0.4-0.4-0.8-0.8-0.8l0,0c-0.4,0-0.8,0.4-0.8,0.8v1.2H1.7v-1.2c0-0.4-0.4-0.8-0.8-0.8
				S0,22.9,0,23.3V32h1.7v-5.7h1.1V32h1.7c0-0.8,0-5.7,0-5.7h1.3V32h1.7v-5.7H8v4.6C8,31.5,8.5,32,9.1,32h8.3V19.1h7.5V32h8.6
				c0.4,0,0.8-0.4,0.8-0.8v-4.9h1.3V32h1.5v-5.7h1.3v5.8H40v-8.7C40,23,39.6,22.6,39.2,22.6z"/>
		</g>
	</g>
</g>
<g id="tekst">
</g>
</svg>
