<?xml version="1.0" encoding="utf-8"?>
<!-- Generator: Adobe Illustrator 18.0.0, SVG Export Plug-In . SVG Version: 6.00 Build 0)  -->
<!DOCTYPE svg PUBLIC "-//W3C//DTD SVG 1.1//EN" "http://www.w3.org/Graphics/SVG/1.1/DTD/svg11.dtd" [
	<!ENTITY ns_extend "http://ns.adobe.com/Extensibility/1.0/">
	<!ENTITY ns_ai "http://ns.adobe.com/AdobeIllustrator/10.0/">
	<!ENTITY ns_graphs "http://ns.adobe.com/Graphs/1.0/">
	<!ENTITY ns_vars "http://ns.adobe.com/Variables/1.0/">
	<!ENTITY ns_imrep "http://ns.adobe.com/ImageReplacement/1.0/">
	<!ENTITY ns_sfw "http://ns.adobe.com/SaveForWeb/1.0/">
	<!ENTITY ns_custom "http://ns.adobe.com/GenericCustomNamespace/1.0/">
	<!ENTITY ns_adobe_xpath "http://ns.adobe.com/XPath/1.0/">
]>
<svg version="1.1" id="Lag_1" xmlns:x="&ns_extend;" xmlns:i="&ns_ai;" xmlns:graph="&ns_graphs;"
	 xmlns="http://www.w3.org/2000/svg" xmlns:xlink="http://www.w3.org/1999/xlink" x="0px" y="0px" width="40px" height="40px"
	 viewBox="0 0 40 40" enable-background="new 0 0 40 40" xml:space="preserve">
<metadata>
	<sfw  xmlns="&ns_sfw;">
		<slices></slices>
		<sliceSourceBounds  height="39.8" width="38.7" y="43.2" x="42.3" bottomLeftOrigin="true"></sliceSourceBounds>
		<optimizationSettings>
			<targetSettings  fileFormat="PNG24Format" targetSettingsID="0">
				<PNG24Format  transparency="true" interlaced="false" noMatteColor="false" filtered="false" matteColor="#FFFFFF">
					</PNG24Format>
			</targetSettings>
		</optimizationSettings>
	</sfw>
</metadata>
<g id="Lag_1_1_">
	<g>
		<g>
			<path fill="#464665" d="M18,22V2.6C7,3.2,0.3,11.4,0.3,21.4c0,10.4,8.5,18.4,18.9,18.4c9.9,0,18.1-7.9,18.9-17.9H18V22z"/>
			<path fill="#464665" d="M39,21H19.4V0h0.7C31.5,0,39,8.9,39,20.2V21z M20.8,19h16.7C37.2,8,30.7,2.2,20.8,1.9V19z"/>
		</g>
		<polygon fill="#464665" points="25.7,2.3 20.5,7.6 19.6,6.8 24.8,1.5 		"/>
		<polygon fill="#464665" points="29.2,3 20.5,11.7 19.6,10.9 27.6,2.8 		"/>
		<polygon fill="#464665" points="31.8,5.1 20.7,16.3 19.8,15.4 30.9,4.3 		"/>
		
			<rect x="18.1" y="13.1" transform="matrix(-0.7068 0.7074 -0.7074 -0.7068 55.7252 4.3135)" fill="#464665" width="17.8" height="1.2"/>
		
			<rect x="23.6" y="14.7" transform="matrix(-0.7063 0.7079 -0.7079 -0.7063 63.1769 4.3027)" fill="#464665" width="14.2" height="1.2"/>
		
			<rect x="29.4" y="16.6" transform="matrix(-0.7071 0.7071 -0.7071 -0.7071 70.3244 5.2674)" fill="#464665" width="9.3" height="1.2"/>
		
			<rect x="35.8" y="18.8" transform="matrix(-0.7071 0.7071 -0.7071 -0.7071 77.4829 6.7488)" fill="#464665" width="3.1" height="1.2"/>
	</g>
</g>
<g id="tekst">
</g>
</svg>
