<?xml version="1.0" encoding="utf-8"?>
<svg version="1.1"  xmlns="http://www.w3.org/2000/svg" xmlns:xlink="http://www.w3.org/1999/xlink" x="0px" y="0px" width="40px" height="40px"
	 viewBox="0 0 40 40" enable-background="new 0 0 40 40" xml:space="preserve">
<g id="Lag_1">
	<g>
		<g>
			<path fill="#FFFFFF" d="M39.7,15.6c0-0.4-0.1-0.6-0.1-0.5c0,0,0,0.2,0,0.6c0,0.6-0.1,1.2-0.4,1.8c-0.1,0.3-0.4,0.5-0.6,0.7
				c0.2-0.3,0.2-0.7,0.3-1.1c0-0.4,0-0.8-0.2-1.3c-0.2-0.4-0.6-0.9-1.1-1c-0.5-0.2-1.1-0.1-1.5,0.3L35.9,15l0,0l0,0l0,0
				c0,0-0.1,0.1-0.1,0.1c-0.1,0.1-0.1,0.2-0.2,0.3c-0.1,0.2-0.2,0.4-0.2,0.6c-0.1,0.4,0,0.8,0.1,1.2c0.1,0.3,0.2,0.6,0.4,0.8
				c-0.1,0-0.3,0.1-0.4,0.1c-0.8-7.2-7.7-12.7-16-12.7c-2,0-4,0.3-5.8,1C10.6,4.6,7,3.9,7,3.9C6.3,3.7,6,4.1,6.1,4.8L7.6,10
				C6,11.5,4.8,13.4,4,15.5c0,0-0.1,0-0.1,0l-2.5,0.3c-0.7,0.1-1.2,0.7-1.2,1.4v4.9c0,0.7,0.6,1.3,1.2,1.4L4,23.8c0,0,0.1,0,0.1,0
				C4.8,26,6.2,28,7.9,29.6l-0.7,5.5c-0.1,0.7,0.4,1.2,1.1,1.2h5.6c0.7,0,1.3-0.6,1.4-1.2l0.2-1.7c1.3,0.3,2.6,0.4,3.9,0.4
				c1.9,0,3.7-0.3,5.4-0.8l0.3,2.1c0.1,0.7,0.7,1.2,1.4,1.2H32c0.7,0,1.2-0.6,1.1-1.2l-0.9-6.9c1.9-2.2,3-4.9,3.2-7.8
				c0.1,0,0.2,0,0.3-0.1c0.7-0.2,1.4-0.5,2-1.1c0.1-0.1,0.2-0.2,0.3-0.3c0,0,0.1,0,0.1,0c0.4-0.1,0.7-0.3,1-0.5
				c0.2-0.3,0.4-0.6,0.6-0.9C39.8,16.9,39.8,16.3,39.7,15.6z M9.5,14.9c-0.8,0-1.5-0.7-1.5-1.5s0.7-1.5,1.5-1.5
				c0.8,0,1.5,0.7,1.5,1.5S10.4,14.9,9.5,14.9z M15.7,8.6c-0.2-0.3,0-0.7,0.3-0.8c0.2-0.1,1.1-0.5,4-0.5c2.6,0,4,0.7,4,0.7
				c0.3,0.2,0.4,0.5,0.3,0.8c-0.1,0.2-0.3,0.3-0.6,0.3c-0.1,0-0.2,0-0.3-0.1c0,0-1.2-0.6-3.5-0.6c-2.6,0-3.4,0.4-3.4,0.4
				C16.2,9.1,15.9,8.9,15.7,8.6z M23.9,21.5c-0.9,0.8-2.2,1.1-3.8,1.1h-1.2v4.7h-2.8V14.1h4.2c1.6,0,2.8,0.3,3.7,1
				c0.8,0.7,1.3,1.7,1.3,3.1C25.2,19.7,24.8,20.7,23.9,21.5z M37.2,16.8c-0.1,0.4-0.3,0.6-0.6,0.8c-0.2-0.4-0.3-0.9-0.2-1.3
				c0-0.1,0.1-0.2,0.1-0.2c0,0,0.1-0.1,0.1-0.1c0,0,0,0,0,0l0,0l0,0c0,0,0,0,0,0l0,0l0,0c0.1-0.1,0.2,0,0.3,0c0.1,0,0.1,0.1,0.2,0.3
				C37.2,16.4,37.2,16.6,37.2,16.8z M20.2,16.4h-1.3v3.9h0.9c0.9,0,1.5-0.2,1.9-0.5c0.4-0.3,0.6-0.8,0.6-1.5c0-0.7-0.2-1.1-0.5-1.5
				C21.5,16.5,21,16.4,20.2,16.4z"/>
		</g>
	</g>
</g>
<g id="tekst">
</g>
</svg>
