<?xml version="1.0" encoding="utf-8"?>
<!-- Generator: Adobe Illustrator 18.0.0, SVG Export Plug-In . SVG Version: 6.00 Build 0)  -->
<!DOCTYPE svg PUBLIC "-//W3C//DTD SVG 1.1//EN" "http://www.w3.org/Graphics/SVG/1.1/DTD/svg11.dtd" [
	<!ENTITY ns_extend "http://ns.adobe.com/Extensibility/1.0/">
	<!ENTITY ns_ai "http://ns.adobe.com/AdobeIllustrator/10.0/">
	<!ENTITY ns_graphs "http://ns.adobe.com/Graphs/1.0/">
	<!ENTITY ns_vars "http://ns.adobe.com/Variables/1.0/">
	<!ENTITY ns_imrep "http://ns.adobe.com/ImageReplacement/1.0/">
	<!ENTITY ns_sfw "http://ns.adobe.com/SaveForWeb/1.0/">
	<!ENTITY ns_custom "http://ns.adobe.com/GenericCustomNamespace/1.0/">
	<!ENTITY ns_adobe_xpath "http://ns.adobe.com/XPath/1.0/">
]>
<svg version="1.1" id="Lag_1" xmlns:x="&ns_extend;" xmlns:i="&ns_ai;" xmlns:graph="&ns_graphs;"
	 xmlns="http://www.w3.org/2000/svg" xmlns:xlink="http://www.w3.org/1999/xlink" x="0px" y="0px" width="40px" height="40px"
	 viewBox="0 0 40 40" enable-background="new 0 0 40 40" xml:space="preserve">
<metadata>
	<sfw  xmlns="&ns_sfw;">
		<slices></slices>
		<sliceSourceBounds  width="38.7" height="38.6" x="587.6" y="441.4" bottomLeftOrigin="true"></sliceSourceBounds>
	</sfw>
</metadata>
<g>
	<path fill="#FFFFFF" d="M2.5,23.9v11.6c0,2.1,1.7,3.9,3.9,3.9H18V23.9L2.5,23.9L2.5,23.9z"/>
</g>
<g>
	<path fill="#FFFFFF" d="M24.2,10.1c0.4-1.7,1-3.8,2.2-4.9c0.4-0.4,0.8-0.6,1.4-0.6c0.5,0,1,0.2,1.4,0.6c0.8,0.8,0.8,2,0,2.7
		C27.9,9.1,25.9,9.7,24.2,10.1z M10.9,7.9c-0.8-0.8-0.8-2,0-2.7c0.4-0.4,0.8-0.6,1.4-0.6s1,0.2,1.4,0.6c1.1,1.1,1.8,3.2,2.2,4.9
		C14,9.7,12,9,10.9,7.9z M35.4,12.3h-6c0.9-0.5,1.7-1,2.4-1.7c2.3-2.3,2.3-5.9,0-8.2c-2.2-2.2-6-2.2-8.2,0c-3.2,3.2-3.6,9.1-3.6,9.8
		c0,0,0,0.1,0,0.1h0c0,0,0-0.1,0-0.1c0-0.7-0.5-6.6-3.6-9.8c-2.2-2.2-6-2.2-8.2,0c-2.3,2.3-2.3,5.9,0,8.2c0.7,0.7,1.5,1.2,2.4,1.7
		h-6c-2.1,0-3.9,1.7-3.9,3.9V22H18v-7.7h3.9V22h17.4v-5.8C39.3,14.1,37.6,12.3,35.4,12.3z"/>
</g>
<g>
	<path fill="#FFFFFF" d="M35.3,31.9C35.3,31.9,35.3,31.9,35.3,31.9C35.3,31.9,35.3,31.9,35.3,31.9C35.3,31.9,35.3,31.9,35.3,31.9z"
		/>
	<path fill="#FFFFFF" d="M24.4,38.7c0-1.3,1.1-2.4,2.4-2.4c0.2,0,0.4,0,0.6,0.1c-0.5-0.4-0.8-1.1-0.8-1.8c0-1.3,1.1-2.4,2.4-2.4
		c0.7,0,1.3,0.3,1.8,0.8c-0.1-0.3-0.2-0.5-0.2-0.8c0-1.3,1.1-2.4,2.4-2.4c0.6,0,1.2,0.3,1.7,0.7c0-0.1,0-0.2,0-0.4
		c0-1.3,1.1-2.4,2.4-2.4c0.2,0,0.3,0,0.4,0v-3.9H21.9v15.5h2.7C24.5,39.2,24.4,38.9,24.4,38.7z"/>
</g>
<circle fill="#FFFFFF" cx="32.3" cy="37.1" r="2.3"/>
<circle fill="#FFFFFF" cx="37.6" cy="37.8" r="1.6"/>
</svg>
