<?xml version="1.0" encoding="utf-8"?>
<!-- Generator: Adobe Illustrator 18.0.0, SVG Export Plug-In . SVG Version: 6.00 Build 0)  -->
<!DOCTYPE svg PUBLIC "-//W3C//DTD SVG 1.1//EN" "http://www.w3.org/Graphics/SVG/1.1/DTD/svg11.dtd" [
	<!ENTITY ns_extend "http://ns.adobe.com/Extensibility/1.0/">
	<!ENTITY ns_ai "http://ns.adobe.com/AdobeIllustrator/10.0/">
	<!ENTITY ns_graphs "http://ns.adobe.com/Graphs/1.0/">
	<!ENTITY ns_vars "http://ns.adobe.com/Variables/1.0/">
	<!ENTITY ns_imrep "http://ns.adobe.com/ImageReplacement/1.0/">
	<!ENTITY ns_sfw "http://ns.adobe.com/SaveForWeb/1.0/">
	<!ENTITY ns_custom "http://ns.adobe.com/GenericCustomNamespace/1.0/">
	<!ENTITY ns_adobe_xpath "http://ns.adobe.com/XPath/1.0/">
]>
<svg version="1.1" id="Lag_1" xmlns:x="&ns_extend;" xmlns:i="&ns_ai;" xmlns:graph="&ns_graphs;"
	 xmlns="http://www.w3.org/2000/svg" xmlns:xlink="http://www.w3.org/1999/xlink" x="0px" y="0px" width="40px" height="40px"
	 viewBox="0 0 40 40" enable-background="new 0 0 40 40" xml:space="preserve">
<metadata>
	<sfw  xmlns="&ns_sfw;">
		<slices></slices>
		<sliceSourceBounds  height="38.8" width="27.4" y="43.6" x="54.1" bottomLeftOrigin="true"></sliceSourceBounds>
		<optimizationSettings>
			<targetSettings  fileFormat="PNG24Format" targetSettingsID="0">
				<PNG24Format  transparency="true" interlaced="false" noMatteColor="false" filtered="false" matteColor="#FFFFFF">
					</PNG24Format>
			</targetSettings>
		</optimizationSettings>
	</sfw>
</metadata>
<g id="Lag_1_1_">
	<path fill="#464665" d="M25.9,23c0.3-0.3,0.5-1.8-1.5-3.1s-4.1-0.3-4.1,0c0,0.4,1.6,0.5,3.1,1.4C24.8,22.3,25.6,23.3,25.9,23z
		 M28.5,0.6c-0.9,0.1-1.2,2.5-0.8,5.3c0.4,2.6,1.3,4.6,2.1,4.8l0.1,0.1c0,0,0.1,0,0.2,0.1c0.6,0.6,2.8,0.4,5.2-0.6
		c2.6-1,4.5-2.5,4.2-3.3s-2.7-0.6-5.3,0.4c-0.2,0.1-0.3,0.1-0.5,0.2c0.1-0.1,0.2-0.3,0.2-0.4c1.4-2.4,2-4.7,1.3-5.2
		c-0.7-0.4-2.5,1.2-3.9,3.6C31.1,5.8,31,6,30.9,6.2c0-0.3-0.1-0.5-0.1-0.8C30.3,2.6,29.3,0.5,28.5,0.6z M29.4,11.5
		c1.8,1.1,4.6,3,3,7.6c0-0.1-0.1-0.3-0.2-0.4c-0.8-1.2-2.2-1.2-2.4-1c-0.2,0.3,1,1.4,1.6,2.1c0.2,0.3,0.3,0.7,0.2,1
		c-0.2,0.4-0.5,0.9-0.8,1.4c-1.3,2.1-3.2,4.6-5.4,7c0-0.2-0.1-0.4-0.2-0.6c-0.8-1.2-2.4-1.4-2.6-1.1s1.1,1.5,1.6,2.1
		c0.2,0.2,0.2,0.5,0.1,0.7c-2,2.2-4,4.2-5.9,5.8c0-0.1-0.1-0.2-0.2-0.4c-0.7-1-2.1-0.6-2.2-0.5c-0.1,0.2,0.7,0.9,1.1,1.4
		c0.1,0.1,0.1,0.3,0.1,0.4c-2.1,1.7-3.9,2.7-4.6,2.3c-1-0.6-0.4-4.6,0.9-9.4c0.2-0.2,0.4-0.3,0.7-0.4c0.9-0.2,2.5,0.6,3,0.4
		s-1-2.1-2.6-1.9c-0.3,0-0.5,0.1-0.7,0.2c1.5-4.8,3.5-10,5.3-13.1c0.6-1,1.2-1.9,1.8-2.5c0.3-0.2,0.7-0.3,1.1-0.2
		c1.3,0.2,3.4,1,3.6,0.5c0.1-0.4-0.8-1.7-2.5-2.1C25.8,9.7,28,10.7,29.4,11.5z"/>
</g>
</svg>
