<?xml version="1.0" encoding="utf-8"?>
<!-- Generator: Adobe Illustrator 18.0.0, SVG Export Plug-In . SVG Version: 6.00 Build 0)  -->
<!DOCTYPE svg PUBLIC "-//W3C//DTD SVG 1.1//EN" "http://www.w3.org/Graphics/SVG/1.1/DTD/svg11.dtd" [
	<!ENTITY ns_extend "http://ns.adobe.com/Extensibility/1.0/">
	<!ENTITY ns_ai "http://ns.adobe.com/AdobeIllustrator/10.0/">
	<!ENTITY ns_graphs "http://ns.adobe.com/Graphs/1.0/">
	<!ENTITY ns_vars "http://ns.adobe.com/Variables/1.0/">
	<!ENTITY ns_imrep "http://ns.adobe.com/ImageReplacement/1.0/">
	<!ENTITY ns_sfw "http://ns.adobe.com/SaveForWeb/1.0/">
	<!ENTITY ns_custom "http://ns.adobe.com/GenericCustomNamespace/1.0/">
	<!ENTITY ns_adobe_xpath "http://ns.adobe.com/XPath/1.0/">
]>
<svg version="1.1" id="Lag_1" xmlns:x="&ns_extend;" xmlns:i="&ns_ai;" xmlns:graph="&ns_graphs;"
	 xmlns="http://www.w3.org/2000/svg" xmlns:xlink="http://www.w3.org/1999/xlink" x="0px" y="0px" width="40px" height="40px"
	 viewBox="0 0 40 40" enable-background="new 0 0 40 40" xml:space="preserve">
<metadata>
	<sfw  xmlns="&ns_sfw;">
		<slices></slices>
		<sliceSourceBounds  height="39.2" width="34.8" y="43.6" x="44.2" bottomLeftOrigin="true"></sliceSourceBounds>
		<optimizationSettings>
			<targetSettings  fileFormat="PNG24Format" targetSettingsID="0">
				<PNG24Format  transparency="true" interlaced="false" noMatteColor="false" filtered="false" matteColor="#FFFFFF">
					</PNG24Format>
			</targetSettings>
		</optimizationSettings>
	</sfw>
</metadata>
<g id="tekst">
</g>
<g>
	<g>
		<path fill="#464665" d="M10,9.4c0.5,0,0.9-0.2,1.3-0.4c0.2-0.2,0.3-0.3,0.5-0.4c0.9-0.9,1.4-2.2,1.4-3.4c0-1.9-1.5-3.4-3.3-3.4
			S6.7,3.4,6.7,5.3C6.7,7.1,8.2,9.4,10,9.4z M13.2,25.8c-1.3-0.5-2.5-1.5-2.8-2.9C10,21,9.7,18.9,9.7,17c0-1.2,0.1-2.4,0.3-3.6
			l-1.7-2.6c-0.1-0.2-0.3-0.3-0.6-0.2L4.2,11c-0.8,0.1-1.3,0.8-1.4,1.2C2.1,17.7,1.9,18,2.9,23.3C3,24.1,4.1,24.7,5,24.8l0.5,0.1
			l0.4,12.7c0,1,1.1,1.8,2,1.8c0.6,0,1.4-0.3,1.7-0.6c0.2-0.2,0.5-0.2,0.7,0c0.3,0.4,1.1,0.6,1.7,0.6c0.6,0,1.3-0.4,1.7-0.9
			c-0.1-0.3-0.1-0.6-0.2-0.9L13.2,25.8z M29.3,9.4c1.8,0,3.2-2.4,3.2-4.3S31,1.7,29.2,1.7S26,3.3,26,5.2S27.5,9.4,29.3,9.4z
			 M36.4,12.1c-0.1-0.4-0.5-1.1-1.4-1.2l-3.5-0.4c-0.2,0-0.4,0.1-0.6,0.2l-1.7,2.6c0.2,1.2,0.3,2.4,0.3,3.6c0,2-0.4,4-0.7,5.9
			c-0.3,1.4-1.4,2.4-2.8,2.9l-0.4,11.8c0,0.3-0.1,0.6-0.2,0.9c0.4,0.6,1.1,0.9,1.7,0.9s1.4-0.3,1.7-0.6c0.2-0.2,0.5-0.2,0.7,0
			c0.3,0.4,1.1,0.6,1.7,0.6c0.9,0,2-0.8,2-1.8l0.4-12.7l0.5-0.1c0.9-0.1,2-0.7,2.1-1.6C37.3,17.9,37.1,17.7,36.4,12.1z M27,22.5
			c1-5.5,0.8-5.7,0-11.5c-0.1-0.4-0.6-1.1-1.4-1.2L22,9.3c-0.2,0-0.5,0.1-0.6,0.3l-1.8,2.7l-1.8-2.7c-0.1-0.2-0.4-0.3-0.6-0.3
			l-3.6,0.4c-0.9,0.1-1.3,0.8-1.4,1.2c-0.7,5.8-1,6,0.1,11.5c0.2,0.9,1.3,1.5,2.2,1.7l0.5,0.1l0.4,13.3c0,1.1,1.1,1.9,2.1,1.9
			c0.6,0,1.5-0.3,1.8-0.7c0.2-0.2,0.5-0.2,0.7,0c0.3,0.4,1.1,0.7,1.8,0.7c1,0,2-0.9,2.1-1.9l0.4-13.3l0.5-0.1
			C25.7,24.1,26.8,23.5,27,22.5z M19.7,8.1c1.9,0,3.4-2.5,3.3-4.4c0-2-1.6-3.5-3.5-3.5s-3.4,1.7-3.3,3.6C16.2,5.8,17.8,8.2,19.7,8.1
			z"/>
	</g>
</g>
</svg>
