<?xml version="1.0" encoding="utf-8"?>
<!-- Generator: Adobe Illustrator 18.0.0, SVG Export Plug-In . SVG Version: 6.00 Build 0)  -->
<!DOCTYPE svg PUBLIC "-//W3C//DTD SVG 1.1//EN" "http://www.w3.org/Graphics/SVG/1.1/DTD/svg11.dtd" [
	<!ENTITY ns_extend "http://ns.adobe.com/Extensibility/1.0/">
	<!ENTITY ns_ai "http://ns.adobe.com/AdobeIllustrator/10.0/">
	<!ENTITY ns_graphs "http://ns.adobe.com/Graphs/1.0/">
	<!ENTITY ns_vars "http://ns.adobe.com/Variables/1.0/">
	<!ENTITY ns_imrep "http://ns.adobe.com/ImageReplacement/1.0/">
	<!ENTITY ns_sfw "http://ns.adobe.com/SaveForWeb/1.0/">
	<!ENTITY ns_custom "http://ns.adobe.com/GenericCustomNamespace/1.0/">
	<!ENTITY ns_adobe_xpath "http://ns.adobe.com/XPath/1.0/">
]>
<svg version="1.1" id="Lag_1" xmlns:x="&ns_extend;" xmlns:i="&ns_ai;" xmlns:graph="&ns_graphs;"
	 xmlns="http://www.w3.org/2000/svg" xmlns:xlink="http://www.w3.org/1999/xlink" x="0px" y="0px" width="40px" height="40px"
	 viewBox="0 0 40 40" enable-background="new 0 0 40 40" xml:space="preserve">
<metadata>
	<sfw  xmlns="&ns_sfw;">
		<slices></slices>
		<sliceSourceBounds  height="38.2" width="36.9" y="621.8" x="620.5" bottomLeftOrigin="true"></sliceSourceBounds>
	</sfw>
</metadata>
<g id="Lag_1_1_">
	<g>
		<g>
			<path fill="#FFFFFF" d="M36.5,2.5h-3.3V1h-2.7v1.5h-3.2V1h-2.8v1.5h-3.2V1h-2.8v1.5h-3.2V1h-2.8v1.5h-3V1H6.7v1.5H3.5
				c-1.1,0-2,0.9-2,2v32.8c0,1.1,1,1.9,2,1.9h26.1c0.7,0,1.6-0.3,2.1-0.8l5.8-5.8c0.1-0.1,0.2-0.2,0.3-0.3c0.3-0.5,0.6-1.1,0.6-1.6
				V4.5C38.5,3.3,37.6,2.5,36.5,2.5z M30.5,4.8h2.7V8h-2.7V4.8z M24.6,4.8h2.8V8h-2.8V4.8z M12.6,4.8h2.8V8h-2.8V4.8z M6.7,4.7h2.8
				v3.2H6.7V4.7z M18.6,4.7h2.7v3.2h-2.7V4.7z M29.2,38.2v-8.5h8.6L29.2,38.2z M15.3,28.2h-3.2v-8.8l0-1.4l0.1-1.6
				c-0.5,0.5-0.9,0.9-1.1,1l-1.7,1.4l-1.5-1.9l4.9-3.9h2.6V28.2z M25.1,18.5c1.5,0,2.6,0.4,3.5,1.2c0.9,0.8,1.3,2,1.3,3.4
				c0,1.7-0.5,3-1.6,3.9s-2.5,1.4-4.5,1.4c-1.7,0-3-0.3-4.1-0.8v-2.8c0.5,0.3,1.2,0.5,1.9,0.7c0.7,0.2,1.4,0.3,2.1,0.3
				c2,0,2.9-0.8,2.9-2.4c0-1.5-1-2.3-3-2.3c-0.4,0-0.8,0-1.2,0.1c-0.4,0.1-0.8,0.2-1.1,0.2L20,20.7l0.6-7.7h8.2v2.7h-5.4l-0.3,3
				l0.4-0.1C23.9,18.5,24.4,18.5,25.1,18.5z"/>
		</g>
	</g>
</g>
<g id="tekst">
</g>
</svg>
