<?xml version="1.0" encoding="utf-8"?>
<!-- Generator: Adobe Illustrator 18.0.0, SVG Export Plug-In . SVG Version: 6.00 Build 0)  -->
<!DOCTYPE svg PUBLIC "-//W3C//DTD SVG 1.1//EN" "http://www.w3.org/Graphics/SVG/1.1/DTD/svg11.dtd" [
	<!ENTITY ns_extend "http://ns.adobe.com/Extensibility/1.0/">
	<!ENTITY ns_ai "http://ns.adobe.com/AdobeIllustrator/10.0/">
	<!ENTITY ns_graphs "http://ns.adobe.com/Graphs/1.0/">
	<!ENTITY ns_vars "http://ns.adobe.com/Variables/1.0/">
	<!ENTITY ns_imrep "http://ns.adobe.com/ImageReplacement/1.0/">
	<!ENTITY ns_sfw "http://ns.adobe.com/SaveForWeb/1.0/">
	<!ENTITY ns_custom "http://ns.adobe.com/GenericCustomNamespace/1.0/">
	<!ENTITY ns_adobe_xpath "http://ns.adobe.com/XPath/1.0/">
]>
<svg version="1.1" id="Lag_1" xmlns:x="&ns_extend;" xmlns:i="&ns_ai;" xmlns:graph="&ns_graphs;"
	 xmlns="http://www.w3.org/2000/svg" xmlns:xlink="http://www.w3.org/1999/xlink" x="0px" y="0px" width="40px" height="40px"
	 viewBox="0 0 40 40" enable-background="new 0 0 40 40" xml:space="preserve">
<metadata>
	<sfw  xmlns="&ns_sfw;">
		<slices></slices>
		<sliceSourceBounds  height="27.1" width="39.9" y="49.6" x="42.2" bottomLeftOrigin="true"></sliceSourceBounds>
		<optimizationSettings>
			<targetSettings  fileFormat="PNG24Format" targetSettingsID="0">
				<PNG24Format  transparency="true" interlaced="false" noMatteColor="false" filtered="false" matteColor="#FFFFFF">
					</PNG24Format>
			</targetSettings>
		</optimizationSettings>
	</sfw>
</metadata>
<g id="Lag_1_1_">
	<path fill="#464665" d="M20.1,6.3c-11,0-19.9,5.8-19.9,12.9c0,3.8,2.6,7.3,6.7,9.6l2,4.6l4.7-2c2.1,0.5,4.3,0.7,6.6,0.7
		c11,0,19.9-5.8,19.9-12.9S31.1,6.3,20.1,6.3z M20.3,26.4c-0.3,0.3-0.7,0.4-1.2,0.4s-0.9-0.1-1.2-0.4c-0.3-0.3-0.4-0.7-0.4-1.2
		c0-1.1,0.5-1.6,1.6-1.6c0.5,0,0.9,0.1,1.2,0.4c0.3,0.3,0.4,0.7,0.4,1.2C20.7,25.7,20.6,26.1,20.3,26.4z M24.1,15.9
		c-0.2,0.4-0.4,0.8-0.7,1.2c-0.3,0.4-0.9,0.9-1.6,1.5c-0.7,0.5-0.7,1-0.9,1.3c-0.2,0.3,0.1,0.8,0.1,1.4V22h-4v-0.9
		c0-0.8,0.6-1.4,0.9-2s1-1.1,1.7-1.6c0.8-0.7,1.5-1.2,1.8-1.6c0.2-0.4,0.4-0.8,0.4-1.3c0-0.6-0.2-1.1-0.6-1.4
		c-0.4-0.3-1-0.5-1.7-0.5s-1.3,0.1-1.9,0.3s-1.1,0.4-1.7,0.7L15,11.8c1.4-0.8,3-1.2,4.7-1.2c1.4,0,2.5,0.3,3.3,1s1.2,1.6,1.2,2.8
		C24.4,15,24.3,15.5,24.1,15.9z"/>
</g>
<g id="tekst">
</g>
</svg>
