<?xml version="1.0" encoding="utf-8"?>
<!-- Generator: Adobe Illustrator 18.0.0, SVG Export Plug-In . SVG Version: 6.00 Build 0)  -->
<!DOCTYPE svg PUBLIC "-//W3C//DTD SVG 1.1//EN" "http://www.w3.org/Graphics/SVG/1.1/DTD/svg11.dtd" [
	<!ENTITY ns_extend "http://ns.adobe.com/Extensibility/1.0/">
	<!ENTITY ns_ai "http://ns.adobe.com/AdobeIllustrator/10.0/">
	<!ENTITY ns_graphs "http://ns.adobe.com/Graphs/1.0/">
	<!ENTITY ns_vars "http://ns.adobe.com/Variables/1.0/">
	<!ENTITY ns_imrep "http://ns.adobe.com/ImageReplacement/1.0/">
	<!ENTITY ns_sfw "http://ns.adobe.com/SaveForWeb/1.0/">
	<!ENTITY ns_custom "http://ns.adobe.com/GenericCustomNamespace/1.0/">
	<!ENTITY ns_adobe_xpath "http://ns.adobe.com/XPath/1.0/">
]>
<svg version="1.1" id="Lag_1" xmlns:x="&ns_extend;" xmlns:i="&ns_ai;" xmlns:graph="&ns_graphs;"
	 xmlns="http://www.w3.org/2000/svg" xmlns:xlink="http://www.w3.org/1999/xlink" x="0px" y="0px" width="40px" height="40px"
	 viewBox="0 0 40 40" enable-background="new 0 0 40 40" xml:space="preserve">
<metadata>
	<sfw  xmlns="&ns_sfw;">
		<slices></slices>
		<sliceSourceBounds  height="40" width="40" y="43" x="42" bottomLeftOrigin="true"></sliceSourceBounds>
		<optimizationSettings>
			<targetSettings  fileFormat="PNG24Format" targetSettingsID="0">
				<PNG24Format  transparency="true" interlaced="false" noMatteColor="false" filtered="false" matteColor="#FFFFFF">
					</PNG24Format>
			</targetSettings>
		</optimizationSettings>
	</sfw>
</metadata>
<g id="Lag_1_1_">
	<path fill="#464665" d="M20,0C9,0,0,9,0,20s9,20,20,20s20-9,20-20S31,0,20,0z M21.3,7.5c1.8,0,3.2,1.5,3.2,3.3s-1.4,3.3-3.2,3.3
		c-1.8,0-3.2-1.5-3.2-3.3S19.5,7.5,21.3,7.5z M24.9,30.7c-0.3,0.3-0.7,0.5-1.1,0.7s-0.8,0.4-1.3,0.5c-0.5,0.1-1.7,0.2-2.2,0.2
		c-1.2,0-2.1-0.3-2.8-0.9c-0.6-0.6-1.3-1.4-1.3-2.4c0-0.4,0-0.9,0.1-1.5l1.3-7.4c0-0.1,0.1-0.3,0.1-0.4s0-0.3,0.1-0.4
		c0-0.1,0-0.2,0-0.3c0-0.1,0-0.2,0-0.2c0-0.3,0-0.5-0.1-0.7s-0.2-0.3-0.3-0.4c-0.1-0.1-0.3-0.2-0.5-0.2s-0.5,0-0.8,0
		c0,0-1.1,0.1-1.1-0.7c0-0.9,1.4-0.6,1.4-0.6c1.3,0,4.7,0,6.4,0c1.8,0,0.8,3,1.1,1.7c-0.6,3-1.5,7.7-1.5,7.7
		c-0.1,0.6-0.2,0.8-0.3,1.3c-0.1,0.5-0.1,1-0.1,1.4c0,0.5,0.1,0.8,0.3,1.1c0.2,0.2,0.5,0.4,0.8,0.4s0.6-0.1,0.9-0.2
		c0.5-0.2,1.5-1.1,1.8-0.5C26.3,29.6,25.3,30.3,24.9,30.7z"/>
</g>
<g id="tekst">
</g>
</svg>
