<?xml version="1.0" encoding="utf-8"?>
<!-- Generator: Adobe Illustrator 18.0.0, SVG Export Plug-In . SVG Version: 6.00 Build 0)  -->
<!DOCTYPE svg PUBLIC "-//W3C//DTD SVG 1.1//EN" "http://www.w3.org/Graphics/SVG/1.1/DTD/svg11.dtd" [
	<!ENTITY ns_extend "http://ns.adobe.com/Extensibility/1.0/">
	<!ENTITY ns_ai "http://ns.adobe.com/AdobeIllustrator/10.0/">
	<!ENTITY ns_graphs "http://ns.adobe.com/Graphs/1.0/">
	<!ENTITY ns_vars "http://ns.adobe.com/Variables/1.0/">
	<!ENTITY ns_imrep "http://ns.adobe.com/ImageReplacement/1.0/">
	<!ENTITY ns_sfw "http://ns.adobe.com/SaveForWeb/1.0/">
	<!ENTITY ns_custom "http://ns.adobe.com/GenericCustomNamespace/1.0/">
	<!ENTITY ns_adobe_xpath "http://ns.adobe.com/XPath/1.0/">
]>
<svg version="1.1" id="Lag_1" xmlns:x="&ns_extend;" xmlns:i="&ns_ai;" xmlns:graph="&ns_graphs;"
	 xmlns="http://www.w3.org/2000/svg" xmlns:xlink="http://www.w3.org/1999/xlink" x="0px" y="0px" width="40px" height="40px"
	 viewBox="0 0 40 40" enable-background="new 0 0 40 40" xml:space="preserve">
<metadata>
	<sfw  xmlns="&ns_sfw;">
		<slices></slices>
		<sliceSourceBounds  height="39.2" width="26.9" y="43.3" x="47.8" bottomLeftOrigin="true"></sliceSourceBounds>
		<optimizationSettings>
			<targetSettings  fileFormat="PNG24Format" targetSettingsID="0">
				<PNG24Format  transparency="true" interlaced="false" noMatteColor="false" filtered="false" matteColor="#FFFFFF">
					</PNG24Format>
			</targetSettings>
		</optimizationSettings>
	</sfw>
</metadata>
<g id="Lag_1_1_">
	<g>
		<path fill="#464665" d="M30.3,6.2c-2-2.8-5-4.9-8.7-5.5S14.3,1,11.5,2.9c-2.8,2-4.9,5-5.5,8.7c-0.4,2.5-0.2,5,0.7,7.3
			s2.4,4.3,4.3,5.7c1.1,0.8,1.9,1.8,2.4,2.8c0.4,0.9,0.6,1.9,0.4,2.9c-0.4,2.2,0.2,4.3,1.3,6c1.2,1.7,3,2.9,5.2,3.3
			c2.2,0.4,4.3-0.2,6-1.3c1.7-1.2,2.9-3,3.3-5.2c0.2-0.9-0.4-1.7-1.3-1.9c-0.9-0.2-1.7,0.4-1.9,1.3c-0.2,1.3-0.9,2.4-1.9,3.1
			c-1,0.7-2.2,1-3.5,0.8s-2.4-1-3.1-1.9c-0.7-1-1-2.2-0.8-3.5c0.3-1.7,0-3.4-0.7-4.9c-0.7-1.5-1.9-2.9-3.5-4
			c-1.5-1.1-2.6-2.6-3.2-4.3c-0.7-1.7-0.9-3.6-0.5-5.5c0.5-2.8,2.1-5.1,4.2-6.6S18.3,3.5,21,4c2.8,0.5,5.1,2.1,6.6,4.2
			s2.2,4.9,1.7,7.6c-0.2,0.9,0.4,1.7,1.3,1.9c0.9,0.2,1.7-0.4,1.9-1.3C33.2,12.6,32.3,9.1,30.3,6.2z"/>
		<path fill="#464665" d="M26.6,25.9c-0.1,0-0.3,0-0.4-0.1c-3.7-2.9-3-6.1-2.4-9c0.2-0.9,0.4-1.7,0.4-2.5c0.1-1.4-0.4-2.6-1.2-3.6
			c-0.9-1-2.3-1.5-3.7-1.5c-2.7,0-5,2.3-5,5.1c0,1.1,0.3,2.2,1,3.1c0.2,0.3,0.1,0.7-0.1,0.9c-0.3,0.2-0.7,0.1-0.9-0.1
			C13.4,17,13,15.7,13,14.4c0-3.5,2.8-6.4,6.2-6.4c1.8,0,3.5,0.7,4.6,1.9s1.7,2.8,1.6,4.5c0,0.9-0.2,1.8-0.4,2.7
			c-0.6,2.7-1.1,5.3,2,7.7c0.3,0.2,0.3,0.6,0.1,0.9C26.9,25.8,26.7,25.9,26.6,25.9z"/>
		<circle fill="#464665" cx="21.8" cy="21.9" r="2"/>
	</g>
	<ellipse fill="#464665" cx="20.4" cy="21.6" rx="3.7" ry="2.2"/>
	
		<ellipse transform="matrix(-0.5034 0.8641 -0.8641 -0.5034 54.9387 17.668)" fill="#464665" cx="22.4" cy="24.6" rx="2.9" ry="1.7"/>
	<path fill="#464665" d="M23.7,17c0-3.3-1.9-5.9-4.2-5.9s-4.2,2.6-4.2,5.9c0,0,0,0.4,0,0.7s-0.9-0.9-0.9-0.9l-0.7-3.7l1.3-3l2.6-1.3
		l2.1-0.1L22,9.5l1.9,1.3l0.5,1.1l0.2,2.5l-0.5,3.1L23.7,17z"/>
</g>
<g id="tekst">
</g>
</svg>
