<?xml version="1.0" encoding="utf-8"?>
<!-- Generator: Adobe Illustrator 18.0.0, SVG Export Plug-In . SVG Version: 6.00 Build 0)  -->
<!DOCTYPE svg PUBLIC "-//W3C//DTD SVG 1.1//EN" "http://www.w3.org/Graphics/SVG/1.1/DTD/svg11.dtd" [
	<!ENTITY ns_extend "http://ns.adobe.com/Extensibility/1.0/">
	<!ENTITY ns_ai "http://ns.adobe.com/AdobeIllustrator/10.0/">
	<!ENTITY ns_graphs "http://ns.adobe.com/Graphs/1.0/">
	<!ENTITY ns_vars "http://ns.adobe.com/Variables/1.0/">
	<!ENTITY ns_imrep "http://ns.adobe.com/ImageReplacement/1.0/">
	<!ENTITY ns_sfw "http://ns.adobe.com/SaveForWeb/1.0/">
	<!ENTITY ns_custom "http://ns.adobe.com/GenericCustomNamespace/1.0/">
	<!ENTITY ns_adobe_xpath "http://ns.adobe.com/XPath/1.0/">
]>
<svg version="1.1" id="Lag_1" xmlns:x="&ns_extend;" xmlns:i="&ns_ai;" xmlns:graph="&ns_graphs;"
	 xmlns="http://www.w3.org/2000/svg" xmlns:xlink="http://www.w3.org/1999/xlink" x="0px" y="0px" width="40px" height="40px"
	 viewBox="0 0 40 40" enable-background="new 0 0 40 40" xml:space="preserve">
<metadata>
	<sfw  xmlns="&ns_sfw;">
		<slices></slices>
		<sliceSourceBounds  height="39.7" width="15.1" y="43.1" x="54.1" bottomLeftOrigin="true"></sliceSourceBounds>
		<optimizationSettings>
			<targetSettings  fileFormat="PNG24Format" targetSettingsID="0">
				<PNG24Format  transparency="true" interlaced="false" noMatteColor="false" filtered="false" matteColor="#FFFFFF">
					</PNG24Format>
			</targetSettings>
		</optimizationSettings>
	</sfw>
</metadata>
<g id="Lag_1_1_">
	<g>
		<g>
			<g>
				<path fill="#464665" d="M20.4,39.8c-0.4,0-0.8-0.3-0.9-0.7c-3.4-17.8,0-23.9,0.1-24.1c0.3-0.4,0.8-0.5,1.2-0.3
					c0.4,0.3,0.5,0.8,0.3,1.2c-0.1,0.1-3.2,5.9,0.1,22.9c0.1,0.4-0.3,1-0.7,1.1C20.6,39.8,20.5,39.8,20.4,39.8z"/>
			</g>
			<g>
				<path fill="#464665" d="M26.6,22.6c0,0-9.6,1.1-7.3,7.3C25.4,32.2,26.6,22.6,26.6,22.6z"/>
				<path fill="#464665" d="M12.1,28.7c0,0,9.6,1.1,7.3,7.3C13.4,38.3,12.1,28.7,12.1,28.7z"/>
			</g>
		</g>
		<g>
			<path fill="#464665" d="M25.6,2.4c0,0-18.8,6.9-8.5,16.3c0.6,0.5,1.4,0.8,2.2,0.8c3.2,0,10.9-1.1,6.6-11
				C26,8.4,24.6,5.6,25.6,2.4z"/>
			<path fill="#464665" d="M21.6,3.3c0.7-0.3,1.3-0.7,1.8-0.9c0-0.7,0.1-1.4,0.3-2.2c0,0-1.8,0.7-4,1.9C20.3,2.5,21,2.9,21.6,3.3z"
				/>
			<path fill="#464665" d="M13.3,11.6c0.8-3.4,4.3-6.1,7.4-7.8c-2.8-1.8-5.6-3-5.6-3c0.9,3.4-0.6,6.1-0.6,6.1
				c-1.1,2.5-1.5,4.4-1.3,5.9C13.1,12.4,13.2,12,13.3,11.6z"/>
		</g>
	</g>
</g>
<g id="tekst">
</g>
</svg>
