<?xml version="1.0" encoding="utf-8"?>
<!-- Generator: Adobe Illustrator 18.0.0, SVG Export Plug-In . SVG Version: 6.00 Build 0)  -->
<!DOCTYPE svg PUBLIC "-//W3C//DTD SVG 1.1//EN" "http://www.w3.org/Graphics/SVG/1.1/DTD/svg11.dtd" [
	<!ENTITY ns_extend "http://ns.adobe.com/Extensibility/1.0/">
	<!ENTITY ns_ai "http://ns.adobe.com/AdobeIllustrator/10.0/">
	<!ENTITY ns_graphs "http://ns.adobe.com/Graphs/1.0/">
	<!ENTITY ns_vars "http://ns.adobe.com/Variables/1.0/">
	<!ENTITY ns_imrep "http://ns.adobe.com/ImageReplacement/1.0/">
	<!ENTITY ns_sfw "http://ns.adobe.com/SaveForWeb/1.0/">
	<!ENTITY ns_custom "http://ns.adobe.com/GenericCustomNamespace/1.0/">
	<!ENTITY ns_adobe_xpath "http://ns.adobe.com/XPath/1.0/">
]>
<svg version="1.1" id="Lag_1" xmlns:x="&ns_extend;" xmlns:i="&ns_ai;" xmlns:graph="&ns_graphs;"
	 xmlns="http://www.w3.org/2000/svg" xmlns:xlink="http://www.w3.org/1999/xlink" x="0px" y="0px" width="40px" height="40px"
	 viewBox="0 0 40 40" enable-background="new 0 0 40 40" xml:space="preserve">
<metadata>
	<sfw  xmlns="&ns_sfw;">
		<slices></slices>
		<sliceSourceBounds  height="32.8" width="39.7" y="47.2" x="42.4" bottomLeftOrigin="true"></sliceSourceBounds>
		<optimizationSettings>
			<targetSettings  fileFormat="PNG24Format" targetSettingsID="0">
				<PNG24Format  transparency="true" interlaced="false" noMatteColor="false" filtered="false" matteColor="#FFFFFF">
					</PNG24Format>
			</targetSettings>
		</optimizationSettings>
	</sfw>
</metadata>
<g id="Lag_1_1_">
	<g>
		<g>
			<path fill="#464665" d="M37.1,6.4C36.3,4.4,34.3,3,32,3c-2,0-3.7,1.1-4.7,2.6c-0.7-0.5-1.5-0.8-2.5-0.8c-1.9,0-3.5,1.3-4.1,3.1
				c-2.1-0.5-4.2,0.9-4.2,2.8s2,3.3,4.2,2.8c0.6,0.9,1.6,1.6,2.8,1.6c1,0,2-0.5,2.6-1.2c1,1.8,2.9,3.1,5.2,3.1s4.3-1.4,5.3-3.3
				c2-0.1,3.5-1.7,3.5-3.7C40.1,8.2,38.8,6.7,37.1,6.4z M18.9,19.4c0.2,0.2,0.5,0.3,0.8,0.1l0.4-0.3v0.5c0,0.3,0.2,0.6,0.6,0.6
				s0.6-0.2,0.6-0.6v-0.5l0.4,0.3c0.2,0.2,0.6,0.2,0.8-0.1c0.2-0.2,0.2-0.6-0.1-0.8L21.7,18l0.8-0.6c0.2-0.2,0.3-0.5,0.1-0.8
				s-0.5-0.3-0.8-0.1L21.2,17v-0.5c0-0.3-0.2-0.6-0.6-0.6c-0.3,0-0.6,0.2-0.6,0.6V17l-0.4-0.3c-0.2-0.2-0.6-0.2-0.8,0.1
				s-0.2,0.6,0.1,0.8l0.7,0.6L19,18.7C18.7,18.9,18.7,19.2,18.9,19.4z M37.3,17.9c-0.2-0.2-0.5-0.3-0.8-0.1l-0.4,0.3v-0.5
				c0-0.3-0.2-0.6-0.6-0.6S35,17.3,35,17.6v0.5l-0.4-0.3c-0.2-0.2-0.6-0.2-0.8,0.1c-0.2,0.2-0.2,0.6,0.1,0.8l0.7,0.6l-0.8,0.6
				c-0.2,0.2-0.3,0.5-0.1,0.8s0.5,0.3,0.8,0.1l0.4-0.3V21c0,0.3,0.2,0.6,0.6,0.6s0.6-0.2,0.6-0.6v-0.5l0.4,0.3
				c0.2,0.2,0.6,0.2,0.8-0.1c0.2-0.2,0.2-0.6-0.1-0.8l-0.7-0.6l0.8-0.6C37.5,18.4,37.5,18.1,37.3,17.9z M17,26.1
				c0.2,0.2,0.5,0.3,0.8,0.1l0.4-0.3v0.5c0,0.3,0.2,0.6,0.6,0.6c0.3,0,0.6-0.2,0.6-0.6v-0.5l0.4,0.3c0.2,0.2,0.6,0.2,0.8-0.1
				s0.2-0.6-0.1-0.8l-0.7-0.6l0.8-0.6c0.2-0.2,0.3-0.5,0.1-0.8c-0.2-0.2-0.5-0.3-0.8-0.1l-0.4,0.3V23c0-0.3-0.2-0.6-0.6-0.6
				c-0.3,0-0.6,0.2-0.6,0.6v0.5l-0.4-0.3c-0.2-0.2-0.6-0.2-0.8,0.1s-0.2,0.6,0.1,0.8l0.7,0.6l-0.8,0.6C16.9,25.5,16.8,25.8,17,26.1z
				 M25.1,22.8c0.2,0.2,0.5,0.3,0.8,0.1l0.4-0.3v0.5c0,0.3,0.2,0.6,0.6,0.6s0.6-0.2,0.6-0.6v-0.5l0.4,0.3c0.2,0.2,0.6,0.2,0.8-0.1
				c0.2-0.2,0.2-0.6-0.1-0.8l-0.7-0.6l0.8-0.6c0.2-0.2,0.3-0.5,0.1-0.8s-0.5-0.3-0.8-0.1l-0.4,0.3v-0.5c0-0.3-0.2-0.6-0.6-0.6
				c-0.3,0-0.6,0.2-0.6,0.6v0.5L26,19.9c-0.2-0.2-0.6-0.2-0.8,0.1s-0.2,0.6,0.1,0.8l0.7,0.6L25.2,22C25,22.2,24.9,22.5,25.1,22.8z
				 M33.8,23.7c-0.2-0.2-0.5-0.3-0.8-0.1l-0.4,0.3v-0.5c0-0.3-0.2-0.6-0.6-0.6s-0.6,0.2-0.6,0.6v0.5L31,23.6
				c-0.2-0.2-0.6-0.2-0.8,0.1c-0.2,0.2-0.2,0.6,0.1,0.8l0.7,0.6l-0.8,0.6c-0.2,0.2-0.3,0.5-0.1,0.8s0.5,0.3,0.8,0.1l0.4-0.3v0.5
				c0,0.3,0.2,0.6,0.6,0.6s0.6-0.2,0.6-0.6v-0.5l0.4,0.3c0.2,0.2,0.6,0.2,0.8-0.1s0.2-0.6-0.1-0.8l-0.7-0.6l0.8-0.6
				C33.9,24.3,34,23.9,33.8,23.7z M5.2,30.1h-4c-0.5,0-0.8,0.4-0.8,0.8v4c0,0.5,0.4,0.8,0.8,0.8h4C5.6,35.8,6,35.4,6,35v-4
				C6,30.5,5.6,30.1,5.2,30.1z M5.2,23.7h-4c-0.5,0-0.8,0.4-0.8,0.8v4c0,0.5,0.4,0.8,0.8,0.8h4C5.6,29.4,6,29,6,28.5v-4
				C6,24.1,5.6,23.7,5.2,23.7z M5.2,17.3h-4c-0.5,0-0.8,0.4-0.8,0.8v4c0,0.5,0.4,0.8,0.8,0.8h4c0.5,0,0.8-0.4,0.8-0.8v-4
				C6,17.7,5.6,17.3,5.2,17.3z M5.2,10.9h-4c-0.5,0-0.8,0.4-0.8,0.8v4c0,0.5,0.4,0.8,0.8,0.8h4c0.5,0,0.8-0.4,0.8-0.8v-4
				C6,11.2,5.6,10.9,5.2,10.9z M5.2,4.4h-4c-0.5,0-0.8,0.4-0.8,0.8v4c0,0.5,0.4,0.8,0.8,0.8h4C5.6,10.1,6,9.7,6,9.3v-4
				C6,4.8,5.6,4.4,5.2,4.4z M10.8,8.5c-0.3,0-0.6,0.3-0.6,0.6s0.3,0.6,0.6,0.6s0.6-0.3,0.6-0.6C11.4,8.8,11.1,8.5,10.8,8.5z M9,9.7
				c-0.3,0-0.6,0.3-0.6,0.6s0.3,0.6,0.6,0.6s0.6-0.3,0.6-0.6S9.3,9.7,9,9.7z M10.8,10.8c-0.3,0-0.6,0.3-0.6,0.6s0.3,0.6,0.6,0.6
				s0.6-0.3,0.6-0.6S11.1,10.8,10.8,10.8z M9,12c-0.3,0-0.6,0.3-0.6,0.6s0.3,0.6,0.6,0.6s0.6-0.3,0.6-0.6S9.3,12,9,12z M9,5.1
				c-0.3,0-0.6,0.3-0.6,0.6C8.4,6,8.7,6.3,9,6.3S9.6,6,9.6,5.7S9.3,5.1,9,5.1z M10.8,6.3c-0.3,0-0.6,0.3-0.6,0.6
				c0,0.3,0.3,0.6,0.6,0.6s0.6-0.3,0.6-0.6C11.4,6.6,11.1,6.3,10.8,6.3z M9,7.5c-0.3,0-0.6,0.3-0.6,0.6S8.7,8.7,9,8.7
				s0.6-0.3,0.6-0.6S9.3,7.5,9,7.5z M10.8,13.2c-0.3,0-0.6,0.3-0.6,0.6s0.3,0.6,0.6,0.6s0.6-0.3,0.6-0.6
				C11.4,13.5,11.1,13.2,10.8,13.2z M9,14.4c-0.3,0-0.6,0.3-0.6,0.6s0.3,0.6,0.6,0.6s0.6-0.3,0.6-0.6S9.3,14.4,9,14.4z M10.8,15.6
				c-0.3,0-0.6,0.3-0.6,0.6c0,0.3,0.3,0.6,0.6,0.6s0.6-0.3,0.6-0.6S11.1,15.6,10.8,15.6z M9,16.8c-0.3,0-0.6,0.3-0.6,0.6
				S8.7,18,9,18s0.6-0.3,0.6-0.6S9.3,16.8,9,16.8z M10.8,18c-0.3,0-0.6,0.3-0.6,0.6c0,0.3,0.3,0.6,0.6,0.6s0.6-0.3,0.6-0.6
				C11.4,18.2,11.1,18,10.8,18z M9,19.2c-0.3,0-0.6,0.3-0.6,0.6c0,0.3,0.3,0.6,0.6,0.6s0.6-0.3,0.6-0.6S9.3,19.2,9,19.2z M10.8,20.3
				c-0.3,0-0.6,0.3-0.6,0.6s0.3,0.6,0.6,0.6s0.6-0.3,0.6-0.6S11.1,20.3,10.8,20.3z M9,21.6c-0.3,0-0.6,0.3-0.6,0.6s0.3,0.6,0.6,0.6
				s0.6-0.3,0.6-0.6S9.3,21.6,9,21.6z M10.8,22.7c-0.3,0-0.6,0.3-0.6,0.6c0,0.3,0.3,0.6,0.6,0.6s0.6-0.3,0.6-0.6
				C11.4,23,11.1,22.7,10.8,22.7z M9,24c-0.3,0-0.6,0.3-0.6,0.6c0,0.3,0.3,0.6,0.6,0.6s0.6-0.3,0.6-0.6S9.3,24,9,24z M10.8,25.1
				c-0.3,0-0.6,0.3-0.6,0.6s0.3,0.6,0.6,0.6s0.6-0.3,0.6-0.6S11.1,25.1,10.8,25.1z M9,26.4c-0.3,0-0.6,0.3-0.6,0.6
				c0,0.3,0.3,0.6,0.6,0.6s0.6-0.3,0.6-0.6C9.6,26.7,9.3,26.4,9,26.4z M10.8,27.4c-0.3,0-0.6,0.3-0.6,0.6c0,0.3,0.3,0.6,0.6,0.6
				s0.6-0.3,0.6-0.6C11.4,27.7,11.1,27.4,10.8,27.4z M9,28.8c-0.3,0-0.6,0.3-0.6,0.6S8.6,30,9,30c0.3,0,0.6-0.3,0.6-0.6
				S9.3,28.8,9,28.8z M10.8,29.8c-0.3,0-0.6,0.3-0.6,0.6s0.3,0.6,0.6,0.6s0.6-0.3,0.6-0.6S11.1,29.8,10.8,29.8z M9,31.2
				c-0.3,0-0.6,0.3-0.6,0.6s0.3,0.6,0.6,0.6s0.6-0.3,0.6-0.6S9.3,31.2,9,31.2z M10.8,32.2c-0.3,0-0.6,0.3-0.6,0.6s0.3,0.6,0.6,0.6
				s0.6-0.3,0.6-0.6C11.4,32.4,11.1,32.2,10.8,32.2z M9,33.6c-0.3,0-0.6,0.3-0.6,0.6s0.3,0.6,0.6,0.6s0.6-0.3,0.6-0.6
				S9.3,33.6,9,33.6z M10.8,34.5c-0.3,0-0.6,0.3-0.6,0.6s0.3,0.6,0.6,0.6s0.6-0.3,0.6-0.6S11.1,34.5,10.8,34.5z M7.3,4.5v31.3h0.6
				V4.5l0,0H7.3L7.3,4.5z M11.8,4.5v31.3h0.6V4.5l0,0H11.8L11.8,4.5z M13.4,27.9v7.8h19C32.4,31.4,23.9,27.9,13.4,27.9z M10.2,4.4
				c0,0.1,0,0.1,0,0.2c0,0.3,0.3,0.6,0.6,0.6s0.6-0.3,0.6-0.6c0-0.1,0-0.1,0-0.2H10.2z"/>
		</g>
	</g>
</g>
<g id="tekst">
</g>
</svg>
