<?xml version="1.0" encoding="utf-8"?>
<!-- Generator: Adobe Illustrator 18.0.0, SVG Export Plug-In . SVG Version: 6.00 Build 0)  -->
<!DOCTYPE svg PUBLIC "-//W3C//DTD SVG 1.1//EN" "http://www.w3.org/Graphics/SVG/1.1/DTD/svg11.dtd" [
	<!ENTITY ns_extend "http://ns.adobe.com/Extensibility/1.0/">
	<!ENTITY ns_ai "http://ns.adobe.com/AdobeIllustrator/10.0/">
	<!ENTITY ns_graphs "http://ns.adobe.com/Graphs/1.0/">
	<!ENTITY ns_vars "http://ns.adobe.com/Variables/1.0/">
	<!ENTITY ns_imrep "http://ns.adobe.com/ImageReplacement/1.0/">
	<!ENTITY ns_sfw "http://ns.adobe.com/SaveForWeb/1.0/">
	<!ENTITY ns_custom "http://ns.adobe.com/GenericCustomNamespace/1.0/">
	<!ENTITY ns_adobe_xpath "http://ns.adobe.com/XPath/1.0/">
]>
<svg version="1.1" id="Lag_1" xmlns:x="&ns_extend;" xmlns:i="&ns_ai;" xmlns:graph="&ns_graphs;"
	 xmlns="http://www.w3.org/2000/svg" xmlns:xlink="http://www.w3.org/1999/xlink" x="0px" y="0px" width="40px" height="40px"
	 viewBox="0 0 40 40" enable-background="new 0 0 40 40" xml:space="preserve">
<metadata>
	<sfw  xmlns="&ns_sfw;">
		<slices></slices>
		<sliceSourceBounds  height="36" width="40.1" y="44.4" x="42" bottomLeftOrigin="true"></sliceSourceBounds>
		<optimizationSettings>
			<targetSettings  fileFormat="PNG24Format" targetSettingsID="0">
				<PNG24Format  transparency="true" interlaced="false" noMatteColor="false" filtered="false" matteColor="#FFFFFF">
					</PNG24Format>
			</targetSettings>
		</optimizationSettings>
	</sfw>
</metadata>
<g>
	<path fill="#464665" d="M13.8,17.9h-1.6l-0.9-3.5c0-0.1-0.1-0.4-0.2-0.8C11,13.3,11,13,11,12.9c0,0.2-0.1,0.4-0.1,0.8
		c-0.1,0.4-0.1,0.6-0.2,0.8L9.8,18H8.2l-1.7-6.7h1.4l0.9,3.6c0,0.7,0.2,1.3,0.2,1.8c0-0.2,0.1-0.4,0.1-0.8c0.1-0.4,0.1-0.6,0.2-0.8
		l1-3.7h1.3l1,3.7c0,0.2,0.1,0.4,0.2,0.8c0.1,0.3,0.1,0.6,0.1,0.9c0-0.2,0.1-0.5,0.1-0.9c0.1-0.4,0.1-0.6,0.2-0.9l0.8-3.6h1.4
		L13.8,17.9z"/>
	<path fill="#464665" d="M22.8,17.9h-1.6l-0.9-3.5c0-0.1-0.1-0.4-0.2-0.8c0-0.3-0.1-0.6-0.1-0.7c0,0.2-0.1,0.4-0.1,0.8
		c-0.1,0.4-0.1,0.6-0.2,0.8L18.8,18h-1.6l-1.7-6.7h1.4l0.9,3.6c0.1,0.7,0.3,1.3,0.3,1.7c0-0.2,0.1-0.4,0.1-0.8
		c0.1-0.4,0.1-0.6,0.2-0.8l1-3.7h1.3l1,3.7c0,0.2,0.1,0.4,0.2,0.8c0.1,0.3,0.1,0.6,0.1,0.9c0-0.2,0.1-0.5,0.1-0.9
		c0.1-0.4,0.1-0.6,0.2-0.9l0.8-3.6h1.4L22.8,17.9z"/>
	<path fill="#464665" d="M31.8,17.9h-1.6l-0.9-3.5c0-0.1-0.1-0.4-0.2-0.8c0-0.3-0.1-0.6-0.1-0.7c0,0.2-0.1,0.4-0.1,0.8
		c-0.1,0.4-0.1,0.6-0.2,0.8L27.8,18h-1.6l-1.7-6.7h1.4l0.9,3.6c0.1,0.7,0.3,1.3,0.3,1.7c0-0.2,0.1-0.4,0.1-0.8
		c0.1-0.4,0.1-0.6,0.2-0.8l1-3.7h1.3l1,3.7c0,0.2,0.1,0.4,0.2,0.8c0.1,0.3,0.1,0.6,0.1,0.9c0-0.2,0.1-0.5,0.1-0.9
		c0.1-0.4,0.1-0.6,0.2-0.9l0.8-3.6h1.4L31.8,17.9z"/>
</g>
<path fill="#464665" d="M25.4,32h11.3c0.9,0,1.7-0.4,2.4-1c0.6-0.6,1-1.4,1-2.4V6c0-0.9-0.3-1.7-1-2.4c-0.6-0.6-1.4-1-2.4-1H3.3
	C2.4,2.7,1.6,3,1,3.6C0.3,4.3,0,5.1,0,6v22.7c0,0.9,0.3,1.7,1,2.4c0.7,0.7,1.5,1,2.4,1h11.4L25.4,32z M20,29.7
	c-1.2,0-2.1-0.9-2.1-2.1s0.9-2.1,2.1-2.1s2.1,0.9,2.1,2.1C22.1,28.8,21.2,29.7,20,29.7z M37.2,23.8C37,23.9,36.9,24,36.7,24H3.3
	c-0.1,0-0.3-0.1-0.4-0.2c-0.1-0.1-0.2-0.3-0.2-0.4V6c0-0.1,0.1-0.3,0.2-0.4C3,5.4,3.2,5.3,3.3,5.3h33.4c0.2,0,0.4,0.1,0.5,0.2
	s0.2,0.3,0.2,0.4v17.4C37.4,23.5,37.3,23.7,37.2,23.8z"/>
<path fill="#464665" d="M14.7,33.3c0,0.5-0.1,1.1-0.3,1.6s-0.4,1-0.7,1.5c-0.2,0.4-0.3,0.7-0.3,0.9c0,0.3,0.2,0.7,0.4,0.9
	c0.2,0.3,0.6,0.4,0.9,0.4h10.7c0.4,0,0.7-0.1,0.9-0.4c0.2-0.3,0.4-0.6,0.4-0.9c0-0.2-0.1-0.5-0.3-0.9c-0.2-0.4-0.4-0.9-0.6-1.5
	s-0.3-1.1-0.3-1.6H14.7z"/>
</svg>
