<?xml version="1.0" encoding="utf-8"?>
<!-- Generator: Adobe Illustrator 18.0.0, SVG Export Plug-In . SVG Version: 6.00 Build 0)  -->
<!DOCTYPE svg PUBLIC "-//W3C//DTD SVG 1.1//EN" "http://www.w3.org/Graphics/SVG/1.1/DTD/svg11.dtd" [
	<!ENTITY ns_extend "http://ns.adobe.com/Extensibility/1.0/">
	<!ENTITY ns_ai "http://ns.adobe.com/AdobeIllustrator/10.0/">
	<!ENTITY ns_graphs "http://ns.adobe.com/Graphs/1.0/">
	<!ENTITY ns_vars "http://ns.adobe.com/Variables/1.0/">
	<!ENTITY ns_imrep "http://ns.adobe.com/ImageReplacement/1.0/">
	<!ENTITY ns_sfw "http://ns.adobe.com/SaveForWeb/1.0/">
	<!ENTITY ns_custom "http://ns.adobe.com/GenericCustomNamespace/1.0/">
	<!ENTITY ns_adobe_xpath "http://ns.adobe.com/XPath/1.0/">
]>
<svg version="1.1" id="Lag_1" xmlns:x="&ns_extend;" xmlns:i="&ns_ai;" xmlns:graph="&ns_graphs;"
	 xmlns="http://www.w3.org/2000/svg" xmlns:xlink="http://www.w3.org/1999/xlink" x="0px" y="0px" width="40px" height="40px"
	 viewBox="0 0 40 40" enable-background="new 0 0 40 40" xml:space="preserve">
<metadata>
	<sfw  xmlns="&ns_sfw;">
		<slices></slices>
		<sliceSourceBounds  height="39.3" width="39.2" y="43.4" x="42.3" bottomLeftOrigin="true"></sliceSourceBounds>
		<optimizationSettings>
			<targetSettings  fileFormat="PNG24Format" targetSettingsID="0">
				<PNG24Format  transparency="true" interlaced="false" noMatteColor="false" filtered="false" matteColor="#FFFFFF">
					</PNG24Format>
			</targetSettings>
		</optimizationSettings>
	</sfw>
</metadata>
<g id="Lag_1_1_">
	<g>
		<g>
			<path fill="#464665" d="M16.4,26l9.6-5.8l-9.6-5.8V26z M35.8,0.3H4.2C2,0.3,0.3,2,0.3,4.2v31.6c0,2.1,1.7,3.8,3.8,3.8h31.6
				c2.1,0,3.8-1.7,3.8-3.8V4.2C39.7,2,38,0.3,35.8,0.3z M35.8,21.7c0,2.6-0.2,5.3-0.2,5.3s-0.2,2.4-1.3,3.2
				c-1.3,1.3-2.6,1.3-3.2,1.5c-4.3,0.4-10.9,0.4-10.9,0.4s-8.1,0-10.5-0.4c-0.6-0.2-2.1,0-3.4-1.5c-0.8-1-1.3-3.1-1.3-3.1
				s-0.2-2.6-0.2-5.3v-2.6c0-2.6,0.2-5.3,0.2-5.3s0.2-2.4,1.3-3.2c1.3-1.3,2.6-1.3,3-1.5c4.3-0.4,10.9-0.4,10.9-0.4s6.4,0,10.9,0.4
				c0.6,0,1.9,0,3.2,1.5c0.9,1.1,1.3,3.2,1.3,3.2s0.2,2.6,0.2,5.3V21.7z"/>
		</g>
	</g>
</g>
<g id="tekst">
</g>
</svg>
