<?xml version="1.0" encoding="utf-8"?>
<!-- Generator: Adobe Illustrator 18.0.0, SVG Export Plug-In . SVG Version: 6.00 Build 0)  -->
<!DOCTYPE svg PUBLIC "-//W3C//DTD SVG 1.1//EN" "http://www.w3.org/Graphics/SVG/1.1/DTD/svg11.dtd" [
	<!ENTITY ns_extend "http://ns.adobe.com/Extensibility/1.0/">
	<!ENTITY ns_ai "http://ns.adobe.com/AdobeIllustrator/10.0/">
	<!ENTITY ns_graphs "http://ns.adobe.com/Graphs/1.0/">
	<!ENTITY ns_vars "http://ns.adobe.com/Variables/1.0/">
	<!ENTITY ns_imrep "http://ns.adobe.com/ImageReplacement/1.0/">
	<!ENTITY ns_sfw "http://ns.adobe.com/SaveForWeb/1.0/">
	<!ENTITY ns_custom "http://ns.adobe.com/GenericCustomNamespace/1.0/">
	<!ENTITY ns_adobe_xpath "http://ns.adobe.com/XPath/1.0/">
]>
<svg version="1.1" id="Lag_1" xmlns:x="&ns_extend;" xmlns:i="&ns_ai;" xmlns:graph="&ns_graphs;"
	 xmlns="http://www.w3.org/2000/svg" xmlns:xlink="http://www.w3.org/1999/xlink" x="0px" y="0px" width="40px" height="40px"
	 viewBox="0 0 40 40" enable-background="new 0 0 40 40" xml:space="preserve">
<metadata>
	<sfw  xmlns="&ns_sfw;">
		<slices></slices>
		<sliceSourceBounds  height="38.8" width="33.4" y="43.5" x="45" bottomLeftOrigin="true"></sliceSourceBounds>
		<optimizationSettings>
			<targetSettings  fileFormat="PNG24Format" targetSettingsID="0">
				<PNG24Format  transparency="true" interlaced="false" noMatteColor="false" filtered="false" matteColor="#FFFFFF">
					</PNG24Format>
			</targetSettings>
		</optimizationSettings>
	</sfw>
</metadata>
<g id="Lag_1_1_">
	<path fill="#464665" d="M3,37.1h0.7V17.4l9.4-3.3V8.7l16.9-8V1l4.6,2.7V37h1.8v2.3h-8.7V4.4l-12.2,5.7v3.1l5.1-1.8v0.1l4.5,2.7
		v22.5h1.8V39h-8.7V14.8L6.1,19.1v20.4H3V37.1L3,37.1z M7.4,39.1c1.3,0,7.3,0,9,0c0-1.4,0-2.7,0-4.1c-1.7,0.1-7.7,0.5-9,0.6
		C7.4,36.8,7.4,38,7.4,39.1L7.4,39.1z M7.4,23.9c1.3-0.4,7.3-2.1,9-2.5c0-1.4,0-2.7,0-4.1c-1.7,0.6-7.7,2.7-9,3.1
		C7.4,21.5,7.4,22.7,7.4,23.9L7.4,23.9z M7.4,28.9c1.3-0.2,7.3-1.4,9-1.7c0-1.4,0-2.7,0-4.1c-1.7,0.4-7.7,2-9,2.3
		C7.4,26.6,7.4,27.8,7.4,28.9L7.4,28.9z M7.4,34c1.3-0.1,7.3-0.7,9-0.9c0-1.4,0-2.7,0-4.1c-1.7,0.3-7.7,1.2-9,1.4
		C7.4,31.7,7.4,32.8,7.4,34z"/>
</g>
<g id="tekst">
</g>
</svg>
