<?xml version="1.0" encoding="utf-8"?>
<!-- Generator: Adobe Illustrator 18.0.0, SVG Export Plug-In . SVG Version: 6.00 Build 0)  -->
<!DOCTYPE svg PUBLIC "-//W3C//DTD SVG 1.1//EN" "http://www.w3.org/Graphics/SVG/1.1/DTD/svg11.dtd" [
	<!ENTITY ns_extend "http://ns.adobe.com/Extensibility/1.0/">
	<!ENTITY ns_ai "http://ns.adobe.com/AdobeIllustrator/10.0/">
	<!ENTITY ns_graphs "http://ns.adobe.com/Graphs/1.0/">
	<!ENTITY ns_vars "http://ns.adobe.com/Variables/1.0/">
	<!ENTITY ns_imrep "http://ns.adobe.com/ImageReplacement/1.0/">
	<!ENTITY ns_sfw "http://ns.adobe.com/SaveForWeb/1.0/">
	<!ENTITY ns_custom "http://ns.adobe.com/GenericCustomNamespace/1.0/">
	<!ENTITY ns_adobe_xpath "http://ns.adobe.com/XPath/1.0/">
]>
<svg version="1.1" id="Lag_1" xmlns:x="&ns_extend;" xmlns:i="&ns_ai;" xmlns:graph="&ns_graphs;"
	 xmlns="http://www.w3.org/2000/svg" xmlns:xlink="http://www.w3.org/1999/xlink" x="0px" y="0px" width="40px" height="40px"
	 viewBox="0 0 40 40" enable-background="new 0 0 40 40" xml:space="preserve">
<metadata>
	<sfw  xmlns="&ns_sfw;">
		<slices></slices>
		<sliceSourceBounds  height="38.9" width="38.9" y="43.5" x="42.6" bottomLeftOrigin="true"></sliceSourceBounds>
		<optimizationSettings>
			<targetSettings  fileFormat="PNG24Format" targetSettingsID="0">
				<PNG24Format  transparency="true" interlaced="false" noMatteColor="false" filtered="false" matteColor="#FFFFFF">
					</PNG24Format>
			</targetSettings>
		</optimizationSettings>
	</sfw>
</metadata>
<g>
	<path fill="#464665" d="M12.6,12.7C11.1,13,9.7,12.3,9,11S8.5,8.2,9.5,7.1c1-1,2.6-1.3,3.9-0.6s2,2.2,1.7,3.6
		C14.9,11.4,13.9,12.5,12.6,12.7z M37.8,0.6H2.2c-0.9,0-1.6,0.7-1.6,1.6v20.2c0,0.9,0.7,1.6,1.6,1.6h4v-7.3c0-1.3,1.1-2.4,2.4-2.4
		h0.5c0,0,1.4,1,2.9,1s2.6-1,2.6-1H16c4.5,0,6.2-1.5,7.4-3.9c0.4-0.8,1.2-1.1,2-0.9c0.4,0.2,0.8,0.5,0.9,0.9s0.1,0.9-0.1,1.3
		c-1.8,3.5-4.5,5.3-8.7,5.7V24h20.2c0.9,0,1.6-0.7,1.6-1.6V2.2C39.4,1.3,38.7,0.6,37.8,0.6z"/>
</g>
<g>
	<path fill="#464665" d="M39.4,38.7c0.1-2.2-1.3-4.2-3.4-4.9c1.1-1.1,1.4-2.7,0.9-4.1c-0.6-1.4-2-2.4-3.5-2.4s-2.9,0.9-3.5,2.4
		c-0.6,1.4-0.2,3.1,0.9,4.1c-2.1,0.7-3.5,2.7-3.4,4.9v0.8h12.1L39.4,38.7L39.4,38.7z"/>
</g>
<g>
	<path fill="#464665" d="M26.5,38.7c0.1-2.2-1.3-4.2-3.4-4.9c1.1-1.1,1.4-2.7,0.9-4.1c-0.6-1.4-2-2.4-3.5-2.4s-2.9,0.9-3.5,2.4
		c-0.6,1.4-0.2,3.1,0.9,4.1c-2.1,0.7-3.5,2.7-3.4,4.9v0.8h12.1v-0.8H26.5z"/>
</g>
<g>
	<path fill="#464665" d="M12.7,38.7c0.1-2.2-1.3-4.2-3.4-4.9c1.1-1.1,1.4-2.7,0.9-4.1c-0.6-1.4-2-2.4-3.5-2.4s-2.9,0.9-3.5,2.4
		c-0.6,1.4-0.2,3.1,0.9,4.1c-2.1,0.7-3.5,2.7-3.4,4.9v0.8h12.1L12.7,38.7L12.7,38.7z"/>
</g>
</svg>
