<?xml version="1.0" encoding="utf-8"?>
<!-- Generator: Adobe Illustrator 18.0.0, SVG Export Plug-In . SVG Version: 6.00 Build 0)  -->
<!DOCTYPE svg PUBLIC "-//W3C//DTD SVG 1.1//EN" "http://www.w3.org/Graphics/SVG/1.1/DTD/svg11.dtd" [
	<!ENTITY ns_extend "http://ns.adobe.com/Extensibility/1.0/">
	<!ENTITY ns_ai "http://ns.adobe.com/AdobeIllustrator/10.0/">
	<!ENTITY ns_graphs "http://ns.adobe.com/Graphs/1.0/">
	<!ENTITY ns_vars "http://ns.adobe.com/Variables/1.0/">
	<!ENTITY ns_imrep "http://ns.adobe.com/ImageReplacement/1.0/">
	<!ENTITY ns_sfw "http://ns.adobe.com/SaveForWeb/1.0/">
	<!ENTITY ns_custom "http://ns.adobe.com/GenericCustomNamespace/1.0/">
	<!ENTITY ns_adobe_xpath "http://ns.adobe.com/XPath/1.0/">
]>
<svg version="1.1" id="Lag_1" xmlns:x="&ns_extend;" xmlns:i="&ns_ai;" xmlns:graph="&ns_graphs;"
	 xmlns="http://www.w3.org/2000/svg" xmlns:xlink="http://www.w3.org/1999/xlink" x="0px" y="0px" width="40px" height="40px"
	 viewBox="0 0 40 40" enable-background="new 0 0 40 40" xml:space="preserve">
<metadata>
	<sfw  xmlns="&ns_sfw;">
		<slices></slices>
		<sliceSourceBounds  height="39.8" width="33.6" y="43.2" x="45.2" bottomLeftOrigin="true"></sliceSourceBounds>
		<optimizationSettings>
			<targetSettings  fileFormat="PNG24Format" targetSettingsID="0">
				<PNG24Format  transparency="true" interlaced="false" noMatteColor="false" filtered="false" matteColor="#FFFFFF">
					</PNG24Format>
			</targetSettings>
		</optimizationSettings>
	</sfw>
</metadata>
<g id="Lag_1_1_">
	<g>
		<g>
			<rect x="7.7" y="0" fill="#464665" width="6.2" height="2.9"/>
			<path fill="#464665" d="M13.9,12.3V4.7H7.7v7.6c-2.1,1.4-4.5,3.1-4.5,3.8v21.2c0,1.4,1.1,2.5,2.5,2.5H16c1.4,0,2.5-1.1,2.5-2.5
				V16.2C18.4,15.4,16,13.7,13.9,12.3z M10.8,33.2c-2.2,0-4-3-4-6.6c0-3.7,1.8-6.6,4-6.6s4,3,4,6.6S13,33.2,10.8,33.2z"/>
			<rect x="27.5" y="5.4" fill="#464665" width="5.3" height="2.8"/>
			<rect x="30.2" y="21.8" fill="#464665" width="6.6" height="12.1"/>
			<path fill="#464665" d="M32.9,16V9.9h-5.3V16c-1.8,1.2-3.9,2.7-3.9,3.3v18.4c0,1.2,1,2.1,2.1,2.1h8.9c1.2,0,2.1-1,2.1-2.1v-2.1
				h-7.5c-0.5,0-0.9-0.4-0.9-0.9V20.9c0-0.5,0.4-0.9,0.9-0.9h7.5v-0.7C36.8,18.7,34.7,17.2,32.9,16z"/>
		</g>
	</g>
</g>
<g id="tekst">
</g>
</svg>
