<?xml version="1.0" encoding="utf-8"?>
<!-- Generator: Adobe Illustrator 18.0.0, SVG Export Plug-In . SVG Version: 6.00 Build 0)  -->
<!DOCTYPE svg PUBLIC "-//W3C//DTD SVG 1.1//EN" "http://www.w3.org/Graphics/SVG/1.1/DTD/svg11.dtd" [
	<!ENTITY ns_extend "http://ns.adobe.com/Extensibility/1.0/">
	<!ENTITY ns_ai "http://ns.adobe.com/AdobeIllustrator/10.0/">
	<!ENTITY ns_graphs "http://ns.adobe.com/Graphs/1.0/">
	<!ENTITY ns_vars "http://ns.adobe.com/Variables/1.0/">
	<!ENTITY ns_imrep "http://ns.adobe.com/ImageReplacement/1.0/">
	<!ENTITY ns_sfw "http://ns.adobe.com/SaveForWeb/1.0/">
	<!ENTITY ns_custom "http://ns.adobe.com/GenericCustomNamespace/1.0/">
	<!ENTITY ns_adobe_xpath "http://ns.adobe.com/XPath/1.0/">
]>
<svg version="1.1" id="Lag_1" xmlns:x="&ns_extend;" xmlns:i="&ns_ai;" xmlns:graph="&ns_graphs;"
	 xmlns="http://www.w3.org/2000/svg" xmlns:xlink="http://www.w3.org/1999/xlink" x="0px" y="0px" width="125px" height="125px"
	 viewBox="0 0 125 125" enable-background="new 0 0 125 125" xml:space="preserve">
<metadata>
	<sfw  xmlns="&ns_sfw;">
		<slices></slices>
		<sliceSourceBounds  height="125" width="125" y="0" x="0" bottomLeftOrigin="true"></sliceSourceBounds>
		<optimizationSettings>
			<targetSettings  fileFormat="PNG24Format" targetSettingsID="0">
				<PNG24Format  transparency="true" interlaced="false" noMatteColor="false" filtered="false" matteColor="#FFFFFF">
					</PNG24Format>
			</targetSettings>
		</optimizationSettings>
	</sfw>
</metadata>
<path fill="#DF0515" d="M62.5,0C27.8,0,0,27.8,0,62.5S27.8,125,62.5,125S125,97.2,125,62.5S97.2,0,62.5,0z M66.8,86.4
	c-0.9,0.9-2.6,1.7-4.3,1.7s-3.5-0.4-4.3-1.3c-0.9-1.7-1.7-3-1.7-4.8s0.4-3.5,1.7-4.3c1.3-0.9,2.6-1.3,4.3-1.3s3.5,0.4,4.3,1.3
	c0.9,0.9,1.7,2.6,1.7,4.3S68.1,85.1,66.8,86.4z M66.8,70.3h-8.2l-1.7-33h11.7L66.8,70.3z"/>
</svg>
