<?xml version="1.0" encoding="utf-8"?>
<!-- Generator: Adobe Illustrator 18.0.0, SVG Export Plug-In . SVG Version: 6.00 Build 0)  -->
<!DOCTYPE svg PUBLIC "-//W3C//DTD SVG 1.1//EN" "http://www.w3.org/Graphics/SVG/1.1/DTD/svg11.dtd" [
	<!ENTITY ns_extend "http://ns.adobe.com/Extensibility/1.0/">
	<!ENTITY ns_ai "http://ns.adobe.com/AdobeIllustrator/10.0/">
	<!ENTITY ns_graphs "http://ns.adobe.com/Graphs/1.0/">
	<!ENTITY ns_vars "http://ns.adobe.com/Variables/1.0/">
	<!ENTITY ns_imrep "http://ns.adobe.com/ImageReplacement/1.0/">
	<!ENTITY ns_sfw "http://ns.adobe.com/SaveForWeb/1.0/">
	<!ENTITY ns_custom "http://ns.adobe.com/GenericCustomNamespace/1.0/">
	<!ENTITY ns_adobe_xpath "http://ns.adobe.com/XPath/1.0/">
]>
<svg version="1.1" id="Lag_1" xmlns:x="&ns_extend;" xmlns:i="&ns_ai;" xmlns:graph="&ns_graphs;"
	 xmlns="http://www.w3.org/2000/svg" xmlns:xlink="http://www.w3.org/1999/xlink" x="0px" y="0px" width="40px" height="40px"
	 viewBox="0 0 40 40" enable-background="new 0 0 40 40" xml:space="preserve">
<metadata>
	<sfw  xmlns="&ns_sfw;">
		<slices></slices>
		<sliceSourceBounds  height="36.3" width="37.1" x="0.9" y="-37.7" bottomLeftOrigin="true"></sliceSourceBounds>
		<optimizationSettings>
			<targetSettings  targetSettingsID="0" fileFormat="PNG24Format">
				<PNG24Format  transparency="true" filtered="false" matteColor="#FFFFFF" noMatteColor="true" interlaced="false">
					</PNG24Format>
			</targetSettings>
		</optimizationSettings>
	</sfw>
</metadata>
<g>
	<g>
		<path fill="#FFFFFF" d="M37.5,18.7l-9.2-5.3c-0.7-0.4-1.7,0-1.7,0.9l0,3.3h-6.7C19,9.3,11.2,1.4,1.8,1.4c-0.5,0-0.9,0.5-0.9,1
			s0.4,0.9,0.9,0.9c6.4,0,11.9,3.7,14.6,9C13.2,9.2,7.8,7.2,1.8,7.2c-0.5,0-0.9,0.4-0.9,0.9S1.3,9,1.8,9C8.9,9,15,12,17.2,16
			c-3.4-2-9.5-3-15.4-3c-0.5,0-0.9,0.4-0.9,0.9s0.4,0.9,0.9,0.9c8.7,0,14.5,1.6,16,4h-16c-0.5,0-0.9,0.1-0.9,0.6S1.3,20,1.8,20h16.1
			c-1.4,2.4-7.3,4.3-16.1,4.3c-0.5,0-0.9,0.5-0.9,1s0.4,1,0.9,1c5.8,0,11.9-1,15.3-2.9c-2.3,4-8.3,6.9-15.3,6.9
			c-0.5,0-0.9,0.4-0.9,0.9s0.4,0.9,0.9,0.9c6,0,11.4-2,14.7-5.1c-2.7,5.4-8.3,9.2-14.7,9.2c-0.5,0-0.9,0.4-0.9,0.9s0.4,0.7,0.9,0.7
			c9.4,0,17.2-7,18.1-16.5h6.7l0,3.6c0,0.9,0.9,1.5,1.7,1.1l9.1-5.3C38.3,20.1,38.3,19.1,37.5,18.7z"/>
	</g>
</g>
</svg>
