<?xml version="1.0" encoding="utf-8"?>
<!-- Generator: Adobe Illustrator 18.0.0, SVG Export Plug-In . SVG Version: 6.00 Build 0)  -->
<!DOCTYPE svg PUBLIC "-//W3C//DTD SVG 1.1//EN" "http://www.w3.org/Graphics/SVG/1.1/DTD/svg11.dtd" [
	<!ENTITY ns_extend "http://ns.adobe.com/Extensibility/1.0/">
	<!ENTITY ns_ai "http://ns.adobe.com/AdobeIllustrator/10.0/">
	<!ENTITY ns_graphs "http://ns.adobe.com/Graphs/1.0/">
	<!ENTITY ns_vars "http://ns.adobe.com/Variables/1.0/">
	<!ENTITY ns_imrep "http://ns.adobe.com/ImageReplacement/1.0/">
	<!ENTITY ns_sfw "http://ns.adobe.com/SaveForWeb/1.0/">
	<!ENTITY ns_custom "http://ns.adobe.com/GenericCustomNamespace/1.0/">
	<!ENTITY ns_adobe_xpath "http://ns.adobe.com/XPath/1.0/">
]>
<svg version="1.1" id="Lag_1" xmlns:x="&ns_extend;" xmlns:i="&ns_ai;" xmlns:graph="&ns_graphs;"
	 xmlns="http://www.w3.org/2000/svg" xmlns:xlink="http://www.w3.org/1999/xlink" x="0px" y="0px" width="40px" height="40px"
	 viewBox="0 0 40 40" enable-background="new 0 0 40 40" xml:space="preserve">
<metadata>
	<sfw  xmlns="&ns_sfw;">
		<slices></slices>
		<sliceSourceBounds  height="40.1" width="35" y="43" x="45" bottomLeftOrigin="true"></sliceSourceBounds>
		<optimizationSettings>
			<targetSettings  fileFormat="PNG24Format" targetSettingsID="0">
				<PNG24Format  transparency="true" interlaced="false" noMatteColor="false" filtered="false" matteColor="#FFFFFF">
					</PNG24Format>
			</targetSettings>
		</optimizationSettings>
	</sfw>
</metadata>
<g id="Lag_1_1_">
	<g>
		<path fill="#464665" d="M16-0.1c2.7,0,5,2.1,5.2,4.7c1.8-0.1,2.6,1,2.8,3.2c0.2,1.9,0,3.4,0.6,4.3c0,0.1,0,0.1,0,0.2
			c0,0.1-0.1,0.1-0.2,0c-1.5-0.7-2.2-1.3-2.5-2.3c-0.4-1.5,0-3.7-0.7-4.5c-0.2,2.7-2.5,4.7-5.2,4.7s-5-2.1-5.2-4.7
			c-0.7,0.8-0.4,3-0.7,4.5c-0.2,1-1,1.7-2.5,2.3c-0.1,0-0.1,0-0.2,0c0-0.1-0.1-0.1,0-0.2C8,11.1,7.8,9.6,8,7.8
			c0.2-2.2,1-3.3,2.8-3.2C11,1.9,13.3-0.1,16-0.1z M19.5,13.3l6.4,10.5c0.9,1.4-1.3,2.8-2.3,1.3L20,19.6l2.4,11.7h-2.8l0.2,7.3
			c0,1.7-2.5,1.8-2.6,0.2l-0.7-7.5h-1.2l-0.6,7.5c-0.1,1.7-2.7,1.5-2.6-0.2l0.2-7.3H9.6L12.1,19v-0.3l-1.6,1.9
			c-0.5,0.6-1.4,0.6-2,0.1L3.4,16c-1.2-1.2,0.5-3,1.7-1.9l4.1,3.6l3.2-4.3C14.1,11.1,18.1,11,19.5,13.3z"/>
	</g>
	<g>
		<path fill="#464665" d="M32.4,25.7c0.6,0.3,0.9,1.1,0.5,1.8s-1.1,0.9-1.8,0.5c-0.6-0.3-0.9-1.1-0.5-1.8
			C31,25.6,31.8,25.3,32.4,25.7z M30.3,23.4c0.6-0.5,1.4-0.7,2.1-0.7c0-0.6-0.5-1.1-1.1-1.1s-1.1,0.5-1.1,1.1
			C30.1,23,30.2,23.2,30.3,23.4z M34.9,24c0.5,0.6,0.7,1.4,0.6,2.1c0.6,0,1.1-0.5,1.1-1.1s-0.5-1.1-1.1-1.1
			C35.2,23.9,35,23.9,34.9,24z M32.5,30.4C32.6,30.4,32.6,30.5,32.5,30.4c0.5,0.6,1,1.3,1.3,2c0.4,0.7,0.6,1.4,0.8,2.1
			c0.1,0.5-0.2,1-0.8,1.1c-0.5,0.1-1-0.2-1.1-0.8c-0.1-0.5-0.3-1.1-0.6-1.6c-0.1-0.3-0.3-0.5-0.5-0.8l-0.6,1
			c-0.1,0.3-0.3,0.5-0.5,0.7c0.1,0.6,0.1,1.3,0.1,1.9c0,0.8-0.2,1.5-0.4,2.2C30,38.7,29.5,39,29,38.9c-0.5-0.2-0.8-0.7-0.7-1.2
			c0.2-0.6,0.3-1.1,0.3-1.7c0-0.3,0-0.7,0-1.1c-0.4,0-0.8-0.1-1.1-0.3c-0.4-0.2-0.7-0.5-1-0.9c-0.3,0.1-0.5,0.3-0.7,0.4
			c-0.5,0.3-0.9,0.8-1.3,1.4c-0.3,0.4-0.9,0.6-1.4,0.3s-0.6-0.9-0.3-1.3c0.5-0.8,1.1-1.4,1.8-1.9c0.5-0.3,1-0.6,1.5-0.8
			c0-0.2,0.1-0.5,0.3-0.7l0.8-1.5c-0.5-0.6-0.9-1.1-1.2-1.7c-0.2-0.3-0.4-0.7-0.5-1c0.2-0.1,0.4-0.2,0.6-0.3c0.4-0.3,0.7-0.6,1-1
			c0.2,0.4,0.4,0.9,0.6,1.3s0.5,0.8,0.8,1.1c0.3-0.2,0.6-0.3,0.9-0.4c-0.6-1-0.7-2.2-0.1-3.3l0,0c-0.4-0.4-0.6-1-0.6-1.6
			c0-1.3,1.1-2.4,2.5-2.4c1.4,0,2.5,1.1,2.5,2.4c0,0.1,0,0.2,0,0.2c0.1,0,0.1,0.1,0.2,0.1c0.4-0.4,1-0.6,1.6-0.6
			c1.4,0,2.5,1.1,2.5,2.4s-1.1,2.4-2.5,2.4c-0.1,0-0.2,0-0.3,0c0,0,0,0,0,0.1c-0.6,1.1-1.7,1.7-2.8,1.7C32.5,29.6,32.6,30,32.5,30.4
			z"/>
	</g>
</g>
<g id="tekst">
</g>
</svg>
