<?xml version="1.0" encoding="utf-8"?>
<!-- Generator: Adobe Illustrator 18.0.0, SVG Export Plug-In . SVG Version: 6.00 Build 0)  -->
<!DOCTYPE svg PUBLIC "-//W3C//DTD SVG 1.1//EN" "http://www.w3.org/Graphics/SVG/1.1/DTD/svg11.dtd" [
	<!ENTITY ns_extend "http://ns.adobe.com/Extensibility/1.0/">
	<!ENTITY ns_ai "http://ns.adobe.com/AdobeIllustrator/10.0/">
	<!ENTITY ns_graphs "http://ns.adobe.com/Graphs/1.0/">
	<!ENTITY ns_vars "http://ns.adobe.com/Variables/1.0/">
	<!ENTITY ns_imrep "http://ns.adobe.com/ImageReplacement/1.0/">
	<!ENTITY ns_sfw "http://ns.adobe.com/SaveForWeb/1.0/">
	<!ENTITY ns_custom "http://ns.adobe.com/GenericCustomNamespace/1.0/">
	<!ENTITY ns_adobe_xpath "http://ns.adobe.com/XPath/1.0/">
]>
<svg version="1.1" id="Lag_1" xmlns:x="&ns_extend;" xmlns:i="&ns_ai;" xmlns:graph="&ns_graphs;"
	 xmlns="http://www.w3.org/2000/svg" xmlns:xlink="http://www.w3.org/1999/xlink" x="0px" y="0px" width="40px" height="40px"
	 viewBox="0 0 40 40" enable-background="new 0 0 40 40" xml:space="preserve">
<metadata>
	<sfw  xmlns="&ns_sfw;">
		<slices></slices>
		<sliceSourceBounds  height="40" width="40" y="43" x="42" bottomLeftOrigin="true"></sliceSourceBounds>
		<optimizationSettings>
			<targetSettings  fileFormat="PNG24Format" targetSettingsID="0">
				<PNG24Format  transparency="true" interlaced="false" noMatteColor="false" filtered="false" matteColor="#FFFFFF">
					</PNG24Format>
			</targetSettings>
		</optimizationSettings>
	</sfw>
</metadata>
<g id="Lag_1_1_">
	<g>
		<g>
			<path fill="#464665" d="M20,0C9,0,0,9,0,20s9,20,20,20s20-9,20-20S31,0,20,0z M20.6,27.7c-0.3,0.3-0.7,0.4-1.2,0.4
				c-0.6,0-1-0.1-1.2-0.4c-0.1-0.3-0.3-0.7-0.3-1.2c0-1.1,0.6-1.7,1.5-1.7c0.6,0,1,0.1,1.2,0.4s0.4,0.7,0.4,1.2
				C21,27,20.8,27.4,20.6,27.7z M24.3,17.2c-0.1,0.4-0.4,0.8-0.7,1.2c-0.3,0.4-0.8,0.8-1.7,1.5c-0.7,0.6-1.1,1-1.4,1.2
				s-0.3,0.8-0.3,1.4v0.6h-2.1V23v-0.7c0-0.8,0.2-1.4,0.4-1.9c0.3-0.6,0.9-1.1,1.5-1.7c0.8-0.7,1.4-1.2,1.7-1.5
				c0.3-0.3,0.4-0.8,0.4-1.4s-0.1-1.1-0.6-1.4c-0.4-0.3-1-0.6-1.8-0.6c-0.7,0-1.4,0.1-1.9,0.3c-0.6,0.1-1.1,0.4-1.7,0.7l-1-1.8
				c1.5-0.8,3-1.2,4.7-1.2c1.4,0,2.5,0.4,3.3,1.1c0.8,0.7,1.2,1.7,1.2,2.9C24.6,16.4,24.4,16.8,24.3,17.2z"/>
		</g>
	</g>
</g>
<g id="tekst">
</g>
</svg>
