<?xml version="1.0" encoding="utf-8"?>
<!-- Generator: Adobe Illustrator 18.0.0, SVG Export Plug-In . SVG Version: 6.00 Build 0)  -->
<!DOCTYPE svg PUBLIC "-//W3C//DTD SVG 1.1//EN" "http://www.w3.org/Graphics/SVG/1.1/DTD/svg11.dtd" [
	<!ENTITY ns_extend "http://ns.adobe.com/Extensibility/1.0/">
	<!ENTITY ns_ai "http://ns.adobe.com/AdobeIllustrator/10.0/">
	<!ENTITY ns_graphs "http://ns.adobe.com/Graphs/1.0/">
	<!ENTITY ns_vars "http://ns.adobe.com/Variables/1.0/">
	<!ENTITY ns_imrep "http://ns.adobe.com/ImageReplacement/1.0/">
	<!ENTITY ns_sfw "http://ns.adobe.com/SaveForWeb/1.0/">
	<!ENTITY ns_custom "http://ns.adobe.com/GenericCustomNamespace/1.0/">
	<!ENTITY ns_adobe_xpath "http://ns.adobe.com/XPath/1.0/">
]>
<svg version="1.1" id="Lag_1" xmlns:x="&ns_extend;" xmlns:i="&ns_ai;" xmlns:graph="&ns_graphs;"
	 xmlns="http://www.w3.org/2000/svg" xmlns:xlink="http://www.w3.org/1999/xlink" x="0px" y="0px" width="40px" height="40px"
	 viewBox="0 0 40 40" enable-background="new 0 0 40 40" xml:space="preserve">
<metadata>
	<sfw  xmlns="&ns_sfw;">
		<slices></slices>
		<sliceSourceBounds  height="39.5" width="39.5" y="43.1" x="42.2" bottomLeftOrigin="true"></sliceSourceBounds>
		<optimizationSettings>
			<targetSettings  fileFormat="PNG24Format" targetSettingsID="0">
				<PNG24Format  transparency="true" interlaced="false" noMatteColor="false" filtered="false" matteColor="#FFFFFF">
					</PNG24Format>
			</targetSettings>
		</optimizationSettings>
	</sfw>
</metadata>
<g id="Lag_1_1_">
	<g>
		<path fill="#464665" d="M37.4,2.7L37.4,2.7L37.4,2.7c-3-3-7.9-3-10.8,0L6.3,23c-1.8,1.8-0.4,4.9-0.4,6.9l-4.8,4.8
			c-1.2,1.2-1.2,3.1,0,4.3s3.1,1.2,4.3,0l4.8-4.8c2,0,5.1,1.5,6.9-0.4l20.3-20.3C40.4,10.5,40.4,5.7,37.4,2.7z M36.3,12.3L17.8,30.8
			c-1.6,1.6-4.8,1.2-7.2-1.2S7.8,24,9.4,22.4L27.8,3.9c2.3-2.3,6.1-2.3,8.4,0l0,0l0,0l0,0C38.6,6.2,38.6,10,36.3,12.3z"/>
		<path fill="#464665" d="M23.2,14.8L10.7,27.3c0.3,0.5,0.8,1,1.2,1.4c0.3,0.2,0.6,0.5,0.9,0.7l12.5-12.5L23.2,14.8z"/>
		<path fill="#464665" d="M18.1,19.1l1.2-1.2l-0.6-0.6c-0.3-0.3-0.9-0.3-1.2,0c-0.3,0.3-0.3,0.9,0,1.2L18.1,19.1z"/>
		<path fill="#464665" d="M16.2,26.9L15,28.1l0.5,0.5c0.3,0.3,0.9,0.3,1.2,0c0.3-0.3,0.3-0.9,0-1.2L16.2,26.9z"/>
		<path fill="#464665" d="M12,25.1l1.2-1.2l-0.6-0.6c-0.3-0.3-0.9-0.3-1.2,0s-0.3,0.9,0,1.2L12,25.1z"/>
		<path fill="#464665" d="M15,22.1l1.2-1.2l-0.6-0.6c-0.3-0.3-0.9-0.3-1.2,0s-0.3,0.9,0,1.2L15,22.1z"/>
		<path fill="#464665" d="M19.2,23.9L18,25.1l0.5,0.5c0.3,0.3,0.9,0.3,1.2,0c0.3-0.3,0.3-0.9,0-1.2L19.2,23.9z"/>
		<path fill="#464665" d="M21.1,16.1l1.2-1.2l-0.6-0.6c-0.3-0.3-0.9-0.3-1.2,0c-0.3,0.3-0.3,0.9,0,1.2L21.1,16.1z"/>
		<path fill="#464665" d="M25.2,17.8L24,19l0.5,0.5c0.3,0.3,0.9,0.3,1.2,0c0.3-0.3,0.3-0.9,0-1.2L25.2,17.8z"/>
		<path fill="#464665" d="M22.2,20.9L21,22l0.5,0.5c0.3,0.3,0.9,0.3,1.2,0c0.3-0.3,0.3-0.9,0-1.2L22.2,20.9z"/>
		<path fill="#464665" d="M30.7,5.3c-0.3-0.3-0.9-0.3-1.2,0c-0.3,0.3-0.3,0.9,0,1.2l4,4c0.3,0.3,0.9,0.3,1.2,0s0.3-0.9,0-1.2
			L30.7,5.3z"/>
		<path fill="#464665" d="M27.7,8.3c-0.3-0.3-0.9-0.3-1.2,0c-0.3,0.3-0.3,0.9,0,1.2l4,4c0.3,0.3,0.9,0.3,1.2,0
			c0.3-0.3,0.3-0.9,0-1.2L27.7,8.3z"/>
		<path fill="#464665" d="M24.7,11.3c-0.3-0.3-0.9-0.3-1.2,0c-0.3,0.3-0.3,0.9,0,1.2l4,4c0.3,0.3,0.9,0.3,1.2,0
			c0.3-0.3,0.3-0.9,0-1.2L24.7,11.3z"/>
	</g>
</g>
<g id="tekst">
</g>
</svg>
