<?xml version="1.0" encoding="utf-8"?>
<!-- Generator: Adobe Illustrator 18.0.0, SVG Export Plug-In . SVG Version: 6.00 Build 0)  -->
<!DOCTYPE svg PUBLIC "-//W3C//DTD SVG 1.1//EN" "http://www.w3.org/Graphics/SVG/1.1/DTD/svg11.dtd" [
	<!ENTITY ns_extend "http://ns.adobe.com/Extensibility/1.0/">
	<!ENTITY ns_ai "http://ns.adobe.com/AdobeIllustrator/10.0/">
	<!ENTITY ns_graphs "http://ns.adobe.com/Graphs/1.0/">
	<!ENTITY ns_vars "http://ns.adobe.com/Variables/1.0/">
	<!ENTITY ns_imrep "http://ns.adobe.com/ImageReplacement/1.0/">
	<!ENTITY ns_sfw "http://ns.adobe.com/SaveForWeb/1.0/">
	<!ENTITY ns_custom "http://ns.adobe.com/GenericCustomNamespace/1.0/">
	<!ENTITY ns_adobe_xpath "http://ns.adobe.com/XPath/1.0/">
]>
<svg version="1.1" id="Lag_1" xmlns:x="&ns_extend;" xmlns:i="&ns_ai;" xmlns:graph="&ns_graphs;"
	 xmlns="http://www.w3.org/2000/svg" xmlns:xlink="http://www.w3.org/1999/xlink" x="0px" y="0px" width="40px" height="40px"
	 viewBox="0 0 40 40" enable-background="new 0 0 40 40" xml:space="preserve">
<metadata>
	<sfw  xmlns="&ns_sfw;">
		<slices></slices>
		<sliceSourceBounds  height="21.4" width="39.9" y="52.3" x="42" bottomLeftOrigin="true"></sliceSourceBounds>
		<optimizationSettings>
			<targetSettings  fileFormat="PNG24Format" targetSettingsID="0">
				<PNG24Format  transparency="true" interlaced="false" noMatteColor="false" filtered="false" matteColor="#FFFFFF">
					</PNG24Format>
			</targetSettings>
		</optimizationSettings>
	</sfw>
</metadata>
<g id="Lag_1_1_">
</g>
<g id="tekst">
</g>
<g>
	<g>
		<path fill="#464665" d="M37.4,9.3H2.6C1.2,9.3,0,10.4,0,11.8v16.4c0,1.4,1.1,2.5,2.5,2.5h34.9c1.4,0,2.5-1.1,2.5-2.5V11.8
			C40,10.4,38.8,9.3,37.4,9.3z M3,29.7c-0.6,0-1.1-0.5-1.1-1.1s0.5-1.1,1.1-1.1s1.1,0.5,1.1,1.1S3.6,29.7,3,29.7z M3,13.1
			c-0.6,0-1.1-0.5-1.1-1.1s0.5-1.1,1.1-1.1s1.1,0.5,1.1,1.1S3.6,13.1,3,13.1z M14.2,24.1c-0.7,0.5-1.5,0.8-2.7,0.8
			c-1,0-1.7-0.2-2.6-0.5v-1.7c0,0.2,0.7,0.3,1.1,0.5c0.4,0.1,0.8,0.2,1.3,0.2c0.7,0,1.1-0.1,1.4-0.3c0.3-0.2,0.5-0.6,0.5-1.1
			c0-0.4-0.2-0.6-0.5-0.8c-0.4-0.2-0.9-0.1-1.7-0.1h-1V19h1c0.7,0,1.3,0,1.6-0.2s0.5-0.5,0.5-1c0-0.7-0.4-1.1-1.3-1.1
			c-0.3,0-0.6,0.1-0.9,0.2c-0.3,0.1-0.7,0.3-1.1,0.5L8.9,16c0.9-0.6,1.9-0.9,3.1-0.9c1,0,1.8,0.2,2.3,0.6c0.6,0.4,0.9,0.9,0.9,1.7
			c0,0.6-0.2,1.1-0.6,1.5c-0.4,0.4-0.6,0.7-1.6,0.9l0,0c1,0.1,1.4,0.3,1.8,0.7c0.4,0.4,0.6,0.9,0.6,1.5
			C15.1,22.9,14.8,23.6,14.2,24.1z M21.5,24.9h-1.9v-5.6v-0.9v-1c-0.3,0.3-0.6,0.5-0.7,0.7L17.8,19l-1-1.3l3-2.5h1.6v9.7H21.5z
			 M30.1,24.1c-0.7,0.5-1.7,0.8-2.9,0.8c-1,0-1.8-0.2-2.8-0.5v-1.7c1,0.2,0.8,0.3,1.3,0.5c0.4,0.1,0.9,0.2,1.3,0.2
			c0.7,0,1.2-0.1,1.5-0.3c0.3-0.2,0.5-0.6,0.5-1.1c0-0.4-0.2-0.6-0.5-0.8c-0.4-0.2-0.9-0.1-1.7-0.1h-0.4V19h0.4c0.7,0,1.3,0,1.6-0.2
			c0.3-0.2,0.5-0.5,0.5-1c0-0.7-0.4-1.1-1.3-1.1c-0.3,0-0.6,0.1-0.9,0.2s-0.7,0.3-1.1,0.5L24.7,16c0.9-0.6,1.9-0.9,3.1-0.9
			c1,0,1.8,0.2,2.3,0.6c0.6,0.4,0.9,0.9,0.9,1.7c0,0.6-0.4,1.1-0.8,1.5s-0.8,0.7-1.7,0.9l0,0c1,0.1,1.6,0.3,2,0.7
			c0.4,0.4,0.7,0.9,0.7,1.5C31,22.9,30.7,23.6,30.1,24.1z M37.1,29.7c-0.6,0-1.1-0.5-1.1-1.1s0.5-1.1,1.1-1.1s1.1,0.5,1.1,1.1
			C38.2,29.2,37.7,29.7,37.1,29.7z M37.1,13.1c-0.6,0-1.1-0.5-1.1-1.1s0.5-1.1,1.1-1.1s1.1,0.5,1.1,1.1
			C38.2,12.6,37.7,13.1,37.1,13.1z"/>
	</g>
</g>
</svg>
