<?xml version="1.0" encoding="utf-8"?>
<!-- Generator: Adobe Illustrator 18.0.0, SVG Export Plug-In . SVG Version: 6.00 Build 0)  -->
<!DOCTYPE svg PUBLIC "-//W3C//DTD SVG 1.1//EN" "http://www.w3.org/Graphics/SVG/1.1/DTD/svg11.dtd" [
	<!ENTITY ns_extend "http://ns.adobe.com/Extensibility/1.0/">
	<!ENTITY ns_ai "http://ns.adobe.com/AdobeIllustrator/10.0/">
	<!ENTITY ns_graphs "http://ns.adobe.com/Graphs/1.0/">
	<!ENTITY ns_vars "http://ns.adobe.com/Variables/1.0/">
	<!ENTITY ns_imrep "http://ns.adobe.com/ImageReplacement/1.0/">
	<!ENTITY ns_sfw "http://ns.adobe.com/SaveForWeb/1.0/">
	<!ENTITY ns_custom "http://ns.adobe.com/GenericCustomNamespace/1.0/">
	<!ENTITY ns_adobe_xpath "http://ns.adobe.com/XPath/1.0/">
]>
<svg version="1.1" id="Lag_1" xmlns:x="&ns_extend;" xmlns:i="&ns_ai;" xmlns:graph="&ns_graphs;"
	 xmlns="http://www.w3.org/2000/svg" xmlns:xlink="http://www.w3.org/1999/xlink" x="0px" y="0px" width="40px" height="40px"
	 viewBox="0 0 40 40" enable-background="new 0 0 40 40" xml:space="preserve">
<metadata>
	<sfw  xmlns="&ns_sfw;">
		<slices></slices>
		<sliceSourceBounds  height="35.7" width="38.7" y="44.6" x="42.6" bottomLeftOrigin="true"></sliceSourceBounds>
		<optimizationSettings>
			<targetSettings  fileFormat="PNG24Format" targetSettingsID="0">
				<PNG24Format  transparency="true" interlaced="false" noMatteColor="false" filtered="false" matteColor="#FFFFFF">
					</PNG24Format>
			</targetSettings>
		</optimizationSettings>
	</sfw>
</metadata>
<g id="Lag_1_1_">
	<g>
		<path fill="#464665" d="M21.9,14.4c0,0.5,0.1,0.9,0.4,1.2s0.6,0.5,1.1,0.5s0.8-0.2,1.1-0.5s0.4-0.7,0.4-1.2v-0.8
			c0-0.5-0.1-0.9-0.4-1.2s-0.6-0.5-1.1-0.5s-0.9,0.2-1.1,0.5c-0.3,0.3-0.4,0.7-0.4,1.2V14.4L21.9,14.4z M20.5,13.6
			c0-0.8,0.3-1.5,0.8-2.1s1.2-0.8,2.1-0.8s1.6,0.3,2.1,0.8c0.5,0.6,0.8,1.2,0.8,2.1v0.8c0,0.8-0.3,1.5-0.8,2.1
			c-0.5,0.6-1.2,0.8-2.1,0.8s-1.6-0.3-2.1-0.8c-0.5-0.6-0.8-1.2-0.8-2.1V13.6L20.5,13.6z M15.4,16.9L15.4,16.9
			c-0.3-0.2-0.4-0.6-0.2-0.9l9-12.9C24.4,2.9,24.8,2.8,25,3c0.3,0.2,0.4,0.6,0.2,0.9l-9,12.9C16,17,15.6,17.1,15.4,16.9z M15.1,6.4
			c0,0.5,0.1,0.9,0.4,1.2c0.3,0.3,0.6,0.5,1.1,0.5s0.8-0.2,1.1-0.5c0.3-0.3,0.4-0.7,0.4-1.2V5.6c0-0.5-0.1-0.9-0.4-1.2
			s-0.6-0.5-1.1-0.5s-0.9,0.2-1.1,0.5c-0.3,0.3-0.4,0.7-0.4,1.2V6.4L15.1,6.4z M13.6,5.6c0-0.8,0.3-1.5,0.8-2.1
			C15,3,15.7,2.7,16.6,2.7c0.9,0,1.6,0.3,2.1,0.8c0.5,0.6,0.8,1.3,0.8,2.1v0.7c0,0.8-0.3,1.5-0.8,2.1s-1.2,0.8-2.1,0.8
			S15,8.9,14.5,8.4s-0.8-1.2-0.8-2.1L13.6,5.6L13.6,5.6z"/>
	</g>
	<g>
		<path fill="#464665" d="M37.8,29c-1.2,0.7-2.8,1.1-4.5,1.1c-0.1,0-0.2,0-0.3,0s-0.2,0-0.3,0c-1.7,0-3.3-0.4-4.5-1.1
			c-0.6-0.3-1.1-0.7-1.5-1.2v2.4c0.4,0.4,0.9,0.8,1.5,1.2c1.2,0.7,2.8,1.1,4.5,1.1c0.1,0,0.2,0,0.3,0s0.2,0,0.3,0
			c1.7,0,3.3-0.4,4.5-1.1c0.6-0.3,1.1-0.7,1.5-1.2v-2.4C38.9,28.3,38.4,28.7,37.8,29z"/>
	</g>
	<g>
		<path fill="#464665" d="M37.8,31.9C36.6,32.6,35,33,33.3,33c-0.1,0-0.2,0-0.3,0s-0.2,0-0.3,0c-1.7,0-3.3-0.4-4.5-1.1
			c-0.6-0.3-1.1-0.7-1.5-1.2v2.4c0.4,0.4,0.9,0.8,1.5,1.2c1.2,0.7,2.8,1.1,4.5,1.1c0.1,0,0.2,0,0.3,0s0.2,0,0.3,0
			c1.7,0,3.3-0.4,4.5-1.1c0.6-0.3,1.1-0.7,1.5-1.2v-2.4C38.9,31.2,38.4,31.6,37.8,31.9z"/>
	</g>
	<g>
		<path fill="#464665" d="M37.8,34.9C36.6,35.6,35,36,33.3,36c-0.1,0-0.2,0-0.3,0s-0.2,0-0.3,0c-1.7,0-3.3-0.4-4.5-1.1
			c-0.6-0.3-1.1-0.7-1.5-1.2v2.4c0.4,0.4,0.9,0.8,1.5,1.2c1.2,0.7,2.8,1.1,4.5,1.1c0.1,0,0.2,0,0.3,0s0.2,0,0.3,0
			c1.7,0,3.3-0.4,4.5-1.1c0.6-0.3,1.1-0.7,1.5-1.2v-2.4C38.9,34.1,38.4,34.5,37.8,34.9z"/>
	</g>
	<g>
		<path fill="#464665" d="M33,22.5c-3.5,0-6.2,1.6-6.2,3.5s2.8,3.5,6.2,3.5c3.5,0,6.2-1.6,6.2-3.5S36.5,22.5,33,22.5z"/>
	</g>
	<g>
		<path fill="#464665" d="M24.8,29c-1.2,0.7-2.8,1.1-4.5,1.1c-0.1,0-0.2,0-0.3,0c-0.1,0-0.2,0-0.3,0c-1.7,0-3.3-0.4-4.5-1.1
			c-0.6-0.3-1.1-0.7-1.5-1.2v2.4c0.4,0.4,0.9,0.8,1.5,1.2c1.2,0.7,2.8,1.1,4.5,1.1c0.1,0,0.2,0,0.3,0s0.2,0,0.3,0
			c1.7,0,3.3-0.4,4.5-1.1c0.6-0.3,1.1-0.7,1.5-1.2v-2.4C25.9,28.3,25.4,28.7,24.8,29z"/>
	</g>
	<g>
		<path fill="#464665" d="M24.8,31.9C23.6,32.6,22,33,20.3,33c-0.1,0-0.2,0-0.3,0c-0.1,0-0.2,0-0.3,0c-1.7,0-3.3-0.4-4.5-1.1
			c-0.6-0.3-1.1-0.7-1.5-1.2v2.4c0.4,0.4,0.9,0.8,1.5,1.2c1.2,0.7,2.8,1.1,4.5,1.1c0.1,0,0.2,0,0.3,0s0.2,0,0.3,0
			c1.7,0,3.3-0.4,4.5-1.1c0.6-0.3,1.1-0.7,1.5-1.2v-2.4C25.9,31.2,25.4,31.6,24.8,31.9z"/>
	</g>
	<g>
		<path fill="#464665" d="M24.8,34.9C23.6,35.6,22,36,20.3,36c-0.1,0-0.2,0-0.3,0c-0.1,0-0.2,0-0.3,0c-1.7,0-3.3-0.4-4.5-1.1
			c-0.6-0.3-1.1-0.7-1.5-1.2v2.4c0.4,0.4,0.9,0.8,1.5,1.2c1.2,0.7,2.8,1.1,4.5,1.1c0.1,0,0.2,0,0.3,0s0.2,0,0.3,0
			c1.7,0,3.3-0.4,4.5-1.1c0.6-0.3,1.1-0.7,1.5-1.2v-2.4C25.9,34.1,25.4,34.5,24.8,34.9z"/>
	</g>
	<g>
		<path fill="#464665" d="M24.8,26.1c-1.2,0.7-2.8,1.1-4.5,1.1c-0.1,0-0.2,0-0.3,0c-0.1,0-0.2,0-0.3,0c-1.7,0-3.3-0.4-4.5-1.1
			c-0.6-0.3-1.1-0.7-1.5-1.2v2.4c0.4,0.4,0.9,0.8,1.5,1.2c1.2,0.7,2.8,1.1,4.5,1.1c0.1,0,0.2,0,0.3,0s0.2,0,0.3,0
			c1.7,0,3.3-0.4,4.5-1.1c0.6-0.3,1.1-0.7,1.5-1.2v-2.4C25.9,25.3,25.4,25.7,24.8,26.1z"/>
	</g>
	<g>
		<path fill="#464665" d="M24.8,29c-1.2,0.7-2.8,1.1-4.5,1.1c-0.1,0-0.2,0-0.3,0c-0.1,0-0.2,0-0.3,0c-1.7,0-3.3-0.4-4.5-1.1
			c-0.6-0.3-1.1-0.7-1.5-1.2v2.4c0.4,0.4,0.9,0.8,1.5,1.2c1.2,0.7,2.8,1.1,4.5,1.1c0.1,0,0.2,0,0.3,0s0.2,0,0.3,0
			c1.7,0,3.3-0.4,4.5-1.1c0.6-0.3,1.1-0.7,1.5-1.2v-2.4C25.9,28.3,25.4,28.7,24.8,29z"/>
	</g>
	<g>
		<path fill="#464665" d="M20,19.6c-3.5,0-6.2,1.6-6.2,3.5s2.8,3.5,6.2,3.5s6.2-1.6,6.2-3.5S23.4,19.6,20,19.6L20,19.6z"/>
	</g>
	<g>
		<path fill="#464665" d="M11.7,31.9C10.5,32.6,8.9,33,7.2,33c-0.1,0-0.2,0-0.3,0s-0.2,0-0.3,0c-1.7,0-3.3-0.4-4.5-1.1
			c-0.6-0.3-1.1-0.7-1.5-1.2v2.4c0.4,0.4,0.9,0.8,1.5,1.2c1.2,0.7,2.8,1.1,4.5,1.1c0.1,0,0.2,0,0.3,0s0.2,0,0.3,0
			c1.7,0,3.3-0.4,4.5-1.1c0.6-0.3,1.1-0.7,1.5-1.2v-2.4C12.8,31.2,12.3,31.6,11.7,31.9z"/>
	</g>
	<g>
		<path fill="#464665" d="M11.7,34.9C10.5,35.6,8.9,36,7.2,36c-0.1,0-0.2,0-0.3,0s-0.2,0-0.3,0c-1.7,0-3.3-0.4-4.5-1.1
			c-0.6-0.3-1.1-0.7-1.5-1.2v2.4c0.4,0.4,0.9,0.8,1.5,1.2c1.2,0.7,2.8,1.1,4.5,1.1c0.1,0,0.2,0,0.3,0s0.2,0,0.3,0
			c1.7,0,3.3-0.4,4.5-1.1c0.6-0.3,1.1-0.7,1.5-1.2v-2.4C12.8,34.1,12.3,34.5,11.7,34.9z"/>
	</g>
	<g>
		<path fill="#464665" d="M6.9,25.5c-3.5,0-6.2,1.6-6.2,3.5s2.8,3.5,6.2,3.5s6.2-1.6,6.2-3.5S10.4,25.5,6.9,25.5z"/>
	</g>
</g>
<g id="tekst">
</g>
</svg>
