<?xml version="1.0" encoding="utf-8"?>
<!-- Generator: Adobe Illustrator 18.0.0, SVG Export Plug-In . SVG Version: 6.00 Build 0)  -->
<!DOCTYPE svg PUBLIC "-//W3C//DTD SVG 1.1//EN" "http://www.w3.org/Graphics/SVG/1.1/DTD/svg11.dtd" [
	<!ENTITY ns_extend "http://ns.adobe.com/Extensibility/1.0/">
	<!ENTITY ns_ai "http://ns.adobe.com/AdobeIllustrator/10.0/">
	<!ENTITY ns_graphs "http://ns.adobe.com/Graphs/1.0/">
	<!ENTITY ns_vars "http://ns.adobe.com/Variables/1.0/">
	<!ENTITY ns_imrep "http://ns.adobe.com/ImageReplacement/1.0/">
	<!ENTITY ns_sfw "http://ns.adobe.com/SaveForWeb/1.0/">
	<!ENTITY ns_custom "http://ns.adobe.com/GenericCustomNamespace/1.0/">
	<!ENTITY ns_adobe_xpath "http://ns.adobe.com/XPath/1.0/">
]>
<svg version="1.1" id="Lag_1" xmlns:x="&ns_extend;" xmlns:i="&ns_ai;" xmlns:graph="&ns_graphs;"
	 xmlns="http://www.w3.org/2000/svg" xmlns:xlink="http://www.w3.org/1999/xlink" x="0px" y="0px" width="40px" height="40px"
	 viewBox="0 0 40 40" enable-background="new 0 0 40 40" xml:space="preserve">
<metadata>
	<sfw  xmlns="&ns_sfw;">
		<slices></slices>
		<sliceSourceBounds  height="36.6" width="38.6" y="45.4" x="42.7" bottomLeftOrigin="true"></sliceSourceBounds>
		<optimizationSettings>
			<targetSettings  fileFormat="PNG24Format" targetSettingsID="0">
				<PNG24Format  transparency="true" interlaced="false" noMatteColor="false" filtered="false" matteColor="#FFFFFF">
					</PNG24Format>
			</targetSettings>
		</optimizationSettings>
	</sfw>
</metadata>
<g id="Lag_1_1_">
	<g>
		<rect x="0.7" y="5.2" fill="#464665" width="18.1" height="3.2"/>
		<rect x="0.7" y="11.8" fill="#464665" width="18.1" height="3.2"/>
		<rect x="0.7" y="18.3" fill="#464665" width="18.1" height="3.2"/>
		<rect x="0.7" y="24.8" fill="#464665" width="18.1" height="3.2"/>
		<rect x="0.7" y="30.6" fill="#464665" width="18.1" height="3.2"/>
		<polygon fill="#464665" points="37.6,11.3 31.6,4.5 25.7,11.3 23.9,9.8 31.6,1 39.3,9.8 		"/>
		<rect x="30.4" y="3.5" fill="#464665" width="2.5" height="13.1"/>
		<polygon fill="#464665" points="31.6,37.6 23.9,28.8 25.7,27.3 31.6,34.2 37.6,27.3 39.3,28.8 		"/>
		<rect x="30.3" y="22" fill="#464665" width="2.5" height="13.1"/>
	</g>
</g>
<g id="tekst">
</g>
</svg>
