<?xml version="1.0" encoding="utf-8"?>
<!-- Generator: Adobe Illustrator 18.0.0, SVG Export Plug-In . SVG Version: 6.00 Build 0)  -->
<!DOCTYPE svg PUBLIC "-//W3C//DTD SVG 1.1//EN" "http://www.w3.org/Graphics/SVG/1.1/DTD/svg11.dtd" [
	<!ENTITY ns_extend "http://ns.adobe.com/Extensibility/1.0/">
	<!ENTITY ns_ai "http://ns.adobe.com/AdobeIllustrator/10.0/">
	<!ENTITY ns_graphs "http://ns.adobe.com/Graphs/1.0/">
	<!ENTITY ns_vars "http://ns.adobe.com/Variables/1.0/">
	<!ENTITY ns_imrep "http://ns.adobe.com/ImageReplacement/1.0/">
	<!ENTITY ns_sfw "http://ns.adobe.com/SaveForWeb/1.0/">
	<!ENTITY ns_custom "http://ns.adobe.com/GenericCustomNamespace/1.0/">
	<!ENTITY ns_adobe_xpath "http://ns.adobe.com/XPath/1.0/">
]>
<svg version="1.1" id="Lag_1" xmlns:x="&ns_extend;" xmlns:i="&ns_ai;" xmlns:graph="&ns_graphs;"
	 xmlns="http://www.w3.org/2000/svg" xmlns:xlink="http://www.w3.org/1999/xlink" x="0px" y="0px" width="40px" height="40px"
	 viewBox="0 0 40 40" enable-background="new 0 0 40 40" xml:space="preserve">
<metadata>
	<sfw  xmlns="&ns_sfw;">
		<slices></slices>
		<sliceSourceBounds  height="30.1" width="38.4" y="48.3" x="42.8" bottomLeftOrigin="true"></sliceSourceBounds>
		<optimizationSettings>
			<targetSettings  fileFormat="PNG24Format" targetSettingsID="0">
				<PNG24Format  transparency="true" interlaced="false" noMatteColor="false" filtered="false" matteColor="#FFFFFF">
					</PNG24Format>
			</targetSettings>
		</optimizationSettings>
	</sfw>
</metadata>
<g id="Lag_1_1_">
	<g>
		<g>
			<path fill="#464665" d="M10.4,19c0.1,0.1,0.2,0.2,0.3,0.3l0,0c0.1,0,0.1,0.1,0.2,0.1l0,0l0,0l0,0l0,0c0.1,0,0.2,0.1,0.2,0.1l0,0
				c0.1,0,0.3,0,0.4,0l0,0c0.4-0.1,0.6-0.5,0.7-0.8c0.1-0.3,0.1-0.7,0.1-1s0-0.7,0-0.9c0-0.2,0-0.4-0.1-0.4c0-0.2-0.2-0.4-0.4-0.4
				c-0.1,0-0.2,0-0.3,0.1c0,0-0.1,0.1-0.3,0.3S11,16.8,10.8,17c-0.2,0.3-0.4,0.6-0.5,0.9C10.2,18.3,10.2,18.7,10.4,19L10.4,19z
				 M1.7,19c0.1,0.1,0.2,0.2,0.3,0.3l0,0c0.1,0,0.1,0.1,0.2,0.1l0,0l0,0l0,0l0,0c0.1,0,0.2,0.1,0.2,0.1l0,0c0.1,0,0.3,0,0.4,0l0,0
				c0.4-0.1,0.6-0.5,0.7-0.8c0.1-0.3,0.1-0.7,0.1-1s0-0.7,0-0.9c0-0.2,0-0.4-0.1-0.4c0-0.2-0.2-0.4-0.4-0.4c-0.1,0-0.2,0-0.3,0.1
				c0,0-0.1,0.1-0.3,0.3S2.3,16.8,2.1,17c-0.2,0.3-0.4,0.6-0.5,0.9C1.5,18.3,1.4,18.7,1.7,19L1.7,19z M19.2,19
				c0.1,0.1,0.2,0.2,0.3,0.3l0,0c0.1,0,0.1,0.1,0.2,0.1l0,0l0,0l0,0l0,0c0.1,0,0.2,0.1,0.2,0.1l0,0c0.1,0,0.3,0,0.4,0l0,0
				c0.4-0.1,0.6-0.5,0.7-0.8s0.1-0.7,0.1-1s0-0.7,0-0.9c0-0.2,0-0.4-0.1-0.4c0-0.2-0.2-0.4-0.4-0.4c-0.1,0-0.2,0-0.3,0.1
				c0,0-0.1,0.1-0.3,0.3c-0.2,0.2-0.4,0.4-0.6,0.7c-0.2,0.3-0.4,0.6-0.5,0.9C19,18.3,19,18.7,19.2,19L19.2,19z M28,19
				c0.1,0.1,0.2,0.2,0.3,0.3l0,0c0.1,0,0.1,0.1,0.2,0.1l0,0l0,0l0,0l0,0c0.1,0,0.2,0.1,0.2,0.1l0,0c0.1,0,0.3,0,0.4,0l0,0
				c0.4-0.1,0.6-0.5,0.7-0.8s0.1-0.7,0.1-1s0-0.7,0-0.9c0-0.2,0-0.4-0.1-0.4c0-0.2-0.2-0.4-0.4-0.4c-0.1,0-0.2,0-0.3,0.1
				c0,0-0.1,0.1-0.3,0.3s-0.4,0.4-0.6,0.7c-0.2,0.3-0.4,0.6-0.5,0.9C27.8,18.3,27.7,18.7,28,19L28,19z M36.7,19
				c0.1,0.1,0.2,0.2,0.3,0.3l0,0c0.1,0,0.1,0.1,0.2,0.1l0,0l0,0l0,0l0,0c0.1,0,0.2,0.1,0.2,0.1l0,0c0.1,0,0.3,0,0.4,0l0,0
				c0.4-0.1,0.6-0.5,0.7-0.8c0.1-0.3,0.1-0.7,0.1-1s0-0.7,0-0.9c0-0.2,0-0.4-0.1-0.4c0-0.2-0.2-0.4-0.4-0.4c-0.1,0-0.2,0-0.3,0.1
				c0,0-0.1,0.1-0.3,0.3c-0.2,0.2-0.4,0.4-0.6,0.7c-0.2,0.3-0.4,0.6-0.5,0.9C36.5,18.3,36.5,18.7,36.7,19L36.7,19z M7.6,26.5v-2.9
				c0-0.4-0.3-0.7-0.7-0.7H1.5c-0.4,0-0.7,0.3-0.7,0.7v2.9c0,0.4,0.3,0.7,0.7,0.7h5.3C7.2,27.2,7.6,26.9,7.6,26.5z M15.5,26.5v-2.9
				c0-0.4-0.3-0.7-0.7-0.7H9.4c-0.4,0-0.7,0.3-0.7,0.7v2.9c0,0.4,0.3,0.7,0.7,0.7h5.3C15.1,27.2,15.5,26.9,15.5,26.5z M23.4,26.5
				v-2.9c0-0.4-0.3-0.7-0.7-0.7h-5.3c-0.4,0-0.7,0.3-0.7,0.7v2.9c0,0.4,0.3,0.7,0.7,0.7h5.3C23,27.2,23.4,26.9,23.4,26.5z
				 M31.3,26.5v-2.9c0-0.4-0.3-0.7-0.7-0.7h-5.3c-0.4,0-0.7,0.3-0.7,0.7v2.9c0,0.4,0.3,0.7,0.7,0.7h5.3C31,27.2,31.3,26.9,31.3,26.5
				z M38.5,22.9h-5.3c-0.4,0-0.7,0.3-0.7,0.7v2.9c0,0.4,0.3,0.7,0.7,0.7h5.3c0.4,0,0.7-0.3,0.7-0.7v-2.9
				C39.2,23.2,38.9,22.9,38.5,22.9z M15.9,28.7c-0.6,0-1.1,2.1-1.1,2.7c0,0.6,0.5,1.1,1.1,1.1S17,32,17,31.4
				C17.1,30.8,16.5,28.7,15.9,28.7z M31.5,28.7c-0.6,0-1.1,2.1-1.1,2.7c0,0.6,0.5,1.1,1.1,1.1c0.6,0,1.1-0.5,1.1-1.1
				S32.1,28.7,31.5,28.7z M7.4,13.1c0.1,0.1,0.2,0.2,0.3,0.3l0,0c0.1,0,0.1,0.1,0.2,0.1l0,0l0,0l0,0l0,0c0.1,0,0.2,0.1,0.2,0.1l0,0
				c0.1,0,0.3,0,0.4,0l0,0c0.4-0.1,0.6-0.5,0.7-0.8c0.1-0.3,0.1-0.7,0.1-1s0-0.7,0-0.9s0-0.4-0.1-0.4c0-0.2-0.2-0.4-0.4-0.4
				c-0.1,0-0.2,0-0.3,0.1c0,0-0.1,0.1-0.3,0.3s-0.4,0.4-0.6,0.7s-0.4,0.6-0.5,0.9C7.2,12.3,7.1,12.7,7.4,13.1L7.4,13.1z M16.1,13.1
				c0.1,0.1,0.2,0.2,0.3,0.3l0,0c0.1,0,0.1,0.1,0.2,0.1l0,0l0,0l0,0l0,0c0.1,0,0.2,0.1,0.2,0.1l0,0c0.1,0,0.3,0,0.4,0l0,0
				c0.4-0.1,0.6-0.5,0.7-0.8s0.1-0.7,0.1-1s0-0.7,0-0.9s0-0.4-0.1-0.4c0-0.2-0.2-0.4-0.4-0.4c-0.1,0-0.2,0-0.3,0.1
				c0,0-0.1,0.1-0.3,0.3s-0.4,0.4-0.6,0.7s-0.4,0.6-0.5,0.9C15.9,12.3,15.9,12.7,16.1,13.1L16.1,13.1z M24.9,13.1
				c0.1,0.1,0.2,0.2,0.3,0.3l0,0c0.1,0,0.1,0.1,0.2,0.1l0,0l0,0l0,0l0,0c0.1,0,0.2,0.1,0.2,0.1l0,0c0.1,0,0.3,0,0.4,0l0,0
				c0.4-0.1,0.6-0.5,0.7-0.8s0.1-0.7,0.1-1s0-0.7,0-0.9s0-0.4-0.1-0.4c0-0.2-0.2-0.4-0.4-0.4c-0.1,0-0.2,0-0.3,0.1
				c0,0-0.1,0.1-0.3,0.3s-0.4,0.4-0.6,0.7s-0.4,0.6-0.5,0.9C24.7,12.3,24.6,12.7,24.9,13.1L24.9,13.1z M33.6,13.1
				c0.1,0.1,0.2,0.2,0.3,0.3l0,0c0.1,0,0.1,0.1,0.2,0.1l0,0l0,0l0,0l0,0c0.1,0,0.2,0.1,0.2,0.1l0,0c0.1,0,0.3,0,0.4,0l0,0
				c0.4-0.1,0.6-0.5,0.7-0.8c0.1-0.3,0.1-0.7,0.1-1s0-0.7,0-0.9s0-0.4-0.1-0.4c0-0.2-0.2-0.4-0.4-0.4c-0.1,0-0.2,0-0.3,0.1
				c0,0-0.1,0.1-0.3,0.3s-0.4,0.4-0.6,0.7c-0.2,0.3-0.4,0.6-0.5,0.9C33.4,12.3,33.4,12.7,33.6,13.1L33.6,13.1z M12.8,7.6
				c0.1,0.1,0.2,0.2,0.3,0.3l0,0c0.1,0,0.1,0.1,0.2,0.1l0,0l0,0l0,0l0,0c0.1,0,0.2,0.1,0.2,0.1l0,0c0.1,0,0.3,0,0.4,0l0,0
				c0.4-0.1,0.6-0.5,0.7-0.8c0.1-0.3,0.1-0.7,0.1-1s0-0.7,0-0.9c0-0.2,0-0.4-0.1-0.4c0-0.2-0.2-0.4-0.4-0.4c-0.1,0-0.2,0-0.3,0.1
				c0,0-0.1,0.1-0.3,0.3S13.2,5.4,13,5.7c-0.2,0.3-0.4,0.6-0.5,0.9C12.6,6.8,12.6,7.2,12.8,7.6L12.8,7.6z M21.6,7.6
				c0.1,0.1,0.2,0.2,0.3,0.3l0,0C22,7.9,22,8,22.1,8l0,0l0,0l0,0l0,0c0.1,0,0.2,0.1,0.2,0.1l0,0c0.1,0,0.3,0,0.4,0l0,0
				c0.4-0.1,0.6-0.5,0.7-0.8s0.1-0.7,0.1-1s0-0.7,0-0.9c0-0.2,0-0.4-0.1-0.4c0-0.2-0.2-0.4-0.4-0.4c-0.1,0-0.2,0-0.3,0.1
				c0,0-0.1,0.1-0.3,0.3S22,5.4,21.8,5.7c-0.2,0.3-0.4,0.6-0.5,0.9C21.4,6.8,21.3,7.2,21.6,7.6L21.6,7.6z M30.3,7.6
				c0.1,0.1,0.2,0.2,0.3,0.3l0,0c0.1,0,0.1,0.1,0.2,0.1l0,0l0,0l0,0l0,0C31,8,31,8,31.1,8.1l0,0c0.1,0,0.3,0,0.4,0l0,0
				c0.4-0.1,0.6-0.5,0.7-0.8c0.1-0.3,0.1-0.7,0.1-1s0-0.7,0-0.9c0-0.2,0-0.4-0.1-0.4c0-0.2-0.2-0.4-0.4-0.4c-0.1,0-0.2,0-0.3,0.1
				c0,0-0.1,0.1-0.3,0.3c-0.2,0.2-0.4,0.4-0.6,0.7c-0.2,0.3-0.4,0.6-0.5,0.9S30.1,7.2,30.3,7.6L30.3,7.6z M8.1,30.9
				C7.5,30.9,7,33,7,33.6s0.5,1.1,1.1,1.1s1.1-0.5,1.1-1.1C9.2,33,8.7,30.9,8.1,30.9z M23.7,30.9c-0.6,0-1.1,2.1-1.1,2.7
				s0.5,1.1,1.1,1.1s1.1-0.5,1.1-1.1C24.8,33,24.3,30.9,23.7,30.9z"/>
		</g>
	</g>
</g>
<g id="tekst">
</g>
</svg>
