<?xml version="1.0" encoding="utf-8"?>
<!-- Generator: Adobe Illustrator 18.0.0, SVG Export Plug-In . SVG Version: 6.00 Build 0)  -->
<!DOCTYPE svg PUBLIC "-//W3C//DTD SVG 1.1//EN" "http://www.w3.org/Graphics/SVG/1.1/DTD/svg11.dtd" [
	<!ENTITY ns_extend "http://ns.adobe.com/Extensibility/1.0/">
	<!ENTITY ns_ai "http://ns.adobe.com/AdobeIllustrator/10.0/">
	<!ENTITY ns_graphs "http://ns.adobe.com/Graphs/1.0/">
	<!ENTITY ns_vars "http://ns.adobe.com/Variables/1.0/">
	<!ENTITY ns_imrep "http://ns.adobe.com/ImageReplacement/1.0/">
	<!ENTITY ns_sfw "http://ns.adobe.com/SaveForWeb/1.0/">
	<!ENTITY ns_custom "http://ns.adobe.com/GenericCustomNamespace/1.0/">
	<!ENTITY ns_adobe_xpath "http://ns.adobe.com/XPath/1.0/">
]>
<svg version="1.1" id="Lag_1" xmlns:x="&ns_extend;" xmlns:i="&ns_ai;" xmlns:graph="&ns_graphs;"
	 xmlns="http://www.w3.org/2000/svg" xmlns:xlink="http://www.w3.org/1999/xlink" x="0px" y="0px" width="40px" height="40px"
	 viewBox="0 0 40 40" enable-background="new 0 0 40 40" xml:space="preserve">
<metadata>
	<sfw  xmlns="&ns_sfw;">
		<slices></slices>
		<sliceSourceBounds  height="39.5" width="29.7" y="43.3" x="47.7" bottomLeftOrigin="true"></sliceSourceBounds>
		<optimizationSettings>
			<targetSettings  fileFormat="PNG24Format" targetSettingsID="0">
				<PNG24Format  transparency="true" interlaced="false" noMatteColor="false" filtered="false" matteColor="#FFFFFF">
					</PNG24Format>
			</targetSettings>
		</optimizationSettings>
	</sfw>
</metadata>
<g id="Lag_1_1_">
	<path fill="#464665" d="M34.5,5.5L16.6,0.2C16,0.1,15.4,0.4,15.2,1L5.8,33c-0.2,0.6,0.2,1.2,0.8,1.4l17.9,5.2
		c0.6,0.2,1.3-0.1,1.5-0.7l9.4-32C35.5,6.3,35.1,5.7,34.5,5.5z M22.3,3.9c0.1-0.2,0.2-0.3,0.4-0.3l5,1.5c0.1,0,0.2,0.2,0.1,0.5v0.1
		C27.7,5.9,27.6,6,27.4,6l-5-1.5c-0.1,0-0.2-0.2-0.1-0.5V3.9z M15.9,35.9c-1-0.3-1.6-1.3-1.3-2.2s1.3-1.5,2.3-1.2s1.6,1.3,1.3,2.2
		C17.9,35.7,16.9,36.2,15.9,35.9z M25.3,33.2L9.4,28.6l7.1-24.3L32.4,9L25.3,33.2z"/>
</g>
<g id="tekst">
</g>
</svg>
