<?xml version="1.0" encoding="utf-8"?>
<!-- Generator: Adobe Illustrator 18.0.0, SVG Export Plug-In . SVG Version: 6.00 Build 0)  -->
<!DOCTYPE svg PUBLIC "-//W3C//DTD SVG 1.1//EN" "http://www.w3.org/Graphics/SVG/1.1/DTD/svg11.dtd" [
	<!ENTITY ns_extend "http://ns.adobe.com/Extensibility/1.0/">
	<!ENTITY ns_ai "http://ns.adobe.com/AdobeIllustrator/10.0/">
	<!ENTITY ns_graphs "http://ns.adobe.com/Graphs/1.0/">
	<!ENTITY ns_vars "http://ns.adobe.com/Variables/1.0/">
	<!ENTITY ns_imrep "http://ns.adobe.com/ImageReplacement/1.0/">
	<!ENTITY ns_sfw "http://ns.adobe.com/SaveForWeb/1.0/">
	<!ENTITY ns_custom "http://ns.adobe.com/GenericCustomNamespace/1.0/">
	<!ENTITY ns_adobe_xpath "http://ns.adobe.com/XPath/1.0/">
]>
<svg version="1.1" id="Lag_1" xmlns:x="&ns_extend;" xmlns:i="&ns_ai;" xmlns:graph="&ns_graphs;"
	 xmlns="http://www.w3.org/2000/svg" xmlns:xlink="http://www.w3.org/1999/xlink" x="0px" y="0px" width="40px" height="40px"
	 viewBox="0 0 40 40" enable-background="new 0 0 40 40" xml:space="preserve">
<metadata>
	<sfw  xmlns="&ns_sfw;">
		<slices></slices>
		<sliceSourceBounds  height="38.6" width="38.6" y="43.7" x="42.7" bottomLeftOrigin="true"></sliceSourceBounds>
		<optimizationSettings>
			<targetSettings  fileFormat="PNG24Format" targetSettingsID="0">
				<PNG24Format  transparency="true" interlaced="false" noMatteColor="false" filtered="false" matteColor="#FFFFFF">
					</PNG24Format>
			</targetSettings>
		</optimizationSettings>
	</sfw>
</metadata>
<g id="Lag_1_1_">
	<path fill="#464665" d="M25.3,1.5C15-1.4,4.3,4.5,1.4,14.7s3,20.9,13.2,23.9c10.2,2.9,20.9-3,23.9-13.2S35.5,4.4,25.3,1.5z
		 M37.3,19.1l-6.4,0.3c-0.2-3.4-1.9-6.5-4.7-8.5l3.7-5.2C34.3,8.9,37,13.8,37.3,19.1z M17.5,28.5c-4.7-1.3-7.4-6.3-6.1-10.9
		s6.3-7.4,10.9-6.1s7.4,6.3,6.1,10.9S22.2,29.9,17.5,28.5z M19,2.7L19.4,9c-3.4,0.2-6.5,1.9-8.5,4.7L5.7,10C8.8,5.7,13.7,2.9,19,2.7
		z M2.6,20.9L9,20.6c0.2,3.4,1.9,6.5,4.7,8.5L10,34.3C5.6,31.2,2.8,26.3,2.6,20.9z M20.8,37.4L20.5,31c3.4-0.2,6.5-1.9,8.5-4.7
		l5.2,3.7C31.1,34.4,26.2,37.1,20.8,37.4z"/>
</g>
<g id="tekst">
</g>
</svg>
