<?xml version="1.0" encoding="utf-8"?>
<!-- Generator: Adobe Illustrator 18.0.0, SVG Export Plug-In . SVG Version: 6.00 Build 0)  -->
<!DOCTYPE svg PUBLIC "-//W3C//DTD SVG 1.1//EN" "http://www.w3.org/Graphics/SVG/1.1/DTD/svg11.dtd" [
	<!ENTITY ns_extend "http://ns.adobe.com/Extensibility/1.0/">
	<!ENTITY ns_ai "http://ns.adobe.com/AdobeIllustrator/10.0/">
	<!ENTITY ns_graphs "http://ns.adobe.com/Graphs/1.0/">
	<!ENTITY ns_vars "http://ns.adobe.com/Variables/1.0/">
	<!ENTITY ns_imrep "http://ns.adobe.com/ImageReplacement/1.0/">
	<!ENTITY ns_sfw "http://ns.adobe.com/SaveForWeb/1.0/">
	<!ENTITY ns_custom "http://ns.adobe.com/GenericCustomNamespace/1.0/">
	<!ENTITY ns_adobe_xpath "http://ns.adobe.com/XPath/1.0/">
]>
<svg version="1.1" id="Your_Icon" xmlns:x="&ns_extend;" xmlns:i="&ns_ai;" xmlns:graph="&ns_graphs;"
	 xmlns="http://www.w3.org/2000/svg" xmlns:xlink="http://www.w3.org/1999/xlink" x="0px" y="0px" width="40px" height="40px"
	 viewBox="0 0 40 40" enable-background="new 0 0 40 40" xml:space="preserve">
<metadata>
	<sfw  xmlns="&ns_sfw;">
		<slices></slices>
		<sliceSourceBounds  height="26" width="38.1" y="51.5" x="43" bottomLeftOrigin="true"></sliceSourceBounds>
		<optimizationSettings>
			<targetSettings  fileFormat="PNG24Format" targetSettingsID="0">
				<PNG24Format  transparency="true" interlaced="false" noMatteColor="false" filtered="false" matteColor="#FFFFFF">
					</PNG24Format>
			</targetSettings>
		</optimizationSettings>
	</sfw>
</metadata>
<path fill="#464665" d="M31.7,16.8c-0.4,0-0.9,0-1.3,0.1l-2.1-7.4c0.6-0.9,0.6-1.9,0.2-2.7c-0.4-0.8-1.2-1.3-2.2-1.3h-1.6
	c-0.4,0-0.8,0.3-0.8,0.8s0.3,0.8,0.8,0.8h1.6c0.4,0,0.7,0.2,0.9,0.4c0.2,0.4,0.1,0.9-0.3,1.4c-0.1,0.2-0.2,0.4-0.1,0.7l0.8,2.9H15.3
	l-0.4-1.2l2.3-0.8c0.4-0.1,0.6-0.5,0.5-0.9s-0.4-0.7-0.8-0.7h-5.8c-0.4,0-0.8,0.3-0.8,0.8c0,1.1,1.2,2,2.5,2c0.2,0,0.4,0,0.6-0.1
	l0.4,1.3l-2.5,4.3c-0.9-0.4-1.9-0.6-3-0.6c-4.1,0-7.4,3.3-7.4,7.4s3.3,7.4,7.4,7.4c3.8,0,6.9-2.9,7.3-6.6h0.6c0.3,0.7,1,1.2,1.8,1.2
	c1.1,0,1.9-0.9,1.9-1.9c0-0.2,0-0.4-0.1-0.6l8.5-7.9l0.5,1.7c-2.7,1.1-4.6,3.7-4.6,6.8c0,4.1,3.3,7.4,7.4,7.4s7.4-3.3,7.4-7.4
	S35.8,16.8,31.7,16.8z M14.5,15.1l2.4,7.6c-0.2,0.2-0.4,0.4-0.5,0.7h-0.6c-0.2-2.1-1.4-4-3-5.2L14.5,15.1z M14.2,23.3H9.8l2.2-3.8
	C13.2,20.4,14,21.8,14.2,23.3z M8.5,29.9c-3.2,0-5.8-2.6-5.8-5.8s2.6-5.8,5.8-5.8c0.8,0,1.5,0.2,2.2,0.4l-2.9,5
	c-0.1,0.2-0.1,0.5,0,0.8c0.1,0.2,0.4,0.4,0.7,0.4h5.8C13.8,27.7,11.4,29.9,8.5,29.9z M18.9,22.3c-0.2-0.1-0.4-0.1-0.6-0.1L15.8,14
	H28L18.9,22.3z M31.7,29.9c-3.2,0-5.8-2.6-5.8-5.8c0-2.4,1.4-4.4,3.5-5.3l1.6,5.5c0.1,0.3,0.4,0.6,0.7,0.6c0.1,0,0.1,0,0.2,0
	c0.4-0.1,0.6-0.5,0.5-1l-1.6-5.5c0.3,0,0.6-0.1,0.9-0.1c3.2,0,5.8,2.6,5.8,5.8S35,29.9,31.7,29.9z"/>
</svg>
