<?xml version="1.0" encoding="utf-8"?>
<!-- Generator: Adobe Illustrator 18.0.0, SVG Export Plug-In . SVG Version: 6.00 Build 0)  -->
<!DOCTYPE svg PUBLIC "-//W3C//DTD SVG 1.1//EN" "http://www.w3.org/Graphics/SVG/1.1/DTD/svg11.dtd" [
	<!ENTITY ns_extend "http://ns.adobe.com/Extensibility/1.0/">
	<!ENTITY ns_ai "http://ns.adobe.com/AdobeIllustrator/10.0/">
	<!ENTITY ns_graphs "http://ns.adobe.com/Graphs/1.0/">
	<!ENTITY ns_vars "http://ns.adobe.com/Variables/1.0/">
	<!ENTITY ns_imrep "http://ns.adobe.com/ImageReplacement/1.0/">
	<!ENTITY ns_sfw "http://ns.adobe.com/SaveForWeb/1.0/">
	<!ENTITY ns_custom "http://ns.adobe.com/GenericCustomNamespace/1.0/">
	<!ENTITY ns_adobe_xpath "http://ns.adobe.com/XPath/1.0/">
]>
<svg version="1.1" id="Lag_1" xmlns:x="&ns_extend;" xmlns:i="&ns_ai;" xmlns:graph="&ns_graphs;"
	 xmlns="http://www.w3.org/2000/svg" xmlns:xlink="http://www.w3.org/1999/xlink" x="0px" y="0px" width="40px" height="40px"
	 viewBox="0 0 40 40" enable-background="new 0 0 40 40" xml:space="preserve">
<metadata>
	<sfw  xmlns="&ns_sfw;">
		<slices></slices>
		<sliceSourceBounds  height="27.5" width="39" y="50" x="42.5" bottomLeftOrigin="true"></sliceSourceBounds>
		<optimizationSettings>
			<targetSettings  fileFormat="PNG24Format" targetSettingsID="0">
				<PNG24Format  transparency="true" interlaced="false" noMatteColor="false" filtered="false" matteColor="#FFFFFF">
					</PNG24Format>
			</targetSettings>
		</optimizationSettings>
	</sfw>
</metadata>
<g id="Lag_1_1_">
	<g>
		<g>
			<path fill="#464665" d="M12.7,15h-1.5v7.6h1.1c2.4,0,3.6-1.3,3.6-3.9C16.1,16.3,15,15,12.7,15z M20,5.5
				C9.2,5.5,0.5,11.6,0.5,19.2S9.2,33,20,33s19.5-6.1,19.5-13.7S30.8,5.5,20,5.5z M17.1,23.1c-1.1,1-2.7,1.5-4.7,1.5H9V12.8h3.7
				c1.9,0,3.4,0.5,4.5,1.6c1.1,1,1.6,2.4,1.6,4.2C18.7,20.7,18.1,22.1,17.1,23.1z M27.8,24.6l-3.1-4.8l-1.1,0.8v4.2h-2.4V12.9h2.4
				v5.5l1-1.5l3.2-4h2.7l-4,5.2l4.2,6.5C30.7,24.6,27.8,24.6,27.8,24.6z"/>
		</g>
	</g>
</g>
<g id="tekst">
</g>
</svg>
