<?xml version="1.0" encoding="utf-8"?>
<!-- Generator: Adobe Illustrator 18.0.0, SVG Export Plug-In . SVG Version: 6.00 Build 0)  -->
<!DOCTYPE svg PUBLIC "-//W3C//DTD SVG 1.1//EN" "http://www.w3.org/Graphics/SVG/1.1/DTD/svg11.dtd" [
	<!ENTITY ns_extend "http://ns.adobe.com/Extensibility/1.0/">
	<!ENTITY ns_ai "http://ns.adobe.com/AdobeIllustrator/10.0/">
	<!ENTITY ns_graphs "http://ns.adobe.com/Graphs/1.0/">
	<!ENTITY ns_vars "http://ns.adobe.com/Variables/1.0/">
	<!ENTITY ns_imrep "http://ns.adobe.com/ImageReplacement/1.0/">
	<!ENTITY ns_sfw "http://ns.adobe.com/SaveForWeb/1.0/">
	<!ENTITY ns_custom "http://ns.adobe.com/GenericCustomNamespace/1.0/">
	<!ENTITY ns_adobe_xpath "http://ns.adobe.com/XPath/1.0/">
]>
<svg version="1.1" id="Lag_1" xmlns:x="&ns_extend;" xmlns:i="&ns_ai;" xmlns:graph="&ns_graphs;"
	 xmlns="http://www.w3.org/2000/svg" xmlns:xlink="http://www.w3.org/1999/xlink" x="0px" y="0px" width="40px" height="40px"
	 viewBox="0 0 40 40" enable-background="new 0 0 40 40" xml:space="preserve">
<metadata>
	<sfw  xmlns="&ns_sfw;">
		<slices></slices>
		<sliceSourceBounds  height="39.8" width="35" y="43" x="44" bottomLeftOrigin="true"></sliceSourceBounds>
		<optimizationSettings>
			<targetSettings  fileFormat="PNG24Format" targetSettingsID="0">
				<PNG24Format  transparency="true" interlaced="false" noMatteColor="false" filtered="false" matteColor="#FFFFFF">
					</PNG24Format>
			</targetSettings>
		</optimizationSettings>
	</sfw>
</metadata>
<g id="Lag_1_1_">
	<g>
		<path fill="#464665" d="M27.6,8.3c-2,0-3.5,1.3-3.4,2.8c0.2,1.5,1.7,2.6,3.4,2.6c1.7,0,3.2-1.1,3.4-2.6
			C31.1,9.6,29.6,8.3,27.6,8.3z"/>
		<path fill="#464665" d="M20.9,13h0.4l0.2,0.2c0.4,0.5,1,1.2,1.5,1.6c-0.4-3-1.1-5.2-1.7-8.8C22.9,5.8,24,4.8,24,3
			c2.8-0.5,4.3-0.7,7.1,0c0.1,1.7,1,2.6,2.8,2.9c-0.7,4-1.4,6.2-1.9,9.7h1.7h0.1c0.7-4.3,2-7.7,3.1-13.1c0.1-0.3-0.2-0.7-0.7-0.8
			c-6.9-2-10.6-2-17.5,0C18.3,1.8,18,2.2,18,2.5c1,4.3,2,7.3,2.8,10.5C20.8,13,20.8,13,20.9,13z"/>
		<g>
			<path fill="#464665" d="M7.6,18.5H3.2C2.5,18.5,2,19,2,19.6v17.9c0,0.6,0.5,1.1,1.1,1.1h4.5c0.6,0,1.1-0.5,1.1-1.1V19.6
				C8.8,19,8.3,18.5,7.6,18.5z"/>
		</g>
		<path fill="#464665" d="M33.8,17.1c1.8,0.1,3.2,1.5,3.2,3.2c0,1.4-0.9,2.6-2.2,3c1.3,0.4,2.2,1.5,2.2,2.8c0,1.5-1.2,2.7-2.7,3
			c0.8,0.6,1.4,1.4,1.4,2.4c0,1.7-1.5,3-3.4,3h-0.6C32.5,35.2,33,36,33,37c0,1.7-1.5,3-3.4,3h-4c-8.4,0-8.9-3.6-15.5-4V19.8
			c8.1,0,6.7-5.4,10.8-5.4l0,0h-0.1c0,0,1.3,1.7,2.2,2.1l0,0c0.9,0.4,2.2,0.6,4.5,0.6H32H33.8z"/>
	</g>
</g>
<g id="tekst">
</g>
</svg>
