<?xml version="1.0" encoding="utf-8"?>
<!-- Generator: Adobe Illustrator 18.0.0, SVG Export Plug-In . SVG Version: 6.00 Build 0)  -->
<!DOCTYPE svg PUBLIC "-//W3C//DTD SVG 1.1//EN" "http://www.w3.org/Graphics/SVG/1.1/DTD/svg11.dtd" [
	<!ENTITY ns_extend "http://ns.adobe.com/Extensibility/1.0/">
	<!ENTITY ns_ai "http://ns.adobe.com/AdobeIllustrator/10.0/">
	<!ENTITY ns_graphs "http://ns.adobe.com/Graphs/1.0/">
	<!ENTITY ns_vars "http://ns.adobe.com/Variables/1.0/">
	<!ENTITY ns_imrep "http://ns.adobe.com/ImageReplacement/1.0/">
	<!ENTITY ns_sfw "http://ns.adobe.com/SaveForWeb/1.0/">
	<!ENTITY ns_custom "http://ns.adobe.com/GenericCustomNamespace/1.0/">
	<!ENTITY ns_adobe_xpath "http://ns.adobe.com/XPath/1.0/">
]>
<svg version="1.1" id="Lag_1" xmlns:x="&ns_extend;" xmlns:i="&ns_ai;" xmlns:graph="&ns_graphs;"
	 xmlns="http://www.w3.org/2000/svg" xmlns:xlink="http://www.w3.org/1999/xlink" x="0px" y="0px" width="40px" height="40px"
	 viewBox="0 0 40 40" enable-background="new 0 0 40 40" xml:space="preserve">
<metadata>
	<sfw  xmlns="&ns_sfw;">
		<slices></slices>
		<sliceSourceBounds  height="28.1" width="40" y="48.3" x="42.1" bottomLeftOrigin="true"></sliceSourceBounds>
		<optimizationSettings>
			<targetSettings  fileFormat="PNG24Format" targetSettingsID="0">
				<PNG24Format  transparency="true" interlaced="false" noMatteColor="false" filtered="false" matteColor="#FFFFFF">
					</PNG24Format>
			</targetSettings>
		</optimizationSettings>
	</sfw>
</metadata>
<g id="Lag_1_1_">
	<g>
		<g>
			<path fill="#464665" d="M39.8,20.5l-6-4.6l5.1-3.3c0.2-0.1,0.3-0.3,0.4-0.5c0.1-0.4,0-0.8-0.4-0.9L28.2,8.4l0,0
				c-0.3-0.1-0.5,0-0.7,0.1l-5.1,3.1l-6.1-5c-0.2-0.1-15.8,3.2-16,3.3C0,10.3,0,10.6,0.4,10.8L6.8,16l-5.3,5.6
				c-0.1,0.1-0.1,0.1-0.1,0.2c-0.2,0.4,0,0.8,0.4,1l9.7,3.8l6.2-6.9c0.1-0.1,0.3-0.1,0.4,0s0.1,0.3,0,0.4l-6.4,7.2l-4.5-1.9v5.8
				c0,0,0,0.3,0.4,0.4l10.2,3.1c0.1,0,0.2,0,0.3,0c0.1,0,0.1,0,0.2-0.1l14.4-3.3c0.4-0.1,0.9-0.4,0.9-0.8v-6.8l-7.4,1.7H26
				c-0.1,0-0.2,0-0.2-0.1L19,20.2c-0.1-0.1-0.1-0.2-0.1-0.4s0.2-0.1,0.4,0l6.8,5.2l13.4-3.2l0,0c0.2,0,0.3-0.1,0.4-0.3
				C40.2,21.2,40.1,20.8,39.8,20.5z M18.2,33.8c0,0.2-0.1,0.3-0.3,0.3c-0.2,0-0.3-0.1-0.3-0.3V22.4c0-0.2,0.1-0.3,0.3-0.3
				c0.2,0,0.3,0.1,0.3,0.3V33.8z M20.5,29.1l10.3-2.3v2.4l-10.3,2.3V29.1z M18.4,19.1L8,15.9l14.5-3.5l9.8,3.5L18.4,19.1z"/>
		</g>
	</g>
</g>
<g id="tekst">
</g>
</svg>
