<?xml version="1.0" encoding="utf-8"?>
<!-- Generator: Adobe Illustrator 18.0.0, SVG Export Plug-In . SVG Version: 6.00 Build 0)  -->
<!DOCTYPE svg PUBLIC "-//W3C//DTD SVG 1.1//EN" "http://www.w3.org/Graphics/SVG/1.1/DTD/svg11.dtd" [
	<!ENTITY ns_extend "http://ns.adobe.com/Extensibility/1.0/">
	<!ENTITY ns_ai "http://ns.adobe.com/AdobeIllustrator/10.0/">
	<!ENTITY ns_graphs "http://ns.adobe.com/Graphs/1.0/">
	<!ENTITY ns_vars "http://ns.adobe.com/Variables/1.0/">
	<!ENTITY ns_imrep "http://ns.adobe.com/ImageReplacement/1.0/">
	<!ENTITY ns_sfw "http://ns.adobe.com/SaveForWeb/1.0/">
	<!ENTITY ns_custom "http://ns.adobe.com/GenericCustomNamespace/1.0/">
	<!ENTITY ns_adobe_xpath "http://ns.adobe.com/XPath/1.0/">
]>
<svg version="1.1" id="Lag_1" xmlns:x="&ns_extend;" xmlns:i="&ns_ai;" xmlns:graph="&ns_graphs;"
	 xmlns="http://www.w3.org/2000/svg" xmlns:xlink="http://www.w3.org/1999/xlink" x="0px" y="0px" width="40px" height="40px"
	 viewBox="0 0 40 40" enable-background="new 0 0 40 40" xml:space="preserve">
<metadata>
	<sfw  xmlns="&ns_sfw;">
		<slices></slices>
		<sliceSourceBounds  height="38.9" width="38.9" y="43.8" x="42.6" bottomLeftOrigin="true"></sliceSourceBounds>
		<optimizationSettings>
			<targetSettings  fileFormat="PNG24Format" targetSettingsID="0">
				<PNG24Format  transparency="true" interlaced="false" noMatteColor="false" filtered="false" matteColor="#FFFFFF">
					</PNG24Format>
			</targetSettings>
		</optimizationSettings>
	</sfw>
</metadata>
<g id="Lag_1_1_">
	<g>
		<g>
			<g>
				<path fill="#464665" d="M3.2,9.3h33.7v27.2H3.2V9.3z M0.6,2.9v36.3h38.9V2.9h-5.2c0,1.7,0,3.5,0,5.2h-6.5c0-1.7,0-3.5,0-5.2
					H12.3c0,1.7,0,3.5,0,5.2H5.8c0-1.7,0-3.5,0-5.2C5.8,2.9,0.6,2.9,0.6,2.9z"/>
			</g>
			<g>
				<rect x="7.1" y="0.3" fill="#464665" width="3.9" height="6.5"/>
			</g>
			<g>
				<rect x="29.2" y="0.3" fill="#464665" width="3.9" height="6.5"/>
			</g>
			<g>
				<rect x="4.5" y="10.6" fill="#464665" width="5.2" height="5.2"/>
			</g>
			<g>
				<rect x="11" y="10.6" fill="#464665" width="5.2" height="5.2"/>
			</g>
			<g>
				<rect x="17.5" y="10.6" fill="#464665" width="5.2" height="5.2"/>
			</g>
			<g>
				<rect x="24" y="10.6" fill="#464665" width="5.2" height="5.2"/>
			</g>
			<g>
				<rect x="30.5" y="10.6" fill="#464665" width="5.2" height="5.2"/>
			</g>
			<g>
				<rect x="4.5" y="17.1" fill="#464665" width="5.2" height="5.2"/>
			</g>
			<g>
				<rect x="11" y="17.1" fill="#464665" width="5.2" height="5.2"/>
			</g>
			<g>
				<rect x="17.5" y="17.1" fill="#464665" width="5.2" height="5.2"/>
			</g>
			<g>
				<rect x="24" y="17.1" fill="#464665" width="5.2" height="5.2"/>
			</g>
			<g>
				<rect x="30.5" y="17.1" fill="#464665" width="5.2" height="5.2"/>
			</g>
			<g>
				<rect x="4.5" y="23.6" fill="#464665" width="5.2" height="5.2"/>
			</g>
			<g>
				<rect x="11" y="23.6" fill="#464665" width="5.2" height="5.2"/>
			</g>
			<g>
				<rect x="17.5" y="23.6" fill="#464665" width="5.2" height="5.2"/>
			</g>
			<g>
				<rect x="24" y="23.6" fill="#464665" width="5.2" height="5.2"/>
			</g>
			<g>
				<rect x="30.5" y="23.6" fill="#464665" width="5.2" height="5.2"/>
			</g>
			<g>
				<rect x="11" y="30.1" fill="#464665" width="5.2" height="5.2"/>
			</g>
		</g>
	</g>
</g>
<g id="tekst">
</g>
</svg>
