<?xml version="1.0" encoding="utf-8"?>
<svg version="1.1"  xmlns="http://www.w3.org/2000/svg" xmlns:xlink="http://www.w3.org/1999/xlink" x="0px" y="0px" width="40px" height="40px"
	 viewBox="0 0 40 40" enable-background="new 0 0 40 40" xml:space="preserve">
<g id="Lag_1">
	<g>
		<path d="M22.7,39.2h11.1c0.6,0,1.1-0.5,1.1-1.1V23.9H22.7V39.2z"/>
	</g>
	<g>
		<path d="M6,38.1c0,0.6,0.5,1.1,1.1,1.1h11.1V23.9H6V38.1z"/>
	</g>
	<g>
		<path d="M22,8.8c1.3-3,4.5-5.5,6.8-5.8c1.2-0.2,1.7,0.4,1.9,0.8c0.4,0.7,0.3,1.4-0.2,2.1C29.2,7.7,25.3,9,22,8.8z M10.4,5.9
			c-0.5-0.7-0.5-1.3-0.2-2.1C10.4,3.5,10.8,3,11.7,3c0.1,0,0.3,0,0.4,0c2.3,0.3,5.5,2.8,6.8,5.8C15.6,9,11.7,7.7,10.4,5.9z M36,10.8
			H25.4c2.9-0.5,5.6-1.9,6.9-3.6c1-1.4,1.1-2.9,0.3-4.4c-0.8-1.5-2.3-2.2-4.2-1.9c-2.7,0.4-6.2,2.9-8,6.1c-1.8-3.2-5.3-5.7-8-6.1
			c-1.8-0.2-3.4,0.5-4.2,1.9c-0.8,1.5-0.7,3,0.3,4.4c1.3,1.8,4,3.1,6.9,3.6H4.9c-0.6,0-1.1,0.5-1.1,1.1v5.6c0,0.6,0.5,1.1,1.1,1.1
			h13.4v-7.5v-0.3H20h1h1.7v0.3v7.5H36c0.6,0,1.1-0.5,1.1-1.1v-5.6C37.2,11.3,36.7,10.8,36,10.8z"/>
	</g>
</g>
</svg>
