<?xml version="1.0" encoding="utf-8"?>
<!-- Generator: Adobe Illustrator 18.0.0, SVG Export Plug-In . SVG Version: 6.00 Build 0)  -->
<!DOCTYPE svg PUBLIC "-//W3C//DTD SVG 1.1//EN" "http://www.w3.org/Graphics/SVG/1.1/DTD/svg11.dtd" [
	<!ENTITY ns_extend "http://ns.adobe.com/Extensibility/1.0/">
	<!ENTITY ns_ai "http://ns.adobe.com/AdobeIllustrator/10.0/">
	<!ENTITY ns_graphs "http://ns.adobe.com/Graphs/1.0/">
	<!ENTITY ns_vars "http://ns.adobe.com/Variables/1.0/">
	<!ENTITY ns_imrep "http://ns.adobe.com/ImageReplacement/1.0/">
	<!ENTITY ns_sfw "http://ns.adobe.com/SaveForWeb/1.0/">
	<!ENTITY ns_custom "http://ns.adobe.com/GenericCustomNamespace/1.0/">
	<!ENTITY ns_adobe_xpath "http://ns.adobe.com/XPath/1.0/">
]>
<svg version="1.1" id="Lag_1" xmlns:x="&ns_extend;" xmlns:i="&ns_ai;" xmlns:graph="&ns_graphs;"
	 xmlns="http://www.w3.org/2000/svg" xmlns:xlink="http://www.w3.org/1999/xlink" x="0px" y="0px" width="40px" height="40px"
	 viewBox="0 0 40 40" enable-background="new 0 0 40 40" xml:space="preserve">
<metadata>
	<sfw  xmlns="&ns_sfw;">
		<slices></slices>
		<sliceSourceBounds  height="38.5" width="33.4" y="-39.2" x="3.7" bottomLeftOrigin="true"></sliceSourceBounds>
	</sfw>
</metadata>
<g>
	<g>
		<path fill="#FFFFFF" d="M22.7,39.2h11.1c0.6,0,1.1-0.5,1.1-1.1V23.9H22.7V39.2z"/>
	</g>
	<g>
		<path fill="#FFFFFF" d="M6,38.1c0,0.6,0.5,1.1,1.1,1.1h11.1V23.9H6V38.1z"/>
	</g>
	<g>
		<path fill="#FFFFFF" d="M22,8.8c1.3-3,4.5-5.5,6.8-5.8c1.2-0.2,1.7,0.4,1.9,0.8c0.4,0.7,0.3,1.4-0.2,2.1C29.2,7.7,25.3,9,22,8.8z
			 M10.4,5.9c-0.5-0.7-0.5-1.3-0.2-2.1C10.4,3.5,10.8,3,11.7,3c0.1,0,0.3,0,0.4,0c2.3,0.3,5.5,2.8,6.8,5.8C15.6,9,11.7,7.7,10.4,5.9
			z M36,10.8H25.4c2.9-0.5,5.6-1.9,6.9-3.6c1-1.4,1.1-2.9,0.3-4.4c-0.8-1.5-2.3-2.2-4.2-1.9c-2.7,0.4-6.2,2.9-8,6.1
			c-1.8-3.2-5.3-5.7-8-6.1c-1.8-0.2-3.4,0.5-4.2,1.9c-0.8,1.5-0.7,3,0.3,4.4c1.3,1.8,4,3.1,6.9,3.6H4.9c-0.6,0-1.1,0.5-1.1,1.1v5.6
			c0,0.6,0.5,1.1,1.1,1.1h13.4v-7.5v-0.3H20h1h1.7v0.3v7.5H36c0.6,0,1.1-0.5,1.1-1.1v-5.6C37.2,11.3,36.7,10.8,36,10.8z"/>
	</g>
</g>
</svg>
