<?xml version="1.0" encoding="utf-8"?>
<!-- Generator: Adobe Illustrator 18.0.0, SVG Export Plug-In . SVG Version: 6.00 Build 0)  -->
<!DOCTYPE svg PUBLIC "-//W3C//DTD SVG 1.1//EN" "http://www.w3.org/Graphics/SVG/1.1/DTD/svg11.dtd" [
	<!ENTITY ns_extend "http://ns.adobe.com/Extensibility/1.0/">
	<!ENTITY ns_ai "http://ns.adobe.com/AdobeIllustrator/10.0/">
	<!ENTITY ns_graphs "http://ns.adobe.com/Graphs/1.0/">
	<!ENTITY ns_vars "http://ns.adobe.com/Variables/1.0/">
	<!ENTITY ns_imrep "http://ns.adobe.com/ImageReplacement/1.0/">
	<!ENTITY ns_sfw "http://ns.adobe.com/SaveForWeb/1.0/">
	<!ENTITY ns_custom "http://ns.adobe.com/GenericCustomNamespace/1.0/">
	<!ENTITY ns_adobe_xpath "http://ns.adobe.com/XPath/1.0/">
]>
<svg version="1.1" id="Lag_1" xmlns:x="&ns_extend;" xmlns:i="&ns_ai;" xmlns:graph="&ns_graphs;"
	 xmlns="http://www.w3.org/2000/svg" xmlns:xlink="http://www.w3.org/1999/xlink" x="0px" y="0px" width="40px" height="40px"
	 viewBox="0 0 40 40" enable-background="new 0 0 40 40" xml:space="preserve">
<metadata>
	<sfw  xmlns="&ns_sfw;">
		<slices></slices>
		<sliceSourceBounds  height="36.8" width="37.2" y="44.6" x="43.7" bottomLeftOrigin="true"></sliceSourceBounds>
		<optimizationSettings>
			<targetSettings  fileFormat="PNG24Format" targetSettingsID="0">
				<PNG24Format  transparency="true" interlaced="false" noMatteColor="false" filtered="false" matteColor="#FFFFFF">
					</PNG24Format>
			</targetSettings>
		</optimizationSettings>
	</sfw>
</metadata>
<g>
	<path fill="#464665" d="M21,3.5c0-0.5-0.2-1-0.6-1.3c-0.3-0.3-0.8-0.6-1.3-0.6h-8.3c-0.5,0-1,0.2-1.3,0.6C9.2,2.5,9,2.9,9,3.5v2.8
		C9,6.7,9.3,7,9.7,7h0.9c0.4,0,0.7-0.3,0.7-0.7V3.9h7.4v2.3c0,0.4,0.3,0.7,0.7,0.7h0.9c0.4,0,0.7-0.3,0.7-0.7V3.5L21,3.5z"/>
</g>
<g>
	<path fill="#464665" d="M16.4,10.7h-1.2c-0.1,0.3-0.2,0.7-0.3,1s-0.2,0.6-0.4,0.8l-0.2-0.2h-2.1L6,18.6l1.9,1.9l1.9,1.9l6.3-6.3V14
		l-0.7-0.7c0.2-0.4,0.4-0.9,0.6-1.3C16.2,11.6,16.3,11.2,16.4,10.7z M13.9,15.4c-0.2,0.2-0.6,0.2-0.8,0s-0.2-0.6,0-0.8
		c0.3-0.3,0.6-0.6,0.9-1c-0.5-0.2-1.1-0.1-1.5,0.4c-0.6,0.6-0.6,1.5,0,2.1c0.6,0.6,1.5,0.6,2.1,0c0.4-0.4,0.5-1.1,0.3-1.6
		C14.5,14.7,14.2,15.1,13.9,15.4z M24.9,9c1.9,0,3.4,1.5,3.4,3.4c0,5.1,0,7.4,0,12.5c0,1.9-1.5,3.4-3.4,3.4h-1.1v0.6
		c0,0.3-0.3,0.6-0.6,0.6H22c-0.3,0-0.6-0.3-0.6-0.6v-0.6h-13v0.6c0,0.3-0.3,0.6-0.6,0.6H6.7c-0.3,0-0.6-0.3-0.6-0.6v-0.6h-1
		c-1.9,0-3.4-1.5-3.4-3.4V12.3C1.7,10.5,3.3,9,5.1,9H9c0-0.3,0.3-0.7,0.5-0.9h1.2C11,8.3,11.3,8.5,11.3,9h7.4c0-0.3,0.3-0.7,0.5-0.9
		h1.2C20.7,8.3,21,8.5,21.1,9C22.8,9,23.1,9,24.9,9z M8.3,34.2c-0.3-0.3-0.6-0.4-1-0.4s-0.8,0.2-1,0.4c-0.3,0.3-0.4,0.6-0.4,1
		s0.2,0.8,0.4,1c0.3,0.3,0.6,0.4,1,0.4s0.8-0.2,1-0.4c0.3-0.3,0.4-0.6,0.4-1S8.5,34.5,8.3,34.2z M23.7,34.2c-0.3-0.3-0.6-0.4-1-0.4
		s-0.8,0.2-1,0.4c-0.3,0.3-0.4,0.6-0.4,1s0.2,0.8,0.4,1c0.3,0.3,0.6,0.4,1,0.4s0.8-0.2,1-0.4c0.3-0.3,0.4-0.6,0.4-1
		S23.9,34.5,23.7,34.2z M2.6,32.8c-0.5,0-0.9-0.4-0.9-0.9c0-0.5,0.4-0.9,0.9-0.9h23.8c2.6,0,4.6-2.1,4.6-4.6V9.1
		c0-1.2,0.5-2.3,1.4-3.2c0.1-0.3,0.2-0.6,0.5-0.8l4.2-2.7c0.5-0.3,1.3-0.2,1.6,0.3s0.2,1.3-0.3,1.6L34.2,7c-0.2,0.1-0.4,0.2-0.7,0.2
		C33,7.7,32.8,8.3,32.8,9v17.3c0,3.5-2.9,6.4-6.4,6.4h-1.7c0.1,0.1,0.2,0.1,0.2,0.2c0.6,0.6,0.9,1.4,0.9,2.3c0,0.9-0.4,1.7-0.9,2.3
		c-0.6,0.6-1.4,0.9-2.3,0.9s-1.7-0.4-2.3-0.9c-0.6-0.6-0.9-1.4-0.9-2.3c0-0.9,0.4-1.7,0.9-2.3c0.1-0.1,0.2-0.1,0.2-0.2H9.3
		c0.1,0.1,0.2,0.1,0.2,0.2c0.6,0.6,0.9,1.4,0.9,2.3c0,0.9-0.4,1.7-0.9,2.3c-0.6,0.6-1.4,0.9-2.3,0.9S5.6,38.1,5,37.5
		s-0.9-1.4-0.9-2.3c0-0.9,0.4-1.7,0.9-2.3c0.1-0.1,0.2-0.1,0.2-0.2L2.6,32.8L2.6,32.8z"/>
</g>
</svg>
