<?xml version="1.0" encoding="utf-8"?>
<!-- Generator: Adobe Illustrator 18.0.0, SVG Export Plug-In . SVG Version: 6.00 Build 0)  -->
<!DOCTYPE svg PUBLIC "-//W3C//DTD SVG 1.1//EN" "http://www.w3.org/Graphics/SVG/1.1/DTD/svg11.dtd" [
	<!ENTITY ns_extend "http://ns.adobe.com/Extensibility/1.0/">
	<!ENTITY ns_ai "http://ns.adobe.com/AdobeIllustrator/10.0/">
	<!ENTITY ns_graphs "http://ns.adobe.com/Graphs/1.0/">
	<!ENTITY ns_vars "http://ns.adobe.com/Variables/1.0/">
	<!ENTITY ns_imrep "http://ns.adobe.com/ImageReplacement/1.0/">
	<!ENTITY ns_sfw "http://ns.adobe.com/SaveForWeb/1.0/">
	<!ENTITY ns_custom "http://ns.adobe.com/GenericCustomNamespace/1.0/">
	<!ENTITY ns_adobe_xpath "http://ns.adobe.com/XPath/1.0/">
]>
<svg version="1.1" id="Lag_1" xmlns:x="&ns_extend;" xmlns:i="&ns_ai;" xmlns:graph="&ns_graphs;"
	 xmlns="http://www.w3.org/2000/svg" xmlns:xlink="http://www.w3.org/1999/xlink" x="0px" y="0px" width="40px" height="40px"
	 viewBox="0 0 40 40" enable-background="new 0 0 40 40" xml:space="preserve">
<metadata>
	<sfw  xmlns="&ns_sfw;">
		<slices></slices>
		<sliceSourceBounds  height="32.5" width="38.7" y="47.1" x="42.7" bottomLeftOrigin="true"></sliceSourceBounds>
		<optimizationSettings>
			<targetSettings  fileFormat="PNG24Format" targetSettingsID="0">
				<PNG24Format  transparency="true" interlaced="false" noMatteColor="false" filtered="false" matteColor="#FFFFFF">
					</PNG24Format>
			</targetSettings>
		</optimizationSettings>
	</sfw>
</metadata>
<g id="Lag_1_1_">
</g>
<g id="tekst">
	<g>
		<g>
			<path fill="#464665" d="M38.9,3.7c-0.3-0.1-0.4-0.3-0.6-0.3c-0.1,0-0.4,0-0.5,0.1l-8.2,4l-0.1,0.1l-0.1-0.1l-8.1-4
				c-0.1-0.1-0.4-0.1-0.5-0.1c-0.3,0-0.4,0.1-0.6,0.1c-0.1-0.1-0.4-0.1-0.6-0.1c-0.1,0-0.4,0-0.5,0.1l-8.1,4l-0.1,0.1l-0.1-0.1
				l-8.2-4C2.4,3.4,2.2,3.4,2.1,3.4c-0.3,0-0.5,0.1-0.8,0.3C0.9,4,0.7,4.3,0.7,4.9v25.6c0,0.6,0.4,1.1,0.8,1.3l8.2,4
				c0.1,0.1,0.4,0.1,0.5,0.1c0.3,0,0.4-0.1,0.6-0.1c0.1,0.1,0.4,0.1,0.6,0.1c0.1,0,0.4,0,0.5-0.1l8.1-4l0.1-0.1l0.1,0.1l8.1,4
				c0.1,0.1,0.4,0.1,0.5,0.1c0.3,0,0.4-0.1,0.6-0.1c0.1,0.1,0.4,0.1,0.6,0.1c0.1,0,0.4,0,0.5-0.1l8.1-4c0.5-0.3,0.8-0.8,0.8-1.3V4.9
				C39.4,4.4,39.3,4,38.9,3.7z M28.6,8.9c0-0.1,0.1-0.4,0.4-0.4c0.1,0,0.4,0.1,0.4,0.4v13.5c0,0.1-0.1,0.4-0.4,0.4
				c-0.1,0-0.4-0.1-0.4-0.4V8.9z M19.3,4.9c0-0.1,0.1-0.4,0.4-0.4c0.2,0,0.4,0.1,0.4,0.4v10c0,0.1-0.1,0.4-0.4,0.4
				c-0.2,0-0.4-0.1-0.4-0.4V4.9z M9.8,9.6c0-0.1,0.1-0.4,0.4-0.4c0.1,0,0.4,0.1,0.4,0.4v3.3c0,0.1-0.1,0.4-0.4,0.4
				c-0.1,0-0.4-0.1-0.4-0.4V9.6z M6.4,29c-0.8,0-1.6-0.8-1.6-1.8c0-0.9,0.6-1.8,1.6-1.8c0.8,0,1.6,0.8,1.6,1.8C8,28.3,7.3,29,6.4,29
				z M7.9,24.1c-0.1,0.6-0.3,1-0.4,1.3L6.4,25c0.1-0.1,0.1-0.6,0.4-1.2c0.1-0.3,0.1-0.6,0.3-0.9l1.3,0.4C8,23.5,8,23.9,7.9,24.1z
				 M8.3,22.4L7,22c0.3-0.8,0.4-1.5,0.6-2.2l1.2,0.5C8.7,21.1,8.5,21.7,8.3,22.4z M9.2,19.6L8,19c0.3-0.8,0.6-1.4,0.9-2.1l1.1,0.8
				C9.8,18.3,9.5,18.9,9.2,19.6z M10.5,34.5c0,0.1-0.1,0.4-0.4,0.4c-0.1,0-0.4-0.1-0.4-0.4V19.7c0-0.1,0.1-0.4,0.4-0.4
				c0.1,0,0.4,0.1,0.4,0.4V34.5z M10.5,17l-1.1-0.8c0.4-0.6,0.9-1.3,1.4-1.8l0.8,1.1C11.3,15.8,10.9,16.4,10.5,17z M12.3,14.9
				l-0.8-1.2c0.6-0.5,1.3-0.8,2-1l0.4,1.3C13.4,14.4,12.8,14.6,12.3,14.9z M16.3,14.1C15.9,14,15.5,14,15.1,14c-0.1,0-0.4,0-0.5,0.1
				l-0.1-1.4c0.1,0,0.4-0.1,0.6-0.1c0.1,0,0.1,0,0.3,0c0.5,0,1,0.1,1.4,0.3L16.3,14.1z M16.9,14.4l0.6-1.2c0.6,0.4,1.2,1,1.6,1.8
				L18,15.8C17.8,15.1,17.3,14.7,16.9,14.4z M19.7,15.8c0.4,0.8,0.6,1.5,0.8,2.1l-1.2,0.5c-0.1-0.6-0.4-1.3-0.8-1.9L19.7,15.8z
				 M19.9,31.1c0,0.1-0.1,0.4-0.4,0.4c-0.1,0-0.4-0.1-0.4-0.4v-7.3c0-0.1,0.1-0.4,0.4-0.4c0.1,0,0.4,0.1,0.4,0.4V31.1z M19.6,19.3
				L19.6,19.3l1.3-0.6v0.1c0.3,0.6,0.4,1.3,0.6,1.9l-1.2,0.5C20,20.6,19.8,19.9,19.6,19.3z M20.6,22.1l1.2-0.6
				c0.4,0.6,0.6,1.3,1,1.8l-1,0.9C21.4,23.5,20.9,22.9,20.6,22.1z M24.4,26.1c-0.8-0.3-1.4-0.6-2-1.3l0.8-1c0.4,0.4,0.9,0.8,1.5,0.9
				L24.4,26.1z M26.2,26.3c-0.1,0-0.1,0-0.3,0c-0.3,0-0.4,0-0.6-0.1l0.1-1.4c0.1,0,0.4,0,0.5,0.1c0.1,0,0.1,0,0.1,0
				c0.4,0,0.6-0.1,1-0.1l0.4,1.3C27.1,26.3,26.6,26.3,26.2,26.3z M29.3,35.2c0,0.1-0.1,0.4-0.4,0.4c-0.1,0-0.4-0.1-0.4-0.4v-8.1
				c0-0.1,0.1-0.4,0.4-0.4c0.1,0,0.4,0.1,0.4,0.4V35.2z M28.3,25.8l-0.5-1.3c0.5-0.3,1-0.6,1.5-1.1l0.9,1C29.6,25,29,25.6,28.3,25.8
				z M30.8,23.8l-1-0.9c0.4-0.5,0.8-1,1.1-1.7L32,22C31.7,22.6,31.2,23.2,30.8,23.8z M32.5,21.1l-1.2-0.6c0.3-0.6,0.6-1.3,0.8-1.9
				l1.2,0.5C33.1,19.8,32.7,20.4,32.5,21.1z M33.6,18.2l-1.3-0.5c0.3-0.6,0.4-1.3,0.6-2l1.3,0.4C34.1,16.8,33.9,17.5,33.6,18.2z
				 M34.5,15.2l-1.3-0.4c0.1-0.6,0.4-1.4,0.5-2.1L35,13C34.8,13.8,34.7,14.5,34.5,15.2z M36.3,10.5L35.7,11l0.5,0.8
				c0.3,0.4,0.1,0.8-0.1,1c-0.4,0.3-0.8,0.1-0.9-0.1l-0.5-0.8l-0.8,0.6c-0.4,0.3-0.8,0.1-0.9-0.1c-0.3-0.4-0.1-0.8,0.1-1l0.8-0.6
				L33.4,10c-0.3-0.4-0.1-0.8,0.1-1c0.4-0.3,0.8-0.1,0.9,0.1l0.5,0.8l0.6-0.5c0.4-0.3,0.8-0.1,0.9,0.1C36.7,9.8,36.7,10.3,36.3,10.5
				z"/>
		</g>
	</g>
</g>
</svg>
