<?xml version="1.0" encoding="utf-8"?>
<svg version="1.1" id="Lag_1" xmlns="http://www.w3.org/2000/svg" xmlns:xlink="http://www.w3.org/1999/xlink" x="0px" y="0px"
	 width="30px" height="180px" viewBox="0 0 30 180" style="enable-background:new 0 0 30 180;" xml:space="preserve">
<path fill="#ffffff" d="M0,0v30h30V0H0z M26.5,26.5h-8.3V16.2h2.9l0.3-3.6h-3.3v-2.2c0-0.9,0.5-1,0.9-1h2.3V5.8h-3.2
	c-3.6,0-4.3,2.6-4.3,4.3v2.4h-2v3.6h2v10.3H3.5v-23h2.3h18.5h2.2V26.5z"/>
<path fill="#ffffff" d="M0,30v30h30V30H0z M24,40.4c0,0.2,0,0.3,0,0.6c0,6-4.5,13-13,13c-2.6,0-5-0.7-7-2C4.4,52,4.7,52,5.1,52
	c2.1,0,4.1-0.7,5.7-1.9c-2-0.1-3.7-1.4-4.3-3.2C6.8,47,7.1,47,7.3,47c0.4,0,0.9,0,1.2-0.1c-2.1-0.5-3.7-2.2-3.7-4.5
	c0.6,0.3,1.3,0.6,2,0.6c-1.2-0.8-2-2.2-2-3.8c0-0.8,0.2-1.6,0.6-2.2c2.2,2.7,5.6,4.5,9.4,4.7c-0.1-0.4-0.1-0.7-0.1-1.1
	c0-2.5,2-4.5,4.5-4.5c1.3,0,2.5,0.6,3.3,1.4c1-0.1,2.1-0.6,2.9-1.1c-0.3,1-1,1.9-2,2.5c0.9-0.1,1.8-0.3,2.6-0.7
	C25.4,39.2,24.6,40,24,40.4z"/>
<g>
	<path fill="#ffffff" d="M15,79.1c2.2,0,4.1-1.8,4.1-4.1c0-0.9-0.2-1.7-0.7-2.3C17.6,71.6,16.4,71,15,71s-2.6,0.7-3.3,1.7
		c-0.5,0.6-0.7,1.5-0.7,2.3C10.9,77.3,12.8,79.1,15,79.1z"/>
	<polygon fill="#ffffff" points="23.8,66.8 23.8,66.2 23.3,66.2 19.9,66.2 19.9,70.2 23.8,70.2 	"/>
	<path fill="#ffffff" d="M24,72.7h-3.4c0.4,0.7,0.5,1.5,0.5,2.3c0,3.4-2.8,6.2-6.2,6.2c-3.4,0-6.2-2.8-6.2-6.2c0-0.9,0.3-1.6,0.5-2.3
		H5.7v9.4c0,1.3,1,2.2,2.2,2.2h14.2c1.3,0,2.2-1,2.2-2.2H24V72.7z"/>
	<path fill="#ffffff" d="M0,60v30h30V60H0z M26.5,72.6V82c0,2.5-1.9,4.4-4.4,4.4H7.9c-2.5,0-4.4-1.9-4.4-4.4v-9.4V68
		c0-2.5,1.9-4.4,4.4-4.4h14.2c2.5,0,4.4,1.9,4.4,4.5V72.6z"/>
</g>
<g>
	<path fill="#ffffff" d="M15.8,107c0-0.4,0-0.6,0.1-0.9c0.4-0.7,0.9-1.3,1.9-1.3c1.3,0,1.7,1,1.7,2.3v5.5h3.4L23,107
		c0-3.2-1.7-4.6-4.1-4.6c-1.9,0-2.7,1-3.2,1.7v-1.4h-3.4c0,0.9,0,10.3,0,10.3h3.5V107z"/>
	<rect x="7" y="102.3" fill="#ffffff" width="3.4" height="10.4"/>
	<path fill="#ffffff" d="M8.7,100.8c1.2,0,1.9-0.8,1.9-1.9c0-1.1-0.8-1.9-1.9-1.9S6.8,98,6.8,99C6.8,100,7.4,100.8,8.7,100.8z"/>
	<path fill="#ffffff" d="M0,90v30h30V90H0z M26.5,95.2v19.7c0,1,0,1.7,0,1.7h-23c0,0,0-0.9,0-1.6V95.2v-1.7h23V95.2z"/>
</g>
<path fill="#ffffff" d="M0,120v30h30v-30H0z M16.7,139.9c-1.4,0-2.7-0.8-3.1-1.7c0,0-0.8,2.9-0.9,3.5c-0.6,2.1-2.2,4.1-2.3,4.2
	s-0.3,0-0.3-0.1c-0.1-0.2-0.4-2.7,0-4.8c0.2-1,1.7-7,1.7-7s-0.3-0.8-0.3-2c0-1.9,1.1-3.2,2.5-3.2c1.2,0,1.8,0.8,1.8,1.9
	c0,1.2-0.8,2.9-1.2,4.6c-0.3,1.4,0.7,2.5,2,2.5c2.3,0,4-3.1,4-6.8c0-2.8-1.9-4.9-5.3-4.9c-3.7,0-6.2,2.9-6.2,6.1
	c0,1.1,0.4,1.9,0.8,2.5c0.2,0.3,0.3,0.4,0.2,0.7c0,0.2-0.1,0.8-0.2,1c0,0.3-0.4,0.4-0.6,0.3c-1.8-0.7-2.6-2.6-2.6-4.8
	c0-3.6,3.1-7.9,9.1-7.9c4.9,0,8,3.5,8,7.3C23.6,136.2,20.7,139.9,16.7,139.9z"/>
<g>
	<path fill="#ffffff" d="M23.4,159.6c-0.8-0.9-1.5-0.9-1.9-0.9c-2.6-0.2-6.4-0.2-6.4-0.2s-3.9,0-6.4,0.2c-0.2,0.1-1,0.1-1.8,0.9
		c-0.6,0.5-0.8,1.9-0.8,1.9s-0.1,1.6-0.1,3.1v1.5c0,1.6,0.1,3.1,0.1,3.1s0.3,1.2,0.8,1.8c0.8,0.9,1.6,0.8,2,0.9
		c1.4,0.2,6.2,0.2,6.2,0.2s3.9,0,6.4-0.2c0.4-0.1,1.1-0.1,1.9-0.9c0.6-0.5,0.8-1.9,0.8-1.9s0.1-1.6,0.1-3.1v-1.5
		c0-1.6-0.1-3.1-0.1-3.1S24,160.2,23.4,159.6z M12.9,168.5v-6.8l5.6,3.4L12.9,168.5z"/>
	<path fill="#ffffff" d="M0,150v30h30v-30H0z M26.5,174.3c0,1.2-1,2.2-2.2,2.2H5.7c-1.2,0-2.2-1-2.2-2.2v-18.5c0-1.3,1-2.3,2.3-2.3
		h18.5c1.3,0,2.3,1,2.2,2.3V174.3z"/>
</g>
</svg>
