<?xml version="1.0" encoding="utf-8"?>
<!-- Generator: Adobe Illustrator 18.0.0, SVG Export Plug-In . SVG Version: 6.00 Build 0)  -->
<!DOCTYPE svg PUBLIC "-//W3C//DTD SVG 1.1//EN" "http://www.w3.org/Graphics/SVG/1.1/DTD/svg11.dtd" [
	<!ENTITY ns_extend "http://ns.adobe.com/Extensibility/1.0/">
	<!ENTITY ns_ai "http://ns.adobe.com/AdobeIllustrator/10.0/">
	<!ENTITY ns_graphs "http://ns.adobe.com/Graphs/1.0/">
	<!ENTITY ns_vars "http://ns.adobe.com/Variables/1.0/">
	<!ENTITY ns_imrep "http://ns.adobe.com/ImageReplacement/1.0/">
	<!ENTITY ns_sfw "http://ns.adobe.com/SaveForWeb/1.0/">
	<!ENTITY ns_custom "http://ns.adobe.com/GenericCustomNamespace/1.0/">
	<!ENTITY ns_adobe_xpath "http://ns.adobe.com/XPath/1.0/">
]>
<svg version="1.1" id="Lag_1" xmlns:x="&ns_extend;" xmlns:i="&ns_ai;" xmlns:graph="&ns_graphs;"
	 xmlns="http://www.w3.org/2000/svg" xmlns:xlink="http://www.w3.org/1999/xlink" x="0px" y="0px" width="40px" height="40px"
	 viewBox="0 0 40 40" enable-background="new 0 0 40 40" xml:space="preserve">
<metadata>
	<sfw  xmlns="&ns_sfw;">
		<slices></slices>
		<sliceSourceBounds  height="35" width="40" y="46" x="42" bottomLeftOrigin="true"></sliceSourceBounds>
		<optimizationSettings>
			<targetSettings  fileFormat="PNG24Format" targetSettingsID="0">
				<PNG24Format  transparency="true" interlaced="false" noMatteColor="false" filtered="false" matteColor="#FFFFFF">
					</PNG24Format>
			</targetSettings>
		</optimizationSettings>
	</sfw>
</metadata>
<g id="Lag_1_1_">
	<g>
		<g>
			<path fill="#464665" d="M39.7,35H38V16.1c0-0.2-0.1-0.4-0.3-0.3L28.4,21c-0.2,0.1-0.4,0-0.4-0.3V16c0-0.2-0.2-0.4-0.4-0.3
				l-9.1,5.2c-0.2,0.1-0.4,0-0.4-0.3v-4.7c0-0.2-0.2-0.4-0.4-0.3l-9.2,5.2c-0.2,0.1-0.4,0-0.4-0.2L7,2.1C7,1.9,6.8,2,6.7,2H3
				C2.9,2,2.7,1.9,2.7,2.1L1.7,35H0.3C0.1,35,0,35.1,0,35.3v1.4C0,36.9,0.1,37,0.3,37h39.4c0.2,0,0.3-0.1,0.3-0.3v-1.4
				C40,35.1,39.9,35,39.7,35z M14,30.7c0,0.2-0.1,0.3-0.3,0.3H9.3C9.1,31,9,30.9,9,30.7v-4.4C9,26.1,9.1,26,9.3,26h4.4
				c0.2,0,0.3,0.1,0.3,0.3C14,26.3,14,30.7,14,30.7z M24,30.7c0,0.2-0.1,0.3-0.3,0.3h-4.4c-0.2,0-0.3-0.1-0.3-0.3v-4.4
				c0-0.2,0.1-0.3,0.3-0.3h4.4c0.2,0,0.3,0.1,0.3,0.3V30.7z M34,30.7c0,0.2-0.1,0.3-0.3,0.3h-4.4c-0.2,0-0.3-0.1-0.3-0.3v-4.4
				c0-0.2,0.1-0.3,0.3-0.3h4.4c0.2,0,0.3,0.1,0.3,0.3V30.7z"/>
		</g>
	</g>
</g>
<g id="tekst">
</g>
</svg>
