<?xml version="1.0" encoding="utf-8"?>
<svg version="1.1"  xmlns="http://www.w3.org/2000/svg" xmlns:xlink="http://www.w3.org/1999/xlink" x="0px" y="0px" width="40px" height="40px"
	 viewBox="0 0 40 40" enable-background="new 0 0 40 40" xml:space="preserve">
<g id="Lag_1">
	<path d="M35.9,1H7.3L17,5.9h16.4v2.4H21.9l3.2,1.6c1.3,0.6,2.4,1.9,3,3.3h5.4v2.4h-4.8v12.1h7.3c1.3,0,2.4-1.1,2.4-2.4V3.4
		C38.3,2.1,37.2,1,35.9,1"/>
</g>
<g>
	<path d="M18.9,27.7c-1.3,0-2.4-1.6-2.4-3.6c0-2,1.1-3.6,2.4-3.6s2.4,1.6,2.4,3.6C21.3,26,20.2,27.7,18.9,27.7 M24,12L4.1,2.1
		C3.8,1.9,3.5,1.9,3.2,1.9c-0.8,0-1.3,0.6-1.3,1.6v21.8c0,1.3,1,2.9,2.2,3.5l19.9,10c0.3,0.2,0.6,0.2,0.9,0.2c0.8,0,1.3-0.6,1.3-1.6
		V15.6C26.2,14.2,25.2,12.6,24,12"/>
</g>
</svg>
