<?xml version="1.0" encoding="utf-8"?>
<!-- Generator: Adobe Illustrator 18.0.0, SVG Export Plug-In . SVG Version: 6.00 Build 0)  -->
<!DOCTYPE svg PUBLIC "-//W3C//DTD SVG 1.1//EN" "http://www.w3.org/Graphics/SVG/1.1/DTD/svg11.dtd" [
	<!ENTITY ns_extend "http://ns.adobe.com/Extensibility/1.0/">
	<!ENTITY ns_ai "http://ns.adobe.com/AdobeIllustrator/10.0/">
	<!ENTITY ns_graphs "http://ns.adobe.com/Graphs/1.0/">
	<!ENTITY ns_vars "http://ns.adobe.com/Variables/1.0/">
	<!ENTITY ns_imrep "http://ns.adobe.com/ImageReplacement/1.0/">
	<!ENTITY ns_sfw "http://ns.adobe.com/SaveForWeb/1.0/">
	<!ENTITY ns_custom "http://ns.adobe.com/GenericCustomNamespace/1.0/">
	<!ENTITY ns_adobe_xpath "http://ns.adobe.com/XPath/1.0/">
]>
<svg version="1.1" id="Lag_1" xmlns:x="&ns_extend;" xmlns:i="&ns_ai;" xmlns:graph="&ns_graphs;"
	 xmlns="http://www.w3.org/2000/svg" xmlns:xlink="http://www.w3.org/1999/xlink" x="0px" y="0px" width="40px" height="40px"
	 viewBox="0 0 40 40" enable-background="new 0 0 40 40" xml:space="preserve">
<metadata>
	<sfw  xmlns="&ns_sfw;">
		<slices></slices>
		<sliceSourceBounds  height="38.6" width="38.3" y="43.7" x="43.3" bottomLeftOrigin="true"></sliceSourceBounds>
		<optimizationSettings>
			<targetSettings  fileFormat="PNG24Format" targetSettingsID="0">
				<PNG24Format  transparency="true" interlaced="false" noMatteColor="false" filtered="false" matteColor="#FFFFFF">
					</PNG24Format>
			</targetSettings>
		</optimizationSettings>
	</sfw>
</metadata>
<g id="Lag_1_1_">
	<g>
		<path fill="#464665" d="M32.8,18.1L21,6.5l-8.6,8.4l-3.2,3.2V28c1.3-0.9,3-2.5,4.8-2.5c1,0,3.2,0.7,4.3,1.3v-5.3h5.6v5.4
			c0.9-0.8,1.8-1.4,2.9-1.4c1.7,0,4.4,2,6.1,2.4L32.8,18.1L32.8,18.1z M32.8,1.2h-4.5v4.2l4.5,4.2V1.2z M1.3,28.1V31
			c2.1,0,4.3,2.7,6.4,2.7S11.9,31,14,31s4.3,2.7,6.4,2.7s4.2-2.7,6.4-2.7c2.1,0,4.3,2.7,6.4,2.7c2.1,0,4.2-2.7,6.3-2.7h0.1v-2.9
			h-0.1c-2.1,0-4.2,2.7-6.3,2.7s-4.2-2.7-6.4-2.7c-2.1,0-4.2,2.7-6.4,2.7c-2.1,0-4.3-2.7-6.4-2.7s-4.2,2.7-6.3,2.7
			C5.6,30.8,3.4,28.1,1.3,28.1z M1.3,33.7c2.1,0,4.3,2.7,6.4,2.7s4.2-2.7,6.3-2.7s4.3,2.7,6.4,2.7s4.2-2.7,6.4-2.7
			c2.1,0,4.3,2.7,6.4,2.7c2.1,0,4.2-2.7,6.3-2.7h0.1v2.9h-0.1c-2.1,0-4.2,2.7-6.3,2.7s-4.2-2.7-6.4-2.7c-2.1,0-4.2,2.7-6.4,2.7
			c-2.1,0-4.3-2.7-6.4-2.7s-4.2,2.7-6.3,2.7s-4.2-2.7-6.4-2.7L1.3,33.7L1.3,33.7z M22,1.2l14.6,14.4c0.4,0.4,0.6,1.1,0.3,1.6
			c-0.2,0.6-0.8,0.9-1.4,0.9h-0.6L21,4.3L7.1,18.1H6.4c-0.6,0-1.1-0.4-1.4-0.9c-0.2-0.6-0.1-1.2,0.3-1.6L19.9,1.2
			C20.5,0.6,21.4,0.6,22,1.2z"/>
	</g>
</g>
</svg>
