<?xml version="1.0" encoding="utf-8"?>
<!-- Generator: Adobe Illustrator 18.0.0, SVG Export Plug-In . SVG Version: 6.00 Build 0)  -->
<!DOCTYPE svg PUBLIC "-//W3C//DTD SVG 1.1//EN" "http://www.w3.org/Graphics/SVG/1.1/DTD/svg11.dtd" [
	<!ENTITY ns_extend "http://ns.adobe.com/Extensibility/1.0/">
	<!ENTITY ns_ai "http://ns.adobe.com/AdobeIllustrator/10.0/">
	<!ENTITY ns_graphs "http://ns.adobe.com/Graphs/1.0/">
	<!ENTITY ns_vars "http://ns.adobe.com/Variables/1.0/">
	<!ENTITY ns_imrep "http://ns.adobe.com/ImageReplacement/1.0/">
	<!ENTITY ns_sfw "http://ns.adobe.com/SaveForWeb/1.0/">
	<!ENTITY ns_custom "http://ns.adobe.com/GenericCustomNamespace/1.0/">
	<!ENTITY ns_adobe_xpath "http://ns.adobe.com/XPath/1.0/">
]>
<svg version="1.1" id="Lag_1" xmlns:x="&ns_extend;" xmlns:i="&ns_ai;" xmlns:graph="&ns_graphs;"
	 xmlns="http://www.w3.org/2000/svg" xmlns:xlink="http://www.w3.org/1999/xlink" x="0px" y="0px" width="40px" height="40px"
	 viewBox="0 0 40 40" enable-background="new 0 0 40 40" xml:space="preserve">
<metadata>
	<sfw  xmlns="&ns_sfw;">
		<slices></slices>
		<sliceSourceBounds  height="21.8" width="40" y="51" x="42" bottomLeftOrigin="true"></sliceSourceBounds>
		<optimizationSettings>
			<targetSettings  fileFormat="PNG24Format" targetSettingsID="0">
				<PNG24Format  transparency="true" interlaced="false" noMatteColor="false" filtered="false" matteColor="#FFFFFF">
					</PNG24Format>
			</targetSettings>
		</optimizationSettings>
	</sfw>
</metadata>
<g id="Lag_1_1_">
	<g>
		<path fill="#464665" d="M12.5,25.9L12.5,25.9c-0.3-0.3-0.8-0.5-1.3-0.5s-1,0.2-1.3,0.5s-0.5,0.8-0.5,1.3s0.2,1,0.5,1.3
			s0.8,0.5,1.3,0.5s1-0.2,1.3-0.5s0.5-0.8,0.5-1.3C13,26.7,12.8,26.2,12.5,25.9z M11.2,22.4L11.2,22.4c1.3,0,2.5,0.5,3.4,1.4
			c0.9,0.9,1.4,2.1,1.4,3.4s-0.5,2.5-1.4,3.4S12.5,32,11.2,32s-2.5-0.5-3.4-1.4s-1.4-2.1-1.4-3.4s0.5-2.5,1.4-3.4
			C8.6,22.9,9.8,22.4,11.2,22.4z"/>
	</g>
	<path fill="#464665" d="M21,26.6v-0.9c0-0.4,0-0.7-2-0.8V20h0.4l-1.9,0.4c-0.4,0-0.7-0.3-0.7-0.7s0.3-0.7,0.7-0.7h1.9
		c0.1,0,0.1,0.1,0.2,0.2v-0.8c0-0.5-0.3-0.9-0.8-1.1c-0.7-0.2-1.4-0.4-2-0.7l0.8-0.1c0.4-0.1,0.7-0.4,0.6-0.8
		c-0.1-0.4-0.4-0.7-0.8-0.6l-2.8,0.4c-1.1-0.6-2.1-1.3-3-1.9c-2.1-1.4-3.7-2.6-5.8-2.9c-2-0.4-3.8-0.5-5.8-0.5v2.2c0,0,1,0,1.6,0
		l-0.3,5.2c-0.5,0-1.3,0.1-1.3,0.1V19h1.3C1.7,19,2,19.1,2,19.5S1.7,20,1.3,20H0v8h4.6c-0.1,0-0.1-0.6-0.1-0.9c0-1.8,0.7-3.4,2-4.6
		c1.3-1.3,3-1.9,4.7-1.9c1.8,0,3.5,0.7,4.7,2c1.3,1.3,2,3,2,4.7c0,0.3,0,0.6-0.1,0.8l1.9-0.2C20.3,27.8,21,27.2,21,26.6z M4.8,17.3
		c-0.7,0.1-1.5,0.1-2.2,0.2L3,12.6c2.3,0.4,3.6,1.5,4,1.9l0,0c0.5,0.4,1.3,1.2,1.9,2.1C9,16.8,9.1,16.9,9.1,17
		C7.8,17.1,6.3,17.2,4.8,17.3z"/>
	<path fill="#464665" d="M39.8,15.9c-0.3-0.3-0.9-0.3-1.3,0L36,18.4l-1.8-1.8l2.5-2.5c0.3-0.3,0.3-0.9,0-1.3c-0.3-0.3-0.9-0.3-1.3,0
		L33,15.3L31.7,14c-0.1-0.1-0.2-0.1-0.3-0.1c-0.1,0-0.2,0-0.3,0.1l-0.6,0.6c-0.2,0.2-0.2,0.5,0,0.6l0.3,0.3l-1.2,1.2
		c-1.4,1.4-1.3,3.3,0,5l-1.9,1.9l0,0c-0.1,0.1-2.1,2.1-6.4,1.9l-0.1,1.8c0.2,0,0.4,0,0.6,0c4.3,0,6.6-2,7-2.4l0,0l1.9-1.9
		c1.7,1.3,3.5,1.4,5,0l1.2-1.2l0.3,0.3c0.2,0.2,0.5,0.2,0.6,0l0.6-0.6c0.1-0.1,0.1-0.2,0.1-0.3c0-0.1,0-0.2-0.1-0.3l-1.3-1.3
		l2.5-2.5C40.1,16.8,40.1,16.3,39.8,15.9z M33.9,22.2l-0.2,0.2c-0.1,0.1-0.2,0.1-0.3,0l-3.2-3.2c-0.1-0.1-0.1-0.2,0-0.3l0.2-0.2
		c0.1-0.1,0.2-0.1,0.3,0l3.2,3.2C33.9,22,33.9,22.1,33.9,22.2z M34.9,21.2l-0.1,0.2c-0.1,0.1-0.2,0.1-0.3,0l-3.2-3.2
		c-0.1-0.1-0.1-0.2,0-0.3l0.2-0.2c0.1-0.1,0.2-0.1,0.3,0l3.2,3.2C35,21,35,21.1,34.9,21.2z"/>
</g>
<g id="tekst">
</g>
</svg>
