<?xml version="1.0" encoding="utf-8"?>
<svg version="1.1"  xmlns="http://www.w3.org/2000/svg" xmlns:xlink="http://www.w3.org/1999/xlink" x="0px" y="0px" width="40px" height="40px"
	 viewBox="0 0 40 40" enable-background="new 0 0 40 40" xml:space="preserve">
<g id="Lag_1">
	<g>
	<path fill="#FFFFFF" d="M21.8,22.5c0,1-0.8,1.8-1.8,1.8c-1,0-1.8-0.8-1.8-1.8v-8.2c0-1,0.8-1.8,1.8-1.8c1,0,1.8,0.8,1.8,1.8V22.5z
		 M20,30.4c-1,0-1.8-0.8-1.8-1.8c0-1,0.8-1.8,1.8-1.8c1,0,1.8,0.8,1.8,1.8C21.8,29.6,21,30.4,20,30.4z M39.2,32.6L21.7,3.8
		c-0.9-1.5-2.4-1.5-3.3,0L0.8,32.6c-0.9,1.5-0.2,2.7,1.5,2.7h35.4C39.5,35.3,40.1,34.1,39.2,32.6z"/>
</g></g>
</svg>
