<?xml version="1.0" encoding="utf-8"?>
<!-- Generator: Adobe Illustrator 18.0.0, SVG Export Plug-In . SVG Version: 6.00 Build 0)  -->
<!DOCTYPE svg PUBLIC "-//W3C//DTD SVG 1.1//EN" "http://www.w3.org/Graphics/SVG/1.1/DTD/svg11.dtd" [
	<!ENTITY ns_extend "http://ns.adobe.com/Extensibility/1.0/">
	<!ENTITY ns_ai "http://ns.adobe.com/AdobeIllustrator/10.0/">
	<!ENTITY ns_graphs "http://ns.adobe.com/Graphs/1.0/">
	<!ENTITY ns_vars "http://ns.adobe.com/Variables/1.0/">
	<!ENTITY ns_imrep "http://ns.adobe.com/ImageReplacement/1.0/">
	<!ENTITY ns_sfw "http://ns.adobe.com/SaveForWeb/1.0/">
	<!ENTITY ns_custom "http://ns.adobe.com/GenericCustomNamespace/1.0/">
	<!ENTITY ns_adobe_xpath "http://ns.adobe.com/XPath/1.0/">
]>
<svg version="1.1" id="Lag_1" xmlns:x="&ns_extend;" xmlns:i="&ns_ai;" xmlns:graph="&ns_graphs;"
	 xmlns="http://www.w3.org/2000/svg" xmlns:xlink="http://www.w3.org/1999/xlink" x="0px" y="0px" width="40px" height="40px"
	 viewBox="0 0 40 40" enable-background="new 0 0 40 40" xml:space="preserve">
<metadata>
	<sfw  xmlns="&ns_sfw;">
		<slices></slices>
		<sliceSourceBounds  height="38.1" width="36.6" y="43.8" x="44" bottomLeftOrigin="true"></sliceSourceBounds>
		<optimizationSettings>
			<targetSettings  fileFormat="PNG24Format" targetSettingsID="0">
				<PNG24Format  transparency="true" interlaced="false" noMatteColor="false" filtered="false" matteColor="#FFFFFF">
					</PNG24Format>
			</targetSettings>
		</optimizationSettings>
	</sfw>
</metadata>
<g>
	<path fill="#464665" d="M33.2,37.1c-1.4,0-2.6-1.1-2.6-2.6c0-1.4,1.1-2.6,2.6-2.6c1.4,0,2.6,1.1,2.6,2.6S34.6,37.1,33.2,37.1z
		 M23.8,37.1c-1.4,0-2.6-1.1-2.6-2.6c0-1.4,1.1-2.6,2.6-2.6c1.4,0,2.6,1.1,2.6,2.6S25.3,37.1,23.8,37.1z M14.5,37.1
		c-1.4,0-2.6-1.1-2.6-2.6c0-1.4,1.1-2.6,2.6-2.6c1.4,0,2.6,1.1,2.6,2.6S15.9,37.1,14.5,37.1z M33.9,30H13.8c-2.5,0-4.6,2.1-4.6,4.6
		s2,4.6,4.6,4.6H34c2.5,0,4.6-2.1,4.6-4.6C38.5,32,36.4,30,33.9,30z"/>
</g>
<g>
	<path fill="#464665" d="M24.6,23.7V17h4.9l1.9,6.7H24.6L24.6,23.7z M23.1,23.7h-6.9l2-6.7h5v6.7H23.1z M10.1,5.2L27,13.1
		c0.1,0.1,0.2,0.1,0.3,0.1h0.1v1.4h-7.8h-0.1L17.9,13L10.1,5.2z M5.5,3.9L5.5,3.9c-0.6,0-0.9-0.4-0.9-0.8c0-0.5,0.4-0.8,0.8-0.8h0.1
		c0.5,0,0.8,0.4,0.8,0.8C6.4,3.5,6,3.9,5.5,3.9z M34.8,25.8l-3.3-11.2h-1.2v-2.7c0-0.3-0.3-0.6-0.6-0.6H28c-0.2,0-0.3,0.1-0.4,0.2
		L6,1.2c-0.6-0.3-1.5,0-1.9,0.4c-0.7,0.7-0.7,1.8,0,2.5l0.2,0.2v13c0,0.1,0,0.2,0,0.2c-0.8,0.3-1.4,1.1-1.4,2s0.5,1.7,1.3,2v2.2
		c0,0.5,0.4,0.8,0.8,0.8c0.8,0,1.5,0.7,1.5,1.5S5.8,27.5,5,27.5S3.6,26.9,3.6,26c0-0.5-0.4-0.8-0.8-0.8C2.3,25.2,2,25.6,2,26
		c0,1.8,1.4,3.2,3.2,3.2s3.2-1.4,3.2-3.2c0-1.5-1-2.7-2.4-3.1v-1.4c0.8-0.3,1.3-1.1,1.3-2s-0.5-1.7-1.4-2c0-0.1,0-0.2,0-0.2V6
		l8.4,8.4l1.3,1.6l-2.9,9.8h-0.1v2.4h22L34.8,25.8L34.8,25.8z"/>
</g>
</svg>
