<?xml version="1.0" encoding="utf-8"?>
<!-- Generator: Adobe Illustrator 18.0.0, SVG Export Plug-In . SVG Version: 6.00 Build 0)  -->
<!DOCTYPE svg PUBLIC "-//W3C//DTD SVG 1.1//EN" "http://www.w3.org/Graphics/SVG/1.1/DTD/svg11.dtd" [
	<!ENTITY ns_extend "http://ns.adobe.com/Extensibility/1.0/">
	<!ENTITY ns_ai "http://ns.adobe.com/AdobeIllustrator/10.0/">
	<!ENTITY ns_graphs "http://ns.adobe.com/Graphs/1.0/">
	<!ENTITY ns_vars "http://ns.adobe.com/Variables/1.0/">
	<!ENTITY ns_imrep "http://ns.adobe.com/ImageReplacement/1.0/">
	<!ENTITY ns_sfw "http://ns.adobe.com/SaveForWeb/1.0/">
	<!ENTITY ns_custom "http://ns.adobe.com/GenericCustomNamespace/1.0/">
	<!ENTITY ns_adobe_xpath "http://ns.adobe.com/XPath/1.0/">
]>
<svg version="1.1" id="Lag_1" xmlns:x="&ns_extend;" xmlns:i="&ns_ai;" xmlns:graph="&ns_graphs;"
	 xmlns="http://www.w3.org/2000/svg" xmlns:xlink="http://www.w3.org/1999/xlink" x="0px" y="0px" width="40px" height="40px"
	 viewBox="0 0 40 40" enable-background="new 0 0 40 40" xml:space="preserve">
<metadata>
	<sfw  xmlns="&ns_sfw;">
		<slices></slices>
		<sliceSourceBounds  height="38.1" width="36.8" y="44" x="43.9" bottomLeftOrigin="true"></sliceSourceBounds>
		<optimizationSettings>
			<targetSettings  fileFormat="PNG24Format" targetSettingsID="0">
				<PNG24Format  transparency="true" interlaced="false" noMatteColor="false" filtered="false" matteColor="#FFFFFF">
					</PNG24Format>
			</targetSettings>
		</optimizationSettings>
	</sfw>
</metadata>
<path fill="#464665" d="M22.9,34.5c0,0-0.6-9.7-0.8-10.7c-0.1-1,1-1.4,1-1.4s9.7,0.5,11.1,0.8s0.5,1.5,0.5,1.5l-2.5,2.5l6.3,6.3
	c0.3,0.3,0.3,0.7,0,1l-4.2,4.2c-0.3,0.3-0.7,0.3-1,0L27,32.5L24.5,35C23.3,36.2,22.9,34.5,22.9,34.5z"/>
<path fill="#464665" d="M28.3,12c0,0-6.4,7.3-7,8.1c-0.7,0.8-1.7,0.2-1.7,0.2s-6.5-7.2-7.2-8.4s0.7-1.4,0.7-1.4h3.6V1.6
	c0-0.4,0.3-0.7,0.7-0.7h5.9c0.4,0,0.7,0.3,0.7,0.7v8.9h3.5C29.2,10.5,28.3,12,28.3,12z"/>
<path fill="#464665" d="M6.3,23.2c0,0,9.7-0.6,10.7-0.8c1-0.1,1.4,1,1.4,1s-0.5,9.7-0.8,11.1c-0.3,1.4-1.5,0.5-1.5,0.5l-2.5-2.5
	l-6.3,6.3c-0.3,0.3-0.7,0.3-1,0l-4.2-4.2c-0.3-0.3-0.3-0.7,0-1l6.3-6.3l-2.5-2.5C4.6,23.7,6.3,23.2,6.3,23.2z"/>
</svg>
