<?xml version="1.0" encoding="utf-8"?>
<!-- Generator: Adobe Illustrator 18.0.0, SVG Export Plug-In . SVG Version: 6.00 Build 0)  -->
<!DOCTYPE svg PUBLIC "-//W3C//DTD SVG 1.1//EN" "http://www.w3.org/Graphics/SVG/1.1/DTD/svg11.dtd" [
	<!ENTITY ns_extend "http://ns.adobe.com/Extensibility/1.0/">
	<!ENTITY ns_ai "http://ns.adobe.com/AdobeIllustrator/10.0/">
	<!ENTITY ns_graphs "http://ns.adobe.com/Graphs/1.0/">
	<!ENTITY ns_vars "http://ns.adobe.com/Variables/1.0/">
	<!ENTITY ns_imrep "http://ns.adobe.com/ImageReplacement/1.0/">
	<!ENTITY ns_sfw "http://ns.adobe.com/SaveForWeb/1.0/">
	<!ENTITY ns_custom "http://ns.adobe.com/GenericCustomNamespace/1.0/">
	<!ENTITY ns_adobe_xpath "http://ns.adobe.com/XPath/1.0/">
]>
<svg version="1.1" id="Lag_1" xmlns:x="&ns_extend;" xmlns:i="&ns_ai;" xmlns:graph="&ns_graphs;"
	 xmlns="http://www.w3.org/2000/svg" xmlns:xlink="http://www.w3.org/1999/xlink" x="0px" y="0px" width="40px" height="40px"
	 viewBox="0 0 40 40" enable-background="new 0 0 40 40" xml:space="preserve">
<metadata>
	<sfw  xmlns="&ns_sfw;">
		<slices></slices>
		<sliceSourceBounds  height="34.9" width="40" y="238.6" x="236" bottomLeftOrigin="true"></sliceSourceBounds>
	</sfw>
</metadata>
<g>
	<path fill="#FFFFFF" d="M26.6,31.7c0,0.7-0.6,1.3-1.3,1.3s-1.3-0.6-1.3-1.3v-7.3c0-0.7,0.6-1.3,1.3-1.3s1.3,0.6,1.3,1.3V31.7z
		 M21.6,31.7c0,0.7-0.6,1.3-1.3,1.3c-0.7,0-1.3-0.6-1.3-1.3v-7.3c0-0.7,0.6-1.3,1.3-1.3c0.7,0,1.3,0.6,1.3,1.3V31.7z M15.7,31.9
		c0,0.7-0.5,1.2-1.2,1.2c-0.7,0-1.2-0.5-1.2-1.2v-7.6c0-0.7,0.5-1.2,1.2-1.2c0.7,0,1.2,0.5,1.2,1.2V31.9z M3.1,20.5l3.9,14.3
		c0.3,1.6,1.7,2.7,3.3,2.7h19.5c1.6,0,2.9-1.1,3.3-2.7l3.9-14.3L3.1,20.5L3.1,20.5z"/>
</g>
<g>
	<path fill="#FFFFFF" d="M38.3,12H25.4L20,17.4c-0.8,0.8-2,0.8-2.8,0l-2.1-2.1c-0.8-0.8-0.8-2,0-2.8l0.6-0.6h-14
		C0.8,12,0,12.7,0,13.7v3.9c0,0.9,0.8,1.7,1.7,1.7h36.6c0.9,0,1.7-0.8,1.7-1.7v-3.9C40,12.7,39.2,12,38.3,12z"/>
</g>
<g>
	<path fill="#FFFFFF" d="M18.3,15c-0.4,0-0.8-0.4-0.8-0.8c0-0.4,0.4-0.8,0.8-0.8c0.4,0,0.8,0.4,0.8,0.8C19.2,14.6,18.8,15,18.3,15z
		 M29.6,4.5L28,3c-0.6-0.6-1.6-0.6-2.2,0L16,12.8c-0.6,0.6-0.6,1.6,0,2.2l1.6,1.6c0.6,0.6,1.6,0.6,2.2,0l9.9-9.8
		C30.2,6.1,30.2,5.1,29.6,4.5z"/>
</g>
</svg>
