<?xml version="1.0" encoding="utf-8"?>
<!-- Generator: Adobe Illustrator 18.0.0, SVG Export Plug-In . SVG Version: 6.00 Build 0)  -->
<!DOCTYPE svg PUBLIC "-//W3C//DTD SVG 1.1//EN" "http://www.w3.org/Graphics/SVG/1.1/DTD/svg11.dtd" [
	<!ENTITY ns_extend "http://ns.adobe.com/Extensibility/1.0/">
	<!ENTITY ns_ai "http://ns.adobe.com/AdobeIllustrator/10.0/">
	<!ENTITY ns_graphs "http://ns.adobe.com/Graphs/1.0/">
	<!ENTITY ns_vars "http://ns.adobe.com/Variables/1.0/">
	<!ENTITY ns_imrep "http://ns.adobe.com/ImageReplacement/1.0/">
	<!ENTITY ns_sfw "http://ns.adobe.com/SaveForWeb/1.0/">
	<!ENTITY ns_custom "http://ns.adobe.com/GenericCustomNamespace/1.0/">
	<!ENTITY ns_adobe_xpath "http://ns.adobe.com/XPath/1.0/">
]>
<svg version="1.1" id="Lag_1" xmlns:x="&ns_extend;" xmlns:i="&ns_ai;" xmlns:graph="&ns_graphs;"
	 xmlns="http://www.w3.org/2000/svg" xmlns:xlink="http://www.w3.org/1999/xlink" x="0px" y="0px" width="40px" height="40px"
	 viewBox="0 0 40 40" enable-background="new 0 0 40 40" xml:space="preserve">
<metadata>
	<sfw  xmlns="&ns_sfw;">
		<slices></slices>
		<sliceSourceBounds  height="38.9" width="23.7" y="43.6" x="50.8" bottomLeftOrigin="true"></sliceSourceBounds>
		<optimizationSettings>
			<targetSettings  fileFormat="PNG24Format" targetSettingsID="0">
				<PNG24Format  transparency="true" interlaced="false" noMatteColor="false" filtered="false" matteColor="#FFFFFF">
					</PNG24Format>
			</targetSettings>
		</optimizationSettings>
	</sfw>
</metadata>
<g id="Lag_1_1_">
	<g>
		<g>
			<path fill="#464665" d="M14.8,0.5l11.8,1.4H31v32.3h-1.4v2.2h2.9V36v-1.5v-34H14.8z M8.8,36.3l20.1,3.1V3.5L8.8,0.6V36.3z
				 M27.5,21.7c0.4,0.1,0.7,0.5,0.7,0.9c0,0.5-0.3,0.8-0.7,0.7c-0.4-0.1-0.7-0.5-0.7-0.9C26.7,22,27.1,21.7,27.5,21.7z M19.6,5
				l7.2,1v1v0.7v6.5l-7.2-1C19.6,13.2,19.6,5,19.6,5z M19.6,16.1l7.2,1v8.2l-7.2-1C19.6,24.3,19.6,16.1,19.6,16.1z M19.6,27l7.2,1
				v8.2l-7.2-1C19.6,35.2,19.6,27,19.6,27z M11,5.1V4.7v-1l6.5,1v8.2l-6.5-1V5.1z M11,14.8l6.5,1V24L11,23V14.8z M11,25.6l6.5,1v8.2
				l-6.5-1V25.6z"/>
		</g>
	</g>
</g>
<g id="tekst">
</g>
</svg>
