<?xml version="1.0" encoding="utf-8"?>
<!-- Generator: Adobe Illustrator 18.0.0, SVG Export Plug-In . SVG Version: 6.00 Build 0)  -->
<!DOCTYPE svg PUBLIC "-//W3C//DTD SVG 1.1//EN" "http://www.w3.org/Graphics/SVG/1.1/DTD/svg11.dtd" [
	<!ENTITY ns_extend "http://ns.adobe.com/Extensibility/1.0/">
	<!ENTITY ns_ai "http://ns.adobe.com/AdobeIllustrator/10.0/">
	<!ENTITY ns_graphs "http://ns.adobe.com/Graphs/1.0/">
	<!ENTITY ns_vars "http://ns.adobe.com/Variables/1.0/">
	<!ENTITY ns_imrep "http://ns.adobe.com/ImageReplacement/1.0/">
	<!ENTITY ns_sfw "http://ns.adobe.com/SaveForWeb/1.0/">
	<!ENTITY ns_custom "http://ns.adobe.com/GenericCustomNamespace/1.0/">
	<!ENTITY ns_adobe_xpath "http://ns.adobe.com/XPath/1.0/">
]>
<svg version="1.1" id="Lag_1" xmlns:x="&ns_extend;" xmlns:i="&ns_ai;" xmlns:graph="&ns_graphs;"
	 xmlns="http://www.w3.org/2000/svg" xmlns:xlink="http://www.w3.org/1999/xlink" x="0px" y="0px" width="40px" height="40px"
	 viewBox="0 0 40 40" enable-background="new 0 0 40 40" xml:space="preserve">
<metadata>
	<sfw  xmlns="&ns_sfw;">
		<slices></slices>
		<sliceSourceBounds  height="38.4" width="35.8" y="43.8" x="43.2" bottomLeftOrigin="true"></sliceSourceBounds>
		<optimizationSettings>
			<targetSettings  fileFormat="PNG24Format" targetSettingsID="0">
				<PNG24Format  transparency="true" interlaced="false" noMatteColor="false" filtered="false" matteColor="#FFFFFF">
					</PNG24Format>
			</targetSettings>
		</optimizationSettings>
	</sfw>
</metadata>
<g id="Lag_1_1_">
	<path fill="#464665" d="M36.8,33.5l-3.3-3.8c-0.2-0.2-0.4-0.3-0.6-0.3c-0.2,0-0.5,0.1-0.7,0.2c-2,1.7-4.5,2.7-7.3,2.7
		c-4.2,0-7.9-2.4-9.9-6h8.3c0.5,0,0.9-0.4,0.9-0.9v-3.3c0-0.5-0.4-0.9-0.9-0.9h-9.9c0-0.4-0.1-0.8-0.1-1.3c0-0.4,0.1-0.9,0.1-1.3
		h12.5c0.5,0,0.9-0.4,0.9-0.9v-3.3c0-0.5-0.4-0.9-0.9-0.9H15c2-3.6,5.7-6,9.9-6c2.7,0,5.2,1,7.2,2.7c0.2,0.2,0.4,0.2,0.7,0.2
		c0.2,0,0.5-0.1,0.6-0.3l3.3-3.8c0.2-0.2,0.2-0.4,0.2-0.7c0-0.2-0.1-0.5-0.3-0.6C33.4,2.4,29.4,0.8,25,0.8c-8.1,0-15,5.3-17.5,12.8
		H2.1c-0.5,0-0.9,0.4-0.9,0.9v3.3c0,0.5,0.4,0.9,0.9,0.9h4.3c0,0.4-0.1,0.8-0.1,1.3s0,0.9,0.1,1.3H2.1c-0.5,0-0.9,0.4-0.9,0.9v3.3
		c0,0.5,0.4,0.9,0.9,0.9h5.3c2.6,7.4,9.4,12.8,17.5,12.8c4.5,0,8.6-1.6,11.8-4.3c0.2-0.2,0.3-0.4,0.3-0.6
		C37,33.9,36.9,33.7,36.8,33.5z"/>
</g>
</svg>
