<?xml version="1.0" encoding="utf-8"?>
<svg version="1.1" id="Lag_1" xmlns="http://www.w3.org/2000/svg" xmlns:xlink="http://www.w3.org/1999/xlink" x="0px" y="0px"
	 viewBox="0 0 28.8 28.8" style="enable-background:new 0 0 28.8 28.8;" xml:space="preserve">
<path fill="white" d="M14.4,0C6.4,0,0,6.4,0,14.4c0,8,6.4,14.4,14.4,14.4c8,0,14.4-6.4,14.4-14.4C28.8,6.4,22.4,0,14.4,0z M15.4,19.9
	c-0.2,0.2-0.6,0.4-1,0.4c-0.4,0-0.8-0.1-1-0.3c-0.2-0.4-0.4-0.7-0.4-1.1c0-0.4,0.1-0.8,0.4-1c0.3-0.2,0.6-0.3,1-0.3
	c0.4,0,0.8,0.1,1,0.3c0.2,0.2,0.4,0.6,0.4,1C15.8,19.3,15.7,19.6,15.4,19.9z M15.4,16.2h-1.9l-0.4-7.6h2.7L15.4,16.2z"/>
</svg>
