<?xml version="1.0" encoding="utf-8"?>
<!-- Generator: Adobe Illustrator 18.0.0, SVG Export Plug-In . SVG Version: 6.00 Build 0)  -->
<!DOCTYPE svg PUBLIC "-//W3C//DTD SVG 1.1//EN" "http://www.w3.org/Graphics/SVG/1.1/DTD/svg11.dtd" [
	<!ENTITY ns_extend "http://ns.adobe.com/Extensibility/1.0/">
	<!ENTITY ns_ai "http://ns.adobe.com/AdobeIllustrator/10.0/">
	<!ENTITY ns_graphs "http://ns.adobe.com/Graphs/1.0/">
	<!ENTITY ns_vars "http://ns.adobe.com/Variables/1.0/">
	<!ENTITY ns_imrep "http://ns.adobe.com/ImageReplacement/1.0/">
	<!ENTITY ns_sfw "http://ns.adobe.com/SaveForWeb/1.0/">
	<!ENTITY ns_custom "http://ns.adobe.com/GenericCustomNamespace/1.0/">
	<!ENTITY ns_adobe_xpath "http://ns.adobe.com/XPath/1.0/">
]>
<svg version="1.1" id="Lag_1" xmlns:x="&ns_extend;" xmlns:i="&ns_ai;" xmlns:graph="&ns_graphs;"
	 xmlns="http://www.w3.org/2000/svg" xmlns:xlink="http://www.w3.org/1999/xlink" x="0px" y="0px" width="40px" height="40px"
	 viewBox="0 0 40 40" enable-background="new 0 0 40 40" xml:space="preserve">
<metadata>
	<sfw  xmlns="&ns_sfw;">
		<slices></slices>
		<sliceSourceBounds  height="40" width="30.4" y="43" x="46.9" bottomLeftOrigin="true"></sliceSourceBounds>
		<optimizationSettings>
			<targetSettings  fileFormat="PNG24Format" targetSettingsID="0">
				<PNG24Format  transparency="true" interlaced="false" noMatteColor="false" filtered="false" matteColor="#FFFFFF">
					</PNG24Format>
			</targetSettings>
		</optimizationSettings>
	</sfw>
</metadata>
<g id="Lag_1_1_">
	<path fill="#464665" d="M27.2,10.7c-3,0.1-4.4,1.2-5.1,2.6c-0.4-0.5-0.9-1.3-1.5-1.3h0.1c0.2-1,0.7-3.7,1.5-6.6
		c1.4-4.9-7-5.1-6.7,2.5c0.1,2.9,1.6,4.4,2.9,5.1c-0.4,0.4-0.8,0.9-0.9,1.5c-2-0.2-4.1-0.7-7-1.5c-4.9-1.4-5.3,7,2.3,6.7
		c3-0.1,4.4-1.6,5.1-3c0.4,0.4,0.8,0.7,1.4,0.9c-0.1,2-0.7,4.2-1.5,7.1c-1.4,4.9,7,5.3,6.7-2.3c-0.2-3-1.7-4.5-3-5.2
		c0.4-0.4,0.8-0.8,0.9-1.4c2,0.2,4.1,0.7,7,1.5C34.5,18.7,34.8,10.4,27.2,10.7z M20,15.9c-0.4,0-0.7-0.3-0.7-0.7s0.3-0.7,0.7-0.7
		c0.4,0,0.7,0.3,0.7,0.7C20.8,15.6,20.5,15.9,20,15.9z"/>
	<path fill="#464665" d="M20.1,0C11.7,0,4.9,6.8,4.9,15.2s6.8,15.2,15.2,15.2s15.2-6.8,15.2-15.2S28.5,0,20.1,0z M20.1,29.1
		c-7.7,0-13.9-6.2-13.9-13.9S12.4,1.3,20.1,1.3S34,7.6,34,15.2S27.7,29.1,20.1,29.1z"/>
	<rect x="18" y="31" fill="#464665" width="4" height="5"/>
	<path fill="#464665" d="M24.2,36H16c-2.5,0-4.5,1.5-4.5,4h17.1C28.6,37.5,26.6,36,24.2,36z"/>
</g>
<g id="tekst">
</g>
</svg>
