<?xml version="1.0" encoding="utf-8"?>
<!-- Generator: Adobe Illustrator 18.0.0, SVG Export Plug-In . SVG Version: 6.00 Build 0)  -->
<!DOCTYPE svg PUBLIC "-//W3C//DTD SVG 1.1//EN" "http://www.w3.org/Graphics/SVG/1.1/DTD/svg11.dtd" [
	<!ENTITY ns_extend "http://ns.adobe.com/Extensibility/1.0/">
	<!ENTITY ns_ai "http://ns.adobe.com/AdobeIllustrator/10.0/">
	<!ENTITY ns_graphs "http://ns.adobe.com/Graphs/1.0/">
	<!ENTITY ns_vars "http://ns.adobe.com/Variables/1.0/">
	<!ENTITY ns_imrep "http://ns.adobe.com/ImageReplacement/1.0/">
	<!ENTITY ns_sfw "http://ns.adobe.com/SaveForWeb/1.0/">
	<!ENTITY ns_custom "http://ns.adobe.com/GenericCustomNamespace/1.0/">
	<!ENTITY ns_adobe_xpath "http://ns.adobe.com/XPath/1.0/">
]>
<svg version="1.1" id="Lag_1" xmlns:x="&ns_extend;" xmlns:i="&ns_ai;" xmlns:graph="&ns_graphs;"
	 xmlns="http://www.w3.org/2000/svg" xmlns:xlink="http://www.w3.org/1999/xlink" x="0px" y="0px" width="40px" height="40px"
	 viewBox="0 0 40 40" enable-background="new 0 0 40 40" xml:space="preserve">
<metadata>
	<sfw  xmlns="&ns_sfw;">
		<slices></slices>
		<sliceSourceBounds  height="32.5" width="39.6" y="46.7" x="42.2" bottomLeftOrigin="true"></sliceSourceBounds>
		<optimizationSettings>
			<targetSettings  fileFormat="PNG24Format" targetSettingsID="0">
				<PNG24Format  transparency="true" interlaced="false" noMatteColor="false" filtered="false" matteColor="#FFFFFF">
					</PNG24Format>
			</targetSettings>
		</optimizationSettings>
	</sfw>
</metadata>
<g id="Lag_1_1_">
	<g>
		<g>
			<path fill="#464665" d="M39.7,15.6c0-0.4-0.1-0.6-0.1-0.5c0,0,0,0.2,0,0.6c0,0.6-0.1,1.2-0.4,1.8c-0.1,0.3-0.4,0.5-0.6,0.7
				c0.2-0.3,0.2-0.7,0.3-1.1c0-0.4,0-0.8-0.2-1.3c-0.2-0.4-0.6-0.9-1.1-1c-0.5-0.2-1.1-0.1-1.5,0.3L35.9,15l0,0l0,0l0,0l-0.1,0.1
				c-0.1,0.1-0.1,0.2-0.2,0.3c-0.1,0.2-0.2,0.4-0.2,0.6c-0.1,0.4,0,0.8,0.1,1.2c0.1,0.3,0.2,0.6,0.4,0.8c-0.1,0-0.3,0.1-0.4,0.1
				c-0.8-7.2-7.7-12.7-16-12.7c-2,0-4,0.3-5.8,1C10.6,4.6,7,3.9,7,3.9C6.3,3.7,6,4.1,6.1,4.8L7.6,10C6,11.5,4.8,13.4,4,15.5H3.9
				l-2.5,0.3c-0.7,0.1-1.2,0.7-1.2,1.4v4.9c0,0.7,0.6,1.3,1.2,1.4L4,23.8h0.1C4.8,26,6.2,28,7.9,29.6l-0.7,5.5
				c-0.1,0.7,0.4,1.2,1.1,1.2h5.6c0.7,0,1.3-0.6,1.4-1.2l0.2-1.7c1.3,0.3,2.6,0.4,3.9,0.4c1.9,0,3.7-0.3,5.4-0.8l0.3,2.1
				c0.1,0.7,0.7,1.2,1.4,1.2H32c0.7,0,1.2-0.6,1.1-1.2l-0.9-6.9c1.9-2.2,3-4.9,3.2-7.8c0.1,0,0.2,0,0.3-0.1c0.7-0.2,1.4-0.5,2-1.1
				c0.1-0.1,0.2-0.2,0.3-0.3h0.1c0.4-0.1,0.7-0.3,1-0.5c0.2-0.3,0.4-0.6,0.6-0.9C39.8,16.9,39.8,16.3,39.7,15.6z M9.5,14.9
				c-0.8,0-1.5-0.7-1.5-1.5s0.7-1.5,1.5-1.5s1.5,0.7,1.5,1.5S10.4,14.9,9.5,14.9z M15.7,8.6c-0.2-0.3,0-0.7,0.3-0.8
				c0.2-0.1,1.1-0.5,4-0.5c2.6,0,4,0.7,4,0.7c0.3,0.2,0.4,0.5,0.3,0.8C24.2,9,24,9.1,23.7,9.1c-0.1,0-0.2,0-0.3-0.1
				c0,0-1.2-0.6-3.5-0.6c-2.6,0-3.4,0.4-3.4,0.4C16.2,9.1,15.9,8.9,15.7,8.6z M23.9,21.5c-0.9,0.8-2.2,1.1-3.8,1.1h-1.2v4.7h-2.8
				V14.1h4.2c1.6,0,2.8,0.3,3.7,1c0.8,0.7,1.3,1.7,1.3,3.1C25.2,19.7,24.8,20.7,23.9,21.5z M37.2,16.8c-0.1,0.4-0.3,0.6-0.6,0.8
				c-0.2-0.4-0.3-0.9-0.2-1.3c0-0.1,0.1-0.2,0.1-0.2l0.1-0.1l0,0l0,0l0,0l0,0l0,0l0,0c0.1-0.1,0.2,0,0.3,0s0.1,0.1,0.2,0.3
				C37.2,16.4,37.2,16.6,37.2,16.8z M20.2,16.4h-1.3v3.9h0.9c0.9,0,1.5-0.2,1.9-0.5s0.6-0.8,0.6-1.5s-0.2-1.1-0.5-1.5
				C21.5,16.5,21,16.4,20.2,16.4z"/>
		</g>
	</g>
</g>
<g id="tekst">
</g>
</svg>
