<?xml version="1.0" encoding="utf-8"?>
<!-- Generator: Adobe Illustrator 18.0.0, SVG Export Plug-In . SVG Version: 6.00 Build 0)  -->
<!DOCTYPE svg PUBLIC "-//W3C//DTD SVG 1.1//EN" "http://www.w3.org/Graphics/SVG/1.1/DTD/svg11.dtd" [
	<!ENTITY ns_extend "http://ns.adobe.com/Extensibility/1.0/">
	<!ENTITY ns_ai "http://ns.adobe.com/AdobeIllustrator/10.0/">
	<!ENTITY ns_graphs "http://ns.adobe.com/Graphs/1.0/">
	<!ENTITY ns_vars "http://ns.adobe.com/Variables/1.0/">
	<!ENTITY ns_imrep "http://ns.adobe.com/ImageReplacement/1.0/">
	<!ENTITY ns_sfw "http://ns.adobe.com/SaveForWeb/1.0/">
	<!ENTITY ns_custom "http://ns.adobe.com/GenericCustomNamespace/1.0/">
	<!ENTITY ns_adobe_xpath "http://ns.adobe.com/XPath/1.0/">
]>
<svg version="1.1" id="Lag_1" xmlns:x="&ns_extend;" xmlns:i="&ns_ai;" xmlns:graph="&ns_graphs;"
	 xmlns="http://www.w3.org/2000/svg" xmlns:xlink="http://www.w3.org/1999/xlink" x="0px" y="0px" width="40px" height="40px"
	 viewBox="0 0 40 40" enable-background="new 0 0 40 40" xml:space="preserve">
<metadata>
	<sfw  xmlns="&ns_sfw;">
		<slices></slices>
		<sliceSourceBounds  height="39.5" width="40" y="42.9" x="42" bottomLeftOrigin="true"></sliceSourceBounds>
		<optimizationSettings>
			<targetSettings  fileFormat="PNG24Format" targetSettingsID="0">
				<PNG24Format  transparency="true" interlaced="false" noMatteColor="false" filtered="false" matteColor="#FFFFFF">
					</PNG24Format>
			</targetSettings>
		</optimizationSettings>
	</sfw>
</metadata>
<g id="Lag_1_1_">
	<g>
		<path fill="#464665" d="M32.4,5.1V2.5c-0.3-1.1-1.3-1.9-2.4-1.9H10c-1.1,0-2.1,0.8-2.4,1.9v2.6H32.4z"/>
		<path fill="#464665" d="M37.5,6.4h-3.3h-0.6h-27h-1H2.5C1.1,6.4,0,7.5,0,8.9v15c0,1.4,1.1,2.5,2.5,2.5h3.8v11.2
			c0,1.4,1.1,2.5,2.5,2.5h15.6c0.7,0,1.3-0.3,1.8-0.7l6.9-7c0.6-0.6,0.7-1.6,0.7-1.8v-4.3h3.7c1.4,0,2.5-1.1,2.5-2.5v-15
			C40,7.5,38.9,6.4,37.5,6.4z M13.1,11.4c1,0,1.9,0.8,1.9,1.9c0,1-0.8,1.9-1.9,1.9c-1,0-1.9-0.8-1.9-1.9
			C11.3,12.2,12.1,11.4,13.1,11.4z M8.1,15.1c-1,0-1.9-0.8-1.9-1.9c0-1,0.8-1.9,1.9-1.9c1,0,1.9,0.8,1.9,1.9S9.2,15.1,8.1,15.1z
			 M25,37.6v-6.3h6.2L25,37.6z M31.3,30.1h-7.5v7.5h-15v-8.7v-2.5v-6.2h22.5V30.1z"/>
		<g>
			<rect x="12.5" y="22.6" fill="#464665" width="15" height="1.2"/>
		</g>
		<g>
			<rect x="12.5" y="26.4" fill="#464665" width="15" height="1.3"/>
		</g>
	</g>
</g>
<g id="tekst">
</g>
</svg>
