<?xml version="1.0" encoding="utf-8"?>
<!-- Generator: Adobe Illustrator 18.0.0, SVG Export Plug-In . SVG Version: 6.00 Build 0)  -->
<!DOCTYPE svg PUBLIC "-//W3C//DTD SVG 1.1//EN" "http://www.w3.org/Graphics/SVG/1.1/DTD/svg11.dtd" [
	<!ENTITY ns_extend "http://ns.adobe.com/Extensibility/1.0/">
	<!ENTITY ns_ai "http://ns.adobe.com/AdobeIllustrator/10.0/">
	<!ENTITY ns_graphs "http://ns.adobe.com/Graphs/1.0/">
	<!ENTITY ns_vars "http://ns.adobe.com/Variables/1.0/">
	<!ENTITY ns_imrep "http://ns.adobe.com/ImageReplacement/1.0/">
	<!ENTITY ns_sfw "http://ns.adobe.com/SaveForWeb/1.0/">
	<!ENTITY ns_custom "http://ns.adobe.com/GenericCustomNamespace/1.0/">
	<!ENTITY ns_adobe_xpath "http://ns.adobe.com/XPath/1.0/">
]>
<svg version="1.1" id="Lag_1" xmlns:x="&ns_extend;" xmlns:i="&ns_ai;" xmlns:graph="&ns_graphs;"
	 xmlns="http://www.w3.org/2000/svg" xmlns:xlink="http://www.w3.org/1999/xlink" x="0px" y="0px" width="40px" height="40px"
	 viewBox="0 0 40 40" enable-background="new 0 0 40 40" xml:space="preserve">
<metadata>
	<sfw  xmlns="&ns_sfw;">
		<slices></slices>
		<sliceSourceBounds  height="38.4" width="38.4" y="43.9" x="42.6" bottomLeftOrigin="true"></sliceSourceBounds>
		<optimizationSettings>
			<targetSettings  fileFormat="PNG24Format" targetSettingsID="0">
				<PNG24Format  transparency="true" interlaced="false" noMatteColor="false" filtered="false" matteColor="#FFFFFF">
					</PNG24Format>
			</targetSettings>
		</optimizationSettings>
	</sfw>
</metadata>
<g id="Lag_1_1_">
</g>
<g id="tekst">
	<g>
		<g>
			<path fill="#464665" d="M19.8,35.9c-8.8,0-16-7.2-16-16s7.2-16,16-16s16,7.2,16,16S28.7,35.9,19.8,35.9z M19.8,0.7
				C9.2,0.7,0.6,9.3,0.6,19.9s8.6,19.2,19.2,19.2S39,30.6,39,19.9S30.5,0.7,19.8,0.7z"/>
		</g>
		<g>
			<circle fill="#464665" cx="25.4" cy="16.7" r="2.1"/>
		</g>
		<g>
			<circle fill="#464665" cx="19.8" cy="13.5" r="2.1"/>
		</g>
		<g>
			<circle fill="#464665" cx="19.8" cy="26.3" r="2.1"/>
		</g>
		<g>
			<circle fill="#464665" cx="25.4" cy="23.1" r="2.1"/>
		</g>
		<g>
			<circle fill="#464665" cx="31.8" cy="16.6" r="2.1"/>
		</g>
		<g>
			<circle fill="#464665" cx="31.8" cy="23.1" r="2.1"/>
		</g>
		<g>
			<circle fill="#464665" cx="7.8" cy="16.7" r="2.1"/>
		</g>
		<g>
			<circle fill="#464665" cx="7.8" cy="23.2" r="2.1"/>
		</g>
		<g>
			<circle fill="#464665" cx="14.2" cy="16.7" r="2.1"/>
		</g>
		<g>
			<circle fill="#464665" cx="14.2" cy="23.2" r="2.1"/>
		</g>
		<g>
			<circle fill="#464665" cx="22.9" cy="7.9" r="2.1"/>
		</g>
		<g>
			<circle fill="#464665" cx="28.6" cy="11.1" r="2.1"/>
		</g>
		<g>
			<circle fill="#464665" cx="11.1" cy="28.7" r="2.1"/>
		</g>
		<g>
			<circle fill="#464665" cx="16.7" cy="31.9" r="2.1"/>
		</g>
		<g>
			<circle fill="#464665" cx="28.7" cy="28.6" r="2.1"/>
		</g>
		<g>
			<circle fill="#464665" cx="23" cy="31.9" r="2.1"/>
		</g>
		<g>
			<circle fill="#464665" cx="16.5" cy="7.9" r="2.1"/>
		</g>
		<g>
			<circle fill="#464665" cx="11" cy="11.1" r="2.1"/>
		</g>
		<g>
			<circle fill="#464665" cx="19.8" cy="19.9" r="2.1"/>
		</g>
	</g>
</g>
</svg>
