<?xml version="1.0" encoding="utf-8"?>
<!-- Generator: Adobe Illustrator 18.0.0, SVG Export Plug-In . SVG Version: 6.00 Build 0)  -->
<!DOCTYPE svg PUBLIC "-//W3C//DTD SVG 1.1//EN" "http://www.w3.org/Graphics/SVG/1.1/DTD/svg11.dtd" [
	<!ENTITY ns_extend "http://ns.adobe.com/Extensibility/1.0/">
	<!ENTITY ns_ai "http://ns.adobe.com/AdobeIllustrator/10.0/">
	<!ENTITY ns_graphs "http://ns.adobe.com/Graphs/1.0/">
	<!ENTITY ns_vars "http://ns.adobe.com/Variables/1.0/">
	<!ENTITY ns_imrep "http://ns.adobe.com/ImageReplacement/1.0/">
	<!ENTITY ns_sfw "http://ns.adobe.com/SaveForWeb/1.0/">
	<!ENTITY ns_custom "http://ns.adobe.com/GenericCustomNamespace/1.0/">
	<!ENTITY ns_adobe_xpath "http://ns.adobe.com/XPath/1.0/">
]>
<svg version="1.1" id="Lag_1" xmlns:x="&ns_extend;" xmlns:i="&ns_ai;" xmlns:graph="&ns_graphs;"
	 xmlns="http://www.w3.org/2000/svg" xmlns:xlink="http://www.w3.org/1999/xlink" x="0px" y="0px" width="40px" height="40px"
	 viewBox="0 0 40 40" enable-background="new 0 0 40 40" xml:space="preserve">
<metadata>
	<sfw  xmlns="&ns_sfw;">
		<slices></slices>
		<sliceSourceBounds  height="38.9" width="40" y="41.8" x="44.5" bottomLeftOrigin="true"></sliceSourceBounds>
		<optimizationSettings>
			<targetSettings  fileFormat="PNG24Format" targetSettingsID="0">
				<PNG24Format  transparency="true" interlaced="false" noMatteColor="false" filtered="false" matteColor="#FFFFFF">
					</PNG24Format>
			</targetSettings>
		</optimizationSettings>
	</sfw>
</metadata>
<g id="Lag_1_1_">
	<g>
		<path fill="#464665" d="M36.2,23.4c-0.2-0.9,0.4-1.1,1.1-1.1c1.1,0,0.1-1.7-0.4-1.6c-1.3,0.4-0.9-0.1-1.6-0.2
			c-1.2,0-0.5,0.5-1.3,0.6c-0.4,0-0.8-0.4-1.4,0.1c-0.3,0.2-0.2,1,0.5,1.2c0.6,0.1,0.4,0.1,0.7,1.1l0,0c-0.2,0-0.3,0.2-0.3,0.3
			c0,0.2,0.2,0.3,0.3,0.3h2.5c0.2,0,0.3-0.2,0.3-0.3C36.6,23.5,36.4,23.4,36.2,23.4L36.2,23.4L36.2,23.4z M33.7,24.3
			c1.8,0,0.7,0,2.5,0c1.3,0.8,3.6,3.6,3.8,5.4c0.2,1.3,0.7,3.1,0.4,4.4c-0.1,0.4,0.6,1.2,0.3,1.5s-1.1-0.3-1.4-0.3
			c-1.2,0.1-3,0.3-4.2,0.3s-3-0.2-4.2-0.3c-0.4-0.1-1.1,0.5-1.4,0.3c-0.4-0.4,0.4-1.2,0.3-1.5c-0.3-1.3,0.3-3.1,0.4-4.4
			C30.1,27.9,32.2,25.2,33.7,24.3z"/>
	</g>
	<g>
		<path fill="#464665" d="M17.4,21.7c0.2,0,0.4,0.2,0.4,0.4c0,0.1,0,0.1,0,0.1v0.2h-0.4c-1.5,2.2-4.2,3.4-7.1,3.4s-5.6-1.2-7.1-3.4
			H2.5v-0.2c-0.1-0.2,0.1-0.4,0.3-0.5c0.1,0,0.1,0,0.1,0l0,0C8.6,21.7,11.7,21.7,17.4,21.7z"/>
		<path fill="#464665" d="M42.1,36.3c0.2,0,0.4,0.2,0.4,0.4c0,0.1,0,0.1,0,0.1V37H42c-1.5,2.2-4.2,3.4-7.1,3.4s-5.6-1.2-7.1-3.4
			h-0.4v-0.2c-0.1-0.2,0.1-0.4,0.3-0.5c0.1,0,0.1,0,0.1,0l0,0C33.3,36.3,36.5,36.3,42.1,36.3z"/>
		<polygon fill="#464665" points="24.9,38.5 18,38.5 18.6,35.6 24.4,35.6 		"/>
		<path fill="#464665" d="M10.7,5.6c1.7,0.6,3.3,1.2,4.9,1.6c1.7,0.4,3.3,1,5,1.6c-0.1,1.4,0.8,3,0.9,3.7
			c-0.9,7.3-1.6,15.1-1.7,22.2l3.9,0.1c0.2-7.4,0.2-14.5,0.7-21.7l0.9-1.7c1.4,1,2.6,2.2,3.9,3.2c1.3,1.2,2.7,2.4,4.2,3.5
			c0.3,0.2,0.4,0.4,0.6,0.5c0.2,0.1,0.2,0.2,0.2,0.3v0.6c0,0.3,0.3,0.4,0.5,0.4c0.3,0,0.5-0.2,0.5-0.4v-0.2c0.5,0,0.8-0.2,1-0.5
			c0.3-0.4,0-1-0.4-1.3c-0.2-0.1-0.5-0.2-0.5-0.3v-1.1c0-0.3-0.3-0.4-0.5-0.4c-0.3,0-0.5,0.2-0.5,0.4v0.5c0-0.1,0.1-0.1,0.1-0.1
			c-1.4-1-2.6-2.2-3.9-3.3c-1.3-1.2-2.7-2.4-4.2-3.6c0.3-1.1-0.1-2.2-1.1-3c0.1-0.6,0.2-1.3,0.3-1.9C25.8,3,23,2.5,22.7,4.3
			c-0.1,0.6-0.2,1.3-0.3,2c-0.4,0.5-0.7,0.7-1,0.8c-1.8-0.7-3.5-1.2-5.2-1.7s-3.4-1-5-1.6c-0.2-0.2-0.6-0.2-0.6-0.3V2.7
			c0-0.3-0.3-0.4-0.5-0.4S9.5,2.4,9.5,2.7v0.4C9.5,3,9.4,3,9.4,3C9,2.7,8.4,2.9,8.2,3.4c-0.2,0.4,0,1,0.4,1.2C8.9,4.8,9.2,4.9,9.5,5
			c0.1,0.1,0.1,0.1,0.2,0.1L10.7,5.6z M22.9,10.6c-1.9-0.5-1.1-3.4,0.8-3C25.4,8.1,24.9,11,22.9,10.6z"/>
	</g>
	<polygon fill="#464665" points="12.8,41.2 30.2,41.2 29.5,39.3 13.5,39.3 	"/>
	<path fill="#464665" d="M9.7,6.1v0.2L3.3,20.4c-0.1,0.3,0,0.5,0.3,0.6s0.5,0,0.6-0.3l6-13.4l6,13.4c0.1,0.3,0.4,0.4,0.6,0.3
		c0.3-0.1,0.4-0.4,0.3-0.6L10.8,6.2c0-0.1-0.1-0.1-0.1-0.1L10,5.9C9.8,5.9,9.7,6,9.7,6.1z"/>
</g>
</svg>
