<?xml version="1.0" encoding="utf-8"?>
<!-- Generator: Adobe Illustrator 18.0.0, SVG Export Plug-In . SVG Version: 6.00 Build 0)  -->
<!DOCTYPE svg PUBLIC "-//W3C//DTD SVG 1.1//EN" "http://www.w3.org/Graphics/SVG/1.1/DTD/svg11.dtd" [
	<!ENTITY ns_extend "http://ns.adobe.com/Extensibility/1.0/">
	<!ENTITY ns_ai "http://ns.adobe.com/AdobeIllustrator/10.0/">
	<!ENTITY ns_graphs "http://ns.adobe.com/Graphs/1.0/">
	<!ENTITY ns_vars "http://ns.adobe.com/Variables/1.0/">
	<!ENTITY ns_imrep "http://ns.adobe.com/ImageReplacement/1.0/">
	<!ENTITY ns_sfw "http://ns.adobe.com/SaveForWeb/1.0/">
	<!ENTITY ns_custom "http://ns.adobe.com/GenericCustomNamespace/1.0/">
	<!ENTITY ns_adobe_xpath "http://ns.adobe.com/XPath/1.0/">
]>
<svg version="1.1" id="Lag_1" xmlns:x="&ns_extend;" xmlns:i="&ns_ai;" xmlns:graph="&ns_graphs;"
	 xmlns="http://www.w3.org/2000/svg" xmlns:xlink="http://www.w3.org/1999/xlink" x="0px" y="0px" width="40px" height="40px"
	 viewBox="0 0 40 40" enable-background="new 0 0 40 40" xml:space="preserve">
<metadata>
	<sfw  xmlns="&ns_sfw;">
		<slices></slices>
		<sliceSourceBounds  height="39.7" width="38.9" y="43" x="42.6" bottomLeftOrigin="true"></sliceSourceBounds>
		<optimizationSettings>
			<targetSettings  fileFormat="PNG24Format" targetSettingsID="0">
				<PNG24Format  transparency="true" interlaced="false" noMatteColor="false" filtered="false" matteColor="#FFFFFF">
					</PNG24Format>
			</targetSettings>
		</optimizationSettings>
	</sfw>
</metadata>
<g id="Lag_1_1_">
	<g>
		<g>
			<path fill="#464665" d="M21.3,15.1c-0.4-0.4-1-0.4-1.4,0L6.7,28.3C6,29,6,30.2,6.7,30.9c0.7,0.7,1.8,0.7,2.5,0
				c3.8-3.8,7.6-7.6,11.3-11.3c3.8,3.8,7.6,7.6,11.3,11.3c0.7,0.7,1.8,0.7,2.5,0s0.7-1.8,0-2.5L21.3,15.1z M11.5,3.3
				c0.1,0.1,0.2,0.2,0.3,0.3l0,0c0.1,0,0.1,0.1,0.2,0.1l0,0l0,0l0,0l0,0c0.1,0,0.2,0.1,0.2,0.1l0,0c0.1,0,0.3,0,0.4,0l0,0
				C13,3.7,13.2,3.3,13.3,3c0.1-0.3,0.1-0.7,0.1-1s0-0.7,0-0.9c0-0.3,0-0.4-0.1-0.4c0-0.2-0.2-0.4-0.4-0.4c-0.1,0-0.2,0-0.3,0.1
				c0,0-0.1,0.1-0.3,0.3S12.1,1,11.9,1.3s-0.4,0.6-0.5,0.9S11.3,3,11.5,3.3L11.5,3.3z M20.7,3.3c0.1,0.1,0.2,0.2,0.3,0.3l0,0
				c0.1,0,0.1,0.1,0.2,0.1l0,0l0,0l0,0l0,0c0.1,0,0.2,0.1,0.2,0.1l0,0c0.1,0,0.3,0,0.4,0l0,0c0.4-0.1,0.6-0.5,0.7-0.8s0.1-0.7,0.1-1
				s0-0.7,0-0.9c0-0.3,0-0.4-0.1-0.4c0-0.2-0.2-0.4-0.4-0.4c-0.1,0-0.2,0-0.3,0.1c0,0-0.1,0.1-0.3,0.3c-0.2,0.2-0.4,0.4-0.6,0.7
				S20.5,2,20.4,2.3S20.4,3,20.7,3.3L20.7,3.3z M29.8,3.3c0.1,0.1,0.2,0.2,0.3,0.3l0,0c0.1,0,0.1,0.1,0.2,0.1l0,0l0,0l0,0l0,0
				c0.1,0,0.2,0.1,0.2,0.1l0,0c0.1,0,0.3,0,0.4,0l0,0c0.4-0.1,0.6-0.5,0.7-0.8s0.1-0.7,0.1-1s0-0.7,0-0.9c0-0.3,0-0.4-0.1-0.4
				c0-0.2-0.2-0.4-0.4-0.4c-0.1,0-0.2,0-0.3,0.1c0,0-0.1,0.1-0.3,0.3c-0.2,0.2-0.4,0.4-0.6,0.7S29.6,2,29.5,2.3S29.6,3,29.8,3.3
				L29.8,3.3z M15.1,10.1c0.1,0.1,0.2,0.2,0.3,0.3l0,0c0.1,0,0.1,0.1,0.2,0.1l0,0l0,0l0,0l0,0c0.1,0,0.2,0.1,0.2,0.1l0,0
				c0.1,0,0.3,0,0.4,0l0,0c0.4-0.1,0.6-0.5,0.7-0.8s0.1-0.7,0.1-1s0-0.7,0-0.9c0-0.3,0-0.4-0.1-0.4C17,7.1,16.8,7,16.6,7
				c-0.1,0-0.2,0-0.3,0.1c0,0-0.1,0.1-0.3,0.3c-0.2,0.2-0.4,0.4-0.6,0.7C15.3,8.3,15.1,8.7,15,9S14.8,9.7,15.1,10.1L15.1,10.1z
				 M24.2,10.1c0.1,0.1,0.2,0.2,0.3,0.3l0,0c0.1,0,0.1,0.1,0.2,0.1l0,0l0,0l0,0l0,0c0.1,0,0.2,0.1,0.2,0.1l0,0c0.1,0,0.3,0,0.4,0
				l0,0c0.4-0.1,0.6-0.5,0.7-0.8s0.1-0.7,0.1-1s0-0.7,0-0.9c0-0.3,0-0.4-0.1-0.4C26.2,7.1,26,7,25.8,7c-0.1,0-0.2,0-0.3,0.1
				c0,0-0.1,0.1-0.3,0.3c-0.2,0.2-0.4,0.4-0.6,0.7S24.2,8.7,24.1,9C24,9.3,24,9.7,24.2,10.1L24.2,10.1z M35.4,7.3
				c0-0.2-0.2-0.4-0.4-0.4c-0.1,0-0.2,0-0.3,0.1c0,0-0.1,0.1-0.3,0.3S34,7.8,33.8,8.1S33.4,8.7,33.3,9c-0.1,0.3-0.1,0.7,0.1,1.1l0,0
				c0.1,0.1,0.2,0.2,0.3,0.3l0,0c0.1,0,0.1,0.1,0.2,0.1l0,0l0,0l0,0l0,0c0.1,0,0.2,0.1,0.2,0.1l0,0c0.1,0,0.3,0,0.4,0l0,0
				c0.4-0.1,0.6-0.5,0.7-0.8c0.1-0.3,0.1-0.7,0.1-1s0-0.7,0-0.9C35.4,7.5,35.4,7.4,35.4,7.3z M6.4,10.5L6.4,10.5L6.4,10.5
				C6.4,10.5,6.5,10.5,6.4,10.5L6.4,10.5c0.1,0.1,0.2,0.1,0.3,0.1l0,0c0.1,0,0.3,0,0.4,0l0,0c0.4-0.1,0.6-0.5,0.7-0.8
				C8,9.4,8,9,8,8.7S8,8,8,7.8s0-0.4-0.1-0.4C7.8,7.1,7.7,7,7.5,7S7.2,7,7.2,7.1c0,0-0.1,0.1-0.3,0.3C6.7,7.6,6.5,7.8,6.3,8.1
				C6.1,8.3,5.9,8.7,5.8,9s-0.1,0.7,0.1,1.1l0,0c0.1,0.1,0.2,0.2,0.3,0.3l0,0C6.3,10.4,6.3,10.4,6.4,10.5z M10,17.1
				c0.1,0.1,0.2,0.2,0.3,0.3l0,0c0.1,0,0.1,0.1,0.2,0.1l0,0l0,0l0,0l0,0c0.1,0,0.2,0.1,0.2,0.1l0,0c0.1,0,0.3,0,0.4,0l0,0
				c0.4-0.1,0.6-0.5,0.7-0.8c0.1-0.3,0.1-0.7,0.1-1s0-0.7,0-0.9s0-0.4-0.1-0.4c0-0.2-0.2-0.4-0.4-0.4c-0.1,0-0.2,0-0.3,0.1
				c0,0-0.1,0.1-0.3,0.3s-0.4,0.4-0.6,0.7c-0.2,0.3-0.4,0.6-0.5,0.9C9.8,16.3,9.8,16.7,10,17.1L10,17.1z M28.3,17.1
				c0.1,0.1,0.2,0.2,0.3,0.3l0,0c0.1,0,0.1,0.1,0.2,0.1l0,0l0,0l0,0l0,0c0.1,0,0.2,0.1,0.2,0.1l0,0c0.1,0,0.3,0,0.4,0l0,0
				c0.4-0.1,0.6-0.5,0.7-0.8s0.1-0.7,0.1-1s0-0.7,0-0.9s0-0.4-0.1-0.4c0-0.2-0.2-0.4-0.4-0.4c-0.1,0-0.2,0-0.3,0.1
				c0,0-0.1,0.1-0.3,0.3c-0.2,0.2-0.4,0.4-0.6,0.7s-0.4,0.6-0.5,0.9C28.1,16.3,28.1,16.7,28.3,17.1L28.3,17.1z M39.5,14.8
				c0-0.3,0-0.4-0.1-0.4c0-0.2-0.2-0.4-0.4-0.4c-0.1,0-0.2,0-0.3,0.1c0,0-0.1,0.1-0.3,0.3s-0.4,0.4-0.6,0.7
				c-0.2,0.3-0.4,0.6-0.5,0.9c-0.1,0.3-0.1,0.7,0.1,1.1l0,0c0.1,0.1,0.2,0.2,0.3,0.3l0,0c0.1,0,0.1,0.1,0.2,0.1l0,0l0,0l0,0l0,0
				c0.1,0,0.2,0.1,0.2,0.1l0,0c0.1,0,0.3,0,0.4,0l0,0c0.4-0.1,0.6-0.5,0.7-0.8c0.1-0.3,0.1-0.7,0.1-1S39.6,15,39.5,14.8z M2.8,14.3
				c0-0.2-0.2-0.4-0.4-0.4c-0.1,0-0.2,0-0.3,0.1c0,0-0.1,0.1-0.3,0.3S1.4,14.7,1.2,15c-0.2,0.4-0.3,0.7-0.5,1
				c-0.1,0.3-0.1,0.7,0.1,1.1l0,0c0.1,0.1,0.2,0.2,0.3,0.3l0,0c0.1,0,0.1,0.1,0.2,0.1l0,0l0,0l0,0l0,0c0.1,0,0.2,0.1,0.2,0.1l0,0
				c0.1,0,0.3,0,0.4,0l0,0c0.4-0.1,0.6-0.5,0.7-0.8c0.1-0.3,0.1-0.7,0.1-1s0-0.7,0-0.9S2.8,14.4,2.8,14.3z M9.5,32.1v3.1L31.9,40
				v-7.8L20.7,20.9L9.5,32.1z M23.8,29.9c0,1.7-1.4,3.1-3.1,3.1s-3.1-1.4-3.1-3.1s1.4-3.1,3.1-3.1S23.8,28.2,23.8,29.9z"/>
		</g>
	</g>
</g>
<g id="tekst">
</g>
</svg>
