<?xml version="1.0" encoding="utf-8"?>
<svg version="1.1"  xmlns="http://www.w3.org/2000/svg" xmlns:xlink="http://www.w3.org/1999/xlink" x="0px" y="0px" width="40px" height="40px"
	 viewBox="0 0 40 40" enable-background="new 0 0 40 40" xml:space="preserve">
<g id="Lag_1">
	<g>
		<g>
			<path fill="#FFFFFF" d="M13.3,30c-0.9,0.7-1,1.3-0.7,1.7c0.3,0.4,0.9,0.3,1.8-0.4c0.2-0.2,0.5-0.5,0.7-1c0.2-0.3,0.6-1.2,0.6-1.2
				s-0.8,0.2-1.2,0.3C14,29.6,13.5,29.8,13.3,30z M20.1,18.4L20.1,18.4c0-0.1,0.3-0.8,0.4-1.1c0.2-0.6,0.2-1.1,0.2-1.4
				c-0.1-1.1-0.5-1.6-1-1.6c-0.5,0-0.8,0.6-0.7,1.7c0,0.3,0.2,0.7,0.4,1.2C19.6,17.5,20.1,18.3,20.1,18.4z M29,26.4
				c-0.3-0.1-0.7-0.1-1.2-0.1c-0.3,0-1.4,0.1-1.4,0.1s0.6,0.6,0.9,0.8c0.5,0.4,0.9,0.7,1.2,0.8c1.1,0.4,1.7,0.2,1.8-0.2
				C30.5,27.3,30.1,26.8,29,26.4z M35.7,8l-7.8-7.8C27.8,0.1,27.5,0,27.3,0H6.9C6.5,0,6.1,0.4,6.1,0.8v38.1c0,0.5,0.4,0.8,0.9,0.8
				h28.1c0.5,0,0.9-0.4,0.9-0.8V8.6C36,8.4,35.9,8.2,35.7,8z M31.9,28.3c-0.5,1.4-2.1,1.9-3.9,1.3c-0.5-0.2-1.1-0.5-1.7-1.1
				c-0.3-0.3-0.6-0.5-0.9-0.9c-0.2-0.3-0.5-0.5-0.7-0.8c-0.5,0.1-1.1,0.2-1.7,0.4c-1.8,0.4-3.6,0.9-5.3,1.4l-0.2,0.4
				c-0.1,0.3-0.2,0.6-0.4,0.9c-0.2,0.4-0.4,0.8-0.6,1.1c-0.4,0.6-0.7,1.1-1.1,1.4c-1.5,1.3-3.2,1.4-4.1,0.2c-1-1.2-0.6-2.8,0.9-4
				c0.4-0.4,1-0.7,1.8-0.9c0.4-0.1,0.8-0.2,1.2-0.3c0.4-0.1,0.8-0.2,1.2-0.2c0.1,0,0.1,0,0.1,0c0.3-0.6,0.6-1.4,1-2.3
				c0.1-0.2,0.2-0.4,0.3-0.7c0.4-1.1,0.9-2.3,1.4-3.4c0.1-0.2,0.1-0.3,0.2-0.5c0,0-0.1-0.1-0.1-0.1c-0.2-0.4-0.5-0.7-0.7-1.1
				c-0.2-0.4-0.4-0.7-0.6-1.1c-0.3-0.6-0.5-1.2-0.5-1.7c-0.2-2,0.7-3.4,2.2-3.5c1.5-0.1,2.6,1.1,2.8,3.1c0,0.6-0.1,1.2-0.3,2
				c-0.1,0.4-0.3,0.8-0.4,1.2c-0.1,0.3-0.3,0.6-0.4,0.9c0.1,0.2,0.2,0.4,0.4,0.7c0.6,1,1.3,2.1,2.1,3c0.4,0.5,0.8,1,1.3,1.4
				c0,0,0.1,0,0.1,0c0.4-0.1,0.9-0.2,1.3-0.2c0.4-0.1,0.8-0.1,1.2-0.1c0.7,0,1.3,0,1.8,0.2C31.4,25.5,32.4,26.8,31.9,28.3z M26.8,10
				C26.3,10,26,9.6,26,9.1V1.7l8.2,8.3H26.8z M20.5,21.8c-0.4,1-0.8,2-1.2,3c-0.1,0.2-0.2,0.5-0.3,0.7c-0.2,0.4-0.3,0.8-0.5,1.2
				c1.3-0.4,2.7-0.7,4-1c0.3-0.1,0.5-0.1,0.7-0.2c-0.2-0.3-0.5-0.5-0.7-0.8C21.8,23.7,21.1,22.8,20.5,21.8z"/>
		</g>
	</g>
</g>
<g id="tekst">
</g>
</svg>
