<?xml version="1.0" encoding="utf-8"?>
<svg version="1.1"  xmlns="http://www.w3.org/2000/svg" xmlns:xlink="http://www.w3.org/1999/xlink" x="0px" y="0px" width="40px" height="40px"
	 viewBox="0 0 40 40" enable-background="new 0 0 40 40" xml:space="preserve">
<g id="Lag_1">
	<path d="M30.9,28.4h2.8v2.8h-2.8v0.7c0,1.1-0.9,2.1-2.1,2.1c-1.1,0-2.1-0.9-2.1-2.1v-0.7h-1.4v0.7c0,1.1-0.9,2.1-2.1,2.1
		c-1.1,0-2.1-0.9-2.1-2.1v-0.7h-1.4v0.7c0,1.1-0.9,2.1-2.1,2.1s-2.1-0.9-2.1-2.1v-0.7H6.1v-2.8h9.6v-0.7c0-1.1,0.9-2.1,2.1-2.1
		s2.1,0.9,2.1,2.1v0.7h1.4v-0.7c0-1.1,0.9-2.1,2.1-2.1c1.1,0,2.1,0.9,2.1,2.1v0.7h1.4v-0.7c0-1.1,0.9-2.1,2.1-2.1
		c1.1,0,2.1,0.9,2.1,2.1V28.4z M30.9,9.1h2.8v2.8h-2.8v0.7c0,1.1-0.9,2.1-2.1,2.1s-2.1-0.9-2.1-2.1v-0.7h-1.4v0.7
		c0,1.1-0.9,2.1-2.1,2.1c-1.1,0-2.1-0.9-2.1-2.1v-0.7h-5.5v0.7c0,1.1-0.9,2.1-2.1,2.1s-2.1-0.9-2.1-2.1v-0.7H6.1V9.1h5.5V8.5
		c0-1.1,0.9-2.1,2.1-2.1s2.1,0.9,2.1,2.1v0.7h5.5V8.5c0-1.1,0.9-2.1,2.1-2.1c1.1,0,2.1,0.9,2.1,2.1v0.7h1.4V8.5
		c0-1.1,0.9-2.1,2.1-2.1s2.1,0.9,2.1,2.1V9.1z M28.2,18.8h5.5v2.8h-5.5v0.7c0,1.1-0.9,2.1-2.1,2.1S24,23.4,24,22.2v-0.7h-5.5v0.7
		c0,1.1-0.9,2.1-2.1,2.1s-2.1-0.9-2.1-2.1v-0.7H13v0.7c0,1.1-0.9,2.1-2.1,2.1s-2.1-0.9-2.1-2.1v-0.7H6.1v-2.8h2.8v-0.7
		C8.9,17,9.8,16,11,16S13,17,13,18.1v0.7h1.4v-0.7c0-1.1,0.9-2.1,2.1-2.1s2.1,0.9,2.1,2.1v0.7H24v-0.7C24,17,25,16,26.1,16
		s2.1,0.9,2.1,2.1V18.8z M35.1,34.6c0,0.4-0.3,0.7-0.7,0.7H5.4c-0.4,0-0.7-0.3-0.7-0.7V5.7C4.8,5.3,5.1,5,5.4,5h28.9
		c0.4,0,0.7,0.3,0.7,0.7V34.6z M35.1,0.9H4.8C2.5,0.9,0.6,2.7,0.6,5v30.3c0,2.3,1.9,4.1,4.1,4.1h30.3c2.3,0,4.1-1.9,4.1-4.1V5
		C39.2,2.7,37.4,0.9,35.1,0.9z"/>
</g>
</svg>
