<?xml version="1.0" encoding="utf-8"?>
<!-- Generator: Adobe Illustrator 18.0.0, SVG Export Plug-In . SVG Version: 6.00 Build 0)  -->
<!DOCTYPE svg PUBLIC "-//W3C//DTD SVG 1.1//EN" "http://www.w3.org/Graphics/SVG/1.1/DTD/svg11.dtd" [
	<!ENTITY ns_extend "http://ns.adobe.com/Extensibility/1.0/">
	<!ENTITY ns_ai "http://ns.adobe.com/AdobeIllustrator/10.0/">
	<!ENTITY ns_graphs "http://ns.adobe.com/Graphs/1.0/">
	<!ENTITY ns_vars "http://ns.adobe.com/Variables/1.0/">
	<!ENTITY ns_imrep "http://ns.adobe.com/ImageReplacement/1.0/">
	<!ENTITY ns_sfw "http://ns.adobe.com/SaveForWeb/1.0/">
	<!ENTITY ns_custom "http://ns.adobe.com/GenericCustomNamespace/1.0/">
	<!ENTITY ns_adobe_xpath "http://ns.adobe.com/XPath/1.0/">
]>
<svg version="1.1" id="Lag_1" xmlns:x="&ns_extend;" xmlns:i="&ns_ai;" xmlns:graph="&ns_graphs;"
	 xmlns="http://www.w3.org/2000/svg" xmlns:xlink="http://www.w3.org/1999/xlink" x="0px" y="0px" width="40px" height="40px"
	 viewBox="0 0 40 40" enable-background="new 0 0 40 40" xml:space="preserve">
<metadata>
	<sfw  xmlns="&ns_sfw;">
		<slices></slices>
		<sliceSourceBounds  height="36.8" width="33.5" x="1.1" y="-38.3" bottomLeftOrigin="true"></sliceSourceBounds>
		<optimizationSettings>
			<targetSettings  targetSettingsID="0" fileFormat="PNG24Format">
				<PNG24Format  transparency="true" filtered="false" matteColor="#FFFFFF" noMatteColor="true" interlaced="false">
					</PNG24Format>
			</targetSettings>
		</optimizationSettings>
	</sfw>
</metadata>
<g>
	<g>
		<path d="M18.8,16.1c0,0.7,0.6,1.3,1.3,1.3s1.3-0.6,1.3-1.3s-0.6-1.3-1.3-1.3S18.8,15.4,18.8,16.1z M23.2,15.4
			c0.7,0,1.3-0.6,1.3-1.3s-0.6-1.3-1.3-1.3c-0.7,0-1.3,0.6-1.3,1.3S22.4,15.4,23.2,15.4z M15.7,18.2c0,0.7,0.6,1.3,1.3,1.3
			s1.3-0.6,1.3-1.3s-0.6-1.3-1.3-1.3S15.7,17.5,15.7,18.2z M12.6,20.3c0,0.7,0.6,1.3,1.3,1.3s1.3-0.6,1.3-1.3S14.6,19,13.9,19
			S12.6,19.6,12.6,20.3z M21.7,17.8c-0.3,0.3-0.7,0.5-1.1,0.6l4,10.1l-13.9,5.3L3.1,14.5l13.9-5.3l1.9,5c0.3-0.2,0.7-0.3,1.2-0.3
			c0,0,0,0,0.1,0l-2.8-7.1c-0.3-0.7-1-1-1.7-0.8L1.9,11.2c-0.7,0.3-1,1-0.8,1.7l9.5,24.5c0.3,0.7,1,1,1.7,0.8l13.7-5.3
			c0.7-0.3,1-1,0.8-1.7L21.7,17.8z M6.8,11.4l5.3-2c0.1-0.1,0.3,0,0.3,0.2s0,0.3-0.2,0.3l-5.3,2c-0.1,0.1-0.3,0-0.3-0.2
			C6.6,11.6,6.7,11.5,6.8,11.4z M18.9,34.8c-0.7,0.3-1.6-0.1-1.9-0.8c-0.3-0.7,0.1-1.6,0.8-1.9c0.7-0.3,1.6,0.1,1.9,0.8
			C20,33.6,19.6,34.5,18.9,34.8z M32.9,15.2c1.1-0.9,1.7-2,1.6-3.4c-0.1-2.5-2.1-3.4-4.6-4.1c-2.1-0.6-3.5-1.1-3.5-2.5
			c0-1.2,1.1-2.1,2.8-2.1c1,0,1.9,0.1,2.5,0.4c0.4,0.2,0.9-0.1,1.1-0.5l0,0c0.1-0.4-0.1-0.9-0.5-1c-0.9-0.3-1.9-0.5-3.1-0.4
			c-2.8,0.1-5,1.7-4.9,4.1c0.1,0.9,0.5,1.8,1.1,2.3c-1.4,1-1.9,2.2-1.9,3.3c0.1,2.3,2.1,3.3,4.9,4.1c2.6,0.8,3.4,1.4,3.4,2.7
			c0.1,1.4-1.2,2.3-3,2.4c-1.1,0-2.1-0.2-2.9-0.6c-0.4-0.2-0.9,0-1.1,0.4l0,0.1c-0.1,0.4,0,0.8,0.4,1c1,0.5,2.3,0.7,3.7,0.6
			c2.5-0.1,5.1-1.4,5-4.3C34,16.4,33.4,15.6,32.9,15.2z M31.6,14.4c-0.6-0.4-1.8-0.8-3.2-1.2c-2.2-0.7-3-1.5-3-2.5
			c0-0.8,0.3-1.5,1.2-2.2C27.5,9,28.9,9.4,30,9.8c1.8,0.6,2.5,1.4,2.5,2.4C32.6,13.1,32.3,13.9,31.6,14.4z"/>
	</g>
</g>
</svg>
