<?xml version="1.0" encoding="utf-8"?>
<!-- Generator: Adobe Illustrator 18.0.0, SVG Export Plug-In . SVG Version: 6.00 Build 0)  -->
<!DOCTYPE svg PUBLIC "-//W3C//DTD SVG 1.1//EN" "http://www.w3.org/Graphics/SVG/1.1/DTD/svg11.dtd" [
	<!ENTITY ns_extend "http://ns.adobe.com/Extensibility/1.0/">
	<!ENTITY ns_ai "http://ns.adobe.com/AdobeIllustrator/10.0/">
	<!ENTITY ns_graphs "http://ns.adobe.com/Graphs/1.0/">
	<!ENTITY ns_vars "http://ns.adobe.com/Variables/1.0/">
	<!ENTITY ns_imrep "http://ns.adobe.com/ImageReplacement/1.0/">
	<!ENTITY ns_sfw "http://ns.adobe.com/SaveForWeb/1.0/">
	<!ENTITY ns_custom "http://ns.adobe.com/GenericCustomNamespace/1.0/">
	<!ENTITY ns_adobe_xpath "http://ns.adobe.com/XPath/1.0/">
]>
<svg version="1.1" id="Lag_1" xmlns:x="&ns_extend;" xmlns:i="&ns_ai;" xmlns:graph="&ns_graphs;"
	 xmlns="http://www.w3.org/2000/svg" xmlns:xlink="http://www.w3.org/1999/xlink" x="0px" y="0px" width="40px" height="40px"
	 viewBox="0 0 40 40" enable-background="new 0 0 40 40" xml:space="preserve">
<metadata>
	<sfw  xmlns="&ns_sfw;">
		<slices></slices>
		<sliceSourceBounds  height="38" width="36.5" y="44" x="43.9" bottomLeftOrigin="true"></sliceSourceBounds>
		<optimizationSettings>
			<targetSettings  fileFormat="PNG24Format" targetSettingsID="0">
				<PNG24Format  transparency="true" interlaced="false" noMatteColor="false" filtered="false" matteColor="#FFFFFF">
					</PNG24Format>
			</targetSettings>
		</optimizationSettings>
	</sfw>
</metadata>
<g id="Lag_1_1_">
	<path fill="#464665" d="M35.9,1H7.3L17,5.9h16.4v2.4H21.9l3.2,1.6c1.3,0.6,2.4,1.9,3,3.3h5.4v2.4h-4.8v12.1H36
		c1.3,0,2.4-1.1,2.4-2.4V3.4C38.3,2.1,37.2,1,35.9,1"/>
</g>
<g>
	<path fill="#464665" d="M18.9,27.7c-1.3,0-2.4-1.6-2.4-3.6s1.1-3.6,2.4-3.6s2.4,1.6,2.4,3.6C21.3,26,20.2,27.7,18.9,27.7 M24,12
		L4.1,2.1C3.8,1.9,3.5,1.9,3.2,1.9c-0.8,0-1.3,0.6-1.3,1.6v21.8c0,1.3,1,2.9,2.2,3.5l19.9,10c0.3,0.2,0.6,0.2,0.9,0.2
		c0.8,0,1.3-0.6,1.3-1.6V15.6C26.2,14.2,25.2,12.6,24,12"/>
</g>
</svg>
