<?xml version="1.0" encoding="utf-8"?>
<!-- Generator: Adobe Illustrator 18.0.0, SVG Export Plug-In . SVG Version: 6.00 Build 0)  -->
<!DOCTYPE svg PUBLIC "-//W3C//DTD SVG 1.1//EN" "http://www.w3.org/Graphics/SVG/1.1/DTD/svg11.dtd" [
	<!ENTITY ns_extend "http://ns.adobe.com/Extensibility/1.0/">
	<!ENTITY ns_ai "http://ns.adobe.com/AdobeIllustrator/10.0/">
	<!ENTITY ns_graphs "http://ns.adobe.com/Graphs/1.0/">
	<!ENTITY ns_vars "http://ns.adobe.com/Variables/1.0/">
	<!ENTITY ns_imrep "http://ns.adobe.com/ImageReplacement/1.0/">
	<!ENTITY ns_sfw "http://ns.adobe.com/SaveForWeb/1.0/">
	<!ENTITY ns_custom "http://ns.adobe.com/GenericCustomNamespace/1.0/">
	<!ENTITY ns_adobe_xpath "http://ns.adobe.com/XPath/1.0/">
]>
<svg version="1.1" id="Lag_1" xmlns:x="&ns_extend;" xmlns:i="&ns_ai;" xmlns:graph="&ns_graphs;"
	 xmlns="http://www.w3.org/2000/svg" xmlns:xlink="http://www.w3.org/1999/xlink" x="0px" y="0px" width="40px" height="40px"
	 viewBox="0 0 40 40" enable-background="new 0 0 40 40" xml:space="preserve">
<metadata>
	<sfw  xmlns="&ns_sfw;">
		<slices></slices>
		<sliceSourceBounds  height="40" width="31.1" y="43" x="45.6" bottomLeftOrigin="true"></sliceSourceBounds>
		<optimizationSettings>
			<targetSettings  fileFormat="PNG24Format" targetSettingsID="0">
				<PNG24Format  transparency="true" interlaced="false" noMatteColor="false" filtered="false" matteColor="#FFFFFF">
					</PNG24Format>
			</targetSettings>
		</optimizationSettings>
	</sfw>
</metadata>
<g id="Lag_1_1_">
	<path fill="#464665" d="M20.2,0C9.2,0,3.6,7.9,3.6,14.4c0,4,1.5,7.4,4.7,8.7c0.4,0.2,1.1,0,1.1-0.6c0.2-0.4,0.4-1.5,0.4-1.9
		c0.2-0.6,0-0.8-0.4-1.3c-0.8-1.1-1.5-2.5-1.5-4.5c0-5.7,4.5-11,11.3-11c6.2,0,9.6,3.8,9.6,8.9c0,6.6-3,12.3-7.2,12.3
		c-2.3,0-4.2-1.9-3.6-4.5c0.6-3,2.1-6.2,2.1-8.3c0-1.9-1.1-3.4-3.2-3.4c-2.5,0-4.5,2.5-4.5,5.9c0,2.1,0.6,3.6,0.6,3.6
		S10.4,29.1,10,31c-0.8,3.8-0.2,8.3,0,8.7c0,0.2,0.4,0.4,0.6,0.2c0.2-0.2,3.2-3.8,4.2-7.6c0.2-1.1,1.7-6.4,1.7-6.4
		c0.8,1.5,3.2,3,5.7,3c7.4,0,12.5-6.8,12.5-15.7C34.8,6.4,29.1,0,20.2,0z"/>
</g>
<g id="tekst">
</g>
</svg>
