<?xml version="1.0" encoding="utf-8"?>
<!-- Generator: Adobe Illustrator 18.0.0, SVG Export Plug-In . SVG Version: 6.00 Build 0)  -->
<!DOCTYPE svg PUBLIC "-//W3C//DTD SVG 1.1//EN" "http://www.w3.org/Graphics/SVG/1.1/DTD/svg11.dtd" [
	<!ENTITY ns_extend "http://ns.adobe.com/Extensibility/1.0/">
	<!ENTITY ns_ai "http://ns.adobe.com/AdobeIllustrator/10.0/">
	<!ENTITY ns_graphs "http://ns.adobe.com/Graphs/1.0/">
	<!ENTITY ns_vars "http://ns.adobe.com/Variables/1.0/">
	<!ENTITY ns_imrep "http://ns.adobe.com/ImageReplacement/1.0/">
	<!ENTITY ns_sfw "http://ns.adobe.com/SaveForWeb/1.0/">
	<!ENTITY ns_custom "http://ns.adobe.com/GenericCustomNamespace/1.0/">
	<!ENTITY ns_adobe_xpath "http://ns.adobe.com/XPath/1.0/">
]>
<svg version="1.1" id="Lag_1" xmlns:x="&ns_extend;" xmlns:i="&ns_ai;" xmlns:graph="&ns_graphs;"
	 xmlns="http://www.w3.org/2000/svg" xmlns:xlink="http://www.w3.org/1999/xlink" x="0px" y="0px" width="40px" height="40px"
	 viewBox="0 0 40 40" enable-background="new 0 0 40 40" xml:space="preserve">
<metadata>
	<sfw  xmlns="&ns_sfw;">
		<slices></slices>
		<sliceSourceBounds  height="31" width="38.2" y="47.2" x="43" bottomLeftOrigin="true"></sliceSourceBounds>
		<optimizationSettings>
			<targetSettings  fileFormat="PNG24Format" targetSettingsID="0">
				<PNG24Format  transparency="true" interlaced="false" noMatteColor="false" filtered="false" matteColor="#FFFFFF">
					</PNG24Format>
			</targetSettings>
		</optimizationSettings>
	</sfw>
</metadata>
<g id="Lag_1_1_">
	<path fill="#464665" d="M39.2,8.5c-1.4,0.6-2.9,1-4.5,1.2c1.7-1,2.9-2.5,3.5-4.3c-1.4,0.8-3.3,1.7-5,1.9c-1.4-1.4-3.5-2.5-5.8-2.5
		c-4.3,0-7.8,3.5-7.8,7.8c0,0.6,0,1.2,0.2,1.9C13.2,14.1,7.4,11,3.5,6.3c-0.6,1.2-1,2.5-1,3.9c0,2.7,1.4,5.2,3.5,6.6
		c-1.2,0-2.5-0.4-3.5-1l0,0c0,3.9,2.7,7,6.4,7.8c-0.6,0.2-1.4,0.2-2.1,0.2c-0.4,0-1,0-1.4-0.2c1,3.1,3.9,5.4,7.4,5.6
		c-2.7,2.1-6.2,3.3-9.9,3.3c-0.6,0-1.2,0-1.9-0.2c3.5,2.3,7.6,3.5,12.2,3.5c14.6,0,22.5-12,22.5-22.5c0-0.4,0-0.6,0-1
		C36.7,11.6,38.2,10.2,39.2,8.5z"/>
</g>
<g id="tekst">
</g>
</svg>
