<?xml version="1.0" encoding="utf-8"?>
<!-- Generator: Adobe Illustrator 18.0.0, SVG Export Plug-In . SVG Version: 6.00 Build 0)  -->
<!DOCTYPE svg PUBLIC "-//W3C//DTD SVG 1.1//EN" "http://www.w3.org/Graphics/SVG/1.1/DTD/svg11.dtd" [
	<!ENTITY ns_extend "http://ns.adobe.com/Extensibility/1.0/">
	<!ENTITY ns_ai "http://ns.adobe.com/AdobeIllustrator/10.0/">
	<!ENTITY ns_graphs "http://ns.adobe.com/Graphs/1.0/">
	<!ENTITY ns_vars "http://ns.adobe.com/Variables/1.0/">
	<!ENTITY ns_imrep "http://ns.adobe.com/ImageReplacement/1.0/">
	<!ENTITY ns_sfw "http://ns.adobe.com/SaveForWeb/1.0/">
	<!ENTITY ns_custom "http://ns.adobe.com/GenericCustomNamespace/1.0/">
	<!ENTITY ns_adobe_xpath "http://ns.adobe.com/XPath/1.0/">
]>
<svg version="1.1" id="Lag_1" xmlns:x="&ns_extend;" xmlns:i="&ns_ai;" xmlns:graph="&ns_graphs;"
	 xmlns="http://www.w3.org/2000/svg" xmlns:xlink="http://www.w3.org/1999/xlink" x="0px" y="0px" width="40px" height="40px"
	 viewBox="0 0 40 40" enable-background="new 0 0 40 40" xml:space="preserve">
<metadata>
	<sfw  xmlns="&ns_sfw;">
		<slices></slices>
		<sliceSourceBounds  height="21.6" width="39.9" y="52.9" x="42.2" bottomLeftOrigin="true"></sliceSourceBounds>
		<optimizationSettings>
			<targetSettings  fileFormat="PNG24Format" targetSettingsID="0">
				<PNG24Format  transparency="true" interlaced="false" noMatteColor="false" filtered="false" matteColor="#FFFFFF">
					</PNG24Format>
			</targetSettings>
		</optimizationSettings>
	</sfw>
</metadata>
<g id="Lag_1_1_">
	<g>
		<path fill="#464665" d="M35.6,20c0,0.1-0.1,0.2-0.3,0.3h-0.1h-0.1c-0.1,0-0.2-0.1-0.2-0.1c-0.3,0-0.5-0.3-0.6-0.5
			c-3.6-6.5-10.4-6.8-11.8-6.8c-0.2,0-0.3,0-0.3,0h-0.1c-4.7,0-7.3,3.6-7.3,3.7c-0.3,0.4-0.9,0.5-1.3,0.2c-0.2-0.1-0.3-0.3-0.4-0.6
			c0-0.2,0-0.5,0.2-0.7c0.1-0.2,3.2-4.4,8.8-4.4h0.2c0.9,0,8.7,0.2,13.1,8.2C35.6,19.6,35.7,19.8,35.6,20z M27.3,19.5
			c-0.7,0-1.2-0.5-1.2-1.2s0.5-1.2,1.2-1.2s1.2,0.5,1.2,1.2C28.5,18.9,28,19.5,27.3,19.5z M22.8,19.5c-0.7,0-1.2-0.5-1.2-1.2
			s0.5-1.2,1.2-1.2s1.2,0.5,1.2,1.2C24,18.9,23.5,19.5,22.8,19.5z M18.4,19.5c-0.7,0-1.2-0.5-1.2-1.2s0.5-1.2,1.2-1.2
			s1.2,0.5,1.2,1.2C19.5,18.9,19,19.5,18.4,19.5z M38.7,26.9l-0.2-0.4c0,0-0.1-2-0.4-5.1c-0.1-0.6-0.7-1.2-0.9-1.8
			c-1.1-3.5-3-7.1-8-9.5c0,0-6.6-3.8-14.5,0.4c0,0-3.3,1.7-4.9,5.2C9.5,16.4,8.2,17,8,17.8c0,0-0.2,8-3.4,9c0,0-2.1,0.8-2.9,1
			c0,0-2.3,0.6-1.2,1.9c0,0,0.3,0.8,5.2,0.1c0,0,10.1-1.7,19-0.3c0,0,11.8,1.9,15.2-1C39.9,28.5,40.7,27.6,38.7,26.9z"/>
	</g>
</g>
<g id="tekst">
</g>
</svg>
