<?xml version="1.0" encoding="utf-8"?>
<!-- Generator: Adobe Illustrator 18.0.0, SVG Export Plug-In . SVG Version: 6.00 Build 0)  -->
<!DOCTYPE svg PUBLIC "-//W3C//DTD SVG 1.1//EN" "http://www.w3.org/Graphics/SVG/1.1/DTD/svg11.dtd" [
	<!ENTITY ns_extend "http://ns.adobe.com/Extensibility/1.0/">
	<!ENTITY ns_ai "http://ns.adobe.com/AdobeIllustrator/10.0/">
	<!ENTITY ns_graphs "http://ns.adobe.com/Graphs/1.0/">
	<!ENTITY ns_vars "http://ns.adobe.com/Variables/1.0/">
	<!ENTITY ns_imrep "http://ns.adobe.com/ImageReplacement/1.0/">
	<!ENTITY ns_sfw "http://ns.adobe.com/SaveForWeb/1.0/">
	<!ENTITY ns_custom "http://ns.adobe.com/GenericCustomNamespace/1.0/">
	<!ENTITY ns_adobe_xpath "http://ns.adobe.com/XPath/1.0/">
]>
<svg version="1.1" id="Lag_1" xmlns:x="&ns_extend;" xmlns:i="&ns_ai;" xmlns:graph="&ns_graphs;"
	 xmlns="http://www.w3.org/2000/svg" xmlns:xlink="http://www.w3.org/1999/xlink" x="0px" y="0px" width="40px" height="40px"
	 viewBox="0 0 40 40" enable-background="new 0 0 40 40" xml:space="preserve">
<metadata>
	<sfw  xmlns="&ns_sfw;">
		<slices></slices>
		<sliceSourceBounds  height="39.7" width="29.9" y="43.3" x="48.1" bottomLeftOrigin="true"></sliceSourceBounds>
		<optimizationSettings>
			<targetSettings  fileFormat="PNG24Format" targetSettingsID="0">
				<PNG24Format  transparency="true" interlaced="false" noMatteColor="false" filtered="false" matteColor="#FFFFFF">
					</PNG24Format>
			</targetSettings>
		</optimizationSettings>
	</sfw>
</metadata>
<g id="tekst">
</g>
<path fill="#464665" d="M35.7,8l-7.8-7.8C27.8,0.1,27.5,0,27.3,0H6.9C6.5,0,6.1,0.4,6.1,0.8v38.1c0,0.5,0.4,0.8,0.9,0.8h28.1
	c0.5,0,0.9-0.4,0.9-0.8V8.6C36,8.4,35.9,8.2,35.7,8z M14.4,26.3l-2.1-3.5l-2.2,3.5H8.6l2.8-4.4l-2.7-4.1h1.6l2,3.2l2-3.2h1.5
	l-2.7,4.1l2.9,4.4H14.4z M26,26.3h-1.3V22c0-0.4,0-1,0-1.7s0-1.1,0.1-1.2l0,0l-2.6,7.1H21L18.5,19l0,0c0.1,1.1,0.1,2.1,0.1,3v4.2
	h-1.3v-8.6h2l2.4,6.8l0,0l2.4-6.8h2v8.7H26z M33.3,26.3h-5v-8.6h1.4v7.4h3.6V26.3z M26.8,10C26.3,10,26,9.6,26,9.1V1.7l8.2,8.3H26.8
	z"/>
</svg>
