<?xml version="1.0" encoding="utf-8"?>
<!-- Generator: Adobe Illustrator 18.0.0, SVG Export Plug-In . SVG Version: 6.00 Build 0)  -->
<!DOCTYPE svg PUBLIC "-//W3C//DTD SVG 1.1//EN" "http://www.w3.org/Graphics/SVG/1.1/DTD/svg11.dtd" [
	<!ENTITY ns_extend "http://ns.adobe.com/Extensibility/1.0/">
	<!ENTITY ns_ai "http://ns.adobe.com/AdobeIllustrator/10.0/">
	<!ENTITY ns_graphs "http://ns.adobe.com/Graphs/1.0/">
	<!ENTITY ns_vars "http://ns.adobe.com/Variables/1.0/">
	<!ENTITY ns_imrep "http://ns.adobe.com/ImageReplacement/1.0/">
	<!ENTITY ns_sfw "http://ns.adobe.com/SaveForWeb/1.0/">
	<!ENTITY ns_custom "http://ns.adobe.com/GenericCustomNamespace/1.0/">
	<!ENTITY ns_adobe_xpath "http://ns.adobe.com/XPath/1.0/">
]>
<svg version="1.1" id="Lag_1" xmlns:x="&ns_extend;" xmlns:i="&ns_ai;" xmlns:graph="&ns_graphs;"
	 xmlns="http://www.w3.org/2000/svg" xmlns:xlink="http://www.w3.org/1999/xlink" x="0px" y="0px" width="40px" height="40px"
	 viewBox="0 0 40 40" enable-background="new 0 0 40 40" xml:space="preserve">
<metadata>
	<sfw  xmlns="&ns_sfw;">
		<slices></slices>
		<sliceSourceBounds  height="28" width="38.5" y="49.8" x="43.1" bottomLeftOrigin="true"></sliceSourceBounds>
		<optimizationSettings>
			<targetSettings  fileFormat="PNG24Format" targetSettingsID="0">
				<PNG24Format  transparency="true" interlaced="false" noMatteColor="false" filtered="false" matteColor="#FFFFFF">
					</PNG24Format>
			</targetSettings>
		</optimizationSettings>
	</sfw>
</metadata>
<g id="Lag_1_1_">
	<g>
		<g>
			<path fill="#464665" d="M33.2,32H10.8H5.1H3.2C3.1,32,3,32.3,3,32.6s0.1,0.6,0.2,0.6h30c0.1,0,0.2-0.3,0.2-0.6S33.3,32,33.2,32z
				 M39.5,10.8l-2.6-5.3c-0.1-0.2-0.5-0.4-0.8-0.2L10.8,17.6v-1l0,0v-0.1c0-0.2-0.2-0.5-0.5-0.5H5.6c-0.2,0-0.5,0.2-0.5,0.5v4.1
				l-3.7,1.9C1.2,22.6,1,23,1.2,23.2l2.6,5.3c0.1,0.2,0.5,0.4,0.7,0.2l0.6-0.2v2.8h5.8v-4.5l0,0v-1.1l0,0l28.4-13.9
				C39.6,11.6,39.7,11.2,39.5,10.8z M4.7,28l-0.9-6l2.8-1.4l0.9,5.9L4.7,28z M10.5,25.2l-0.9-5.9l2.8-1.5l0.9,5.9L10.5,25.2z
				 M16.2,22.3l-0.9-5.9l2.8-1.5l0.9,6L16.2,22.3z M21.8,19.5L21,13.6l2.8-1.4l0.9,5.9L21.8,19.5z M27.6,16.8l-0.9-6l2.8-1.4
				l0.9,5.9L27.6,16.8z M33.3,13.8l-0.9-5.9L35,6.6h0.1h0.1l0.9,5.8L33.3,13.8z"/>
		</g>
	</g>
</g>
<g id="tekst">
</g>
</svg>
