<?xml version="1.0" encoding="utf-8"?>
<!-- Generator: Adobe Illustrator 18.0.0, SVG Export Plug-In . SVG Version: 6.00 Build 0)  -->
<!DOCTYPE svg PUBLIC "-//W3C//DTD SVG 1.1//EN" "http://www.w3.org/Graphics/SVG/1.1/DTD/svg11.dtd" [
	<!ENTITY ns_extend "http://ns.adobe.com/Extensibility/1.0/">
	<!ENTITY ns_ai "http://ns.adobe.com/AdobeIllustrator/10.0/">
	<!ENTITY ns_graphs "http://ns.adobe.com/Graphs/1.0/">
	<!ENTITY ns_vars "http://ns.adobe.com/Variables/1.0/">
	<!ENTITY ns_imrep "http://ns.adobe.com/ImageReplacement/1.0/">
	<!ENTITY ns_sfw "http://ns.adobe.com/SaveForWeb/1.0/">
	<!ENTITY ns_custom "http://ns.adobe.com/GenericCustomNamespace/1.0/">
	<!ENTITY ns_adobe_xpath "http://ns.adobe.com/XPath/1.0/">
]>
<svg version="1.1" id="Lag_1" xmlns:x="&ns_extend;" xmlns:i="&ns_ai;" xmlns:graph="&ns_graphs;"
	 xmlns="http://www.w3.org/2000/svg" xmlns:xlink="http://www.w3.org/1999/xlink" x="0px" y="0px" width="40px" height="40px"
	 viewBox="0 0 40 40" enable-background="new 0 0 40 40" xml:space="preserve">
<metadata>
	<sfw  xmlns="&ns_sfw;">
		<slices></slices>
		<sliceSourceBounds  height="39.1" width="22.3" y="43.4" x="51.1" bottomLeftOrigin="true"></sliceSourceBounds>
		<optimizationSettings>
			<targetSettings  fileFormat="PNG24Format" targetSettingsID="0">
				<PNG24Format  transparency="true" interlaced="false" noMatteColor="false" filtered="false" matteColor="#FFFFFF">
					</PNG24Format>
			</targetSettings>
		</optimizationSettings>
	</sfw>
</metadata>
<g id="Lag_1_1_">
	<g>
		<g>
			<path fill="#464665" d="M9.1,0.5v39.1h0.8V2.1h19.9v37.5h1.6V0.5H9.1z M22.4,21h-0.1c-0.4,0-0.8,0.3-0.8,0.7
				c0,0.4,0.4,0.7,0.8,0.7c0.1,0,0.1,0,0.1,0c0.2,0.2,0.5,0.4,0.8,0.4c0.6,0,1.1-0.5,1.1-1.1s-0.5-1.1-1.1-1.1
				C22.9,20.7,22.6,20.8,22.4,21z M23.4,30.8v-7.5l-0.1-0.1c-0.4,0-0.8-0.4-1-0.4l0,0c-0.7,0-1.2-0.5-1.2-1.2c0-0.6,0.6-1.2,1.2-1.2
				l0,0c0.2,0,0.3-0.1,0.8-0.2v0.1c0,0,0,0,0-0.1c0.1,0,0.2,0,0.3,0V8.6l-12.8-6v36.5l12.8-4.7V35l-10.8,4.2H29v-8.9
				C29,30.2,27.4,31,23.4,30.8z M13,6.7l9.6,3.8v9H13V6.7z"/>
		</g>
	</g>
</g>
<g id="tekst">
</g>
</svg>
