<?xml version="1.0" encoding="utf-8"?>
<!-- Generator: Adobe Illustrator 18.0.0, SVG Export Plug-In . SVG Version: 6.00 Build 0)  -->
<!DOCTYPE svg PUBLIC "-//W3C//DTD SVG 1.1//EN" "http://www.w3.org/Graphics/SVG/1.1/DTD/svg11.dtd" [
	<!ENTITY ns_extend "http://ns.adobe.com/Extensibility/1.0/">
	<!ENTITY ns_ai "http://ns.adobe.com/AdobeIllustrator/10.0/">
	<!ENTITY ns_graphs "http://ns.adobe.com/Graphs/1.0/">
	<!ENTITY ns_vars "http://ns.adobe.com/Variables/1.0/">
	<!ENTITY ns_imrep "http://ns.adobe.com/ImageReplacement/1.0/">
	<!ENTITY ns_sfw "http://ns.adobe.com/SaveForWeb/1.0/">
	<!ENTITY ns_custom "http://ns.adobe.com/GenericCustomNamespace/1.0/">
	<!ENTITY ns_adobe_xpath "http://ns.adobe.com/XPath/1.0/">
]>
<svg version="1.1" id="Lag_1" xmlns:x="&ns_extend;" xmlns:i="&ns_ai;" xmlns:graph="&ns_graphs;"
	 xmlns="http://www.w3.org/2000/svg" xmlns:xlink="http://www.w3.org/1999/xlink" x="0px" y="0px" width="40px" height="40px"
	 viewBox="0 0 40 40" enable-background="new 0 0 40 40" xml:space="preserve">
<metadata>
	<sfw  xmlns="&ns_sfw;">
		<slices></slices>
		<sliceSourceBounds  height="21.6" width="40" y="53.2" x="42" bottomLeftOrigin="true"></sliceSourceBounds>
		<optimizationSettings>
			<targetSettings  fileFormat="PNG24Format" targetSettingsID="0">
				<PNG24Format  transparency="true" interlaced="false" noMatteColor="false" filtered="false" matteColor="#FFFFFF">
					</PNG24Format>
			</targetSettings>
		</optimizationSettings>
	</sfw>
</metadata>
<g id="Lag_1_1_">
	<g>
		<g>
			<path fill="#464665" d="M39.9,20.7c0,0,0.1-1.7-2-2.6s-4.8-1.9-4.8-1.9L28,9.3c0,0-0.7-1.1-2.7-1.1S2.7,8.3,2.7,8.3
				S1.2,8.2,0.8,9.7c0,0.1-0.1,0.3-0.1,0.4l-0.5,4.2c0,0.5-0.1,1-0.1,1.6L0,20c0,0.5,0,1,0,1.6l0.1,4.2c0,0.1,0,0.4,0,0.4
				S0.2,28,1.3,28h2.3c-0.2-0.5-0.2-0.9-0.2-1.4C3.4,24,5.5,22,8,22s4.6,2,4.6,4.6c0,0.5-0.1,1-0.2,1.4h15.9C28,27.5,28,27,28,26.5
				c0-2.5,2-4.6,4.6-4.6c2.5,0,4.6,2,4.6,4.6c0,0.5-0.1,1-0.2,1.4c0.8,0,1.3,0,1.3,0s1.5,0,1.7-1.6C40.1,24.8,39.9,20.7,39.9,20.7z
				 M21.4,16.1v-5.6H26c1.7,0.4,5,5.6,5,5.6H21.4z M8,23.3c-1.8,0-3.2,1.4-3.2,3.2c0,0.5,0.1,1,0.4,1.4C5.6,29,6.7,29.8,8,29.8
				s2.3-0.7,2.9-1.8c0.2-0.4,0.4-0.9,0.4-1.4C11.2,24.8,9.8,23.3,8,23.3z M32.5,23.3c-1.8,0-3.2,1.4-3.2,3.2c0,0.5,0.1,1,0.4,1.4
				c0.5,1.1,1.6,1.8,2.9,1.8s2.3-0.7,2.9-1.8c0.2-0.4,0.4-0.9,0.4-1.4C35.7,24.8,34.3,23.3,32.5,23.3z"/>
		</g>
	</g>
</g>
<g id="tekst">
</g>
</svg>
