<?xml version="1.0" encoding="utf-8"?>
<!-- Generator: Adobe Illustrator 18.0.0, SVG Export Plug-In . SVG Version: 6.00 Build 0)  -->
<!DOCTYPE svg PUBLIC "-//W3C//DTD SVG 1.1//EN" "http://www.w3.org/Graphics/SVG/1.1/DTD/svg11.dtd" [
	<!ENTITY ns_extend "http://ns.adobe.com/Extensibility/1.0/">
	<!ENTITY ns_ai "http://ns.adobe.com/AdobeIllustrator/10.0/">
	<!ENTITY ns_graphs "http://ns.adobe.com/Graphs/1.0/">
	<!ENTITY ns_vars "http://ns.adobe.com/Variables/1.0/">
	<!ENTITY ns_imrep "http://ns.adobe.com/ImageReplacement/1.0/">
	<!ENTITY ns_sfw "http://ns.adobe.com/SaveForWeb/1.0/">
	<!ENTITY ns_custom "http://ns.adobe.com/GenericCustomNamespace/1.0/">
	<!ENTITY ns_adobe_xpath "http://ns.adobe.com/XPath/1.0/">
]>
<svg version="1.1" id="Lag_1" xmlns:x="&ns_extend;" xmlns:i="&ns_ai;" xmlns:graph="&ns_graphs;"
	 xmlns="http://www.w3.org/2000/svg" xmlns:xlink="http://www.w3.org/1999/xlink" x="0px" y="0px" width="40px" height="40px"
	 viewBox="0 0 40 40" enable-background="new 0 0 40 40" xml:space="preserve">
<metadata>
	<sfw  xmlns="&ns_sfw;">
		<slices></slices>
		<sliceSourceBounds  width="30.9" height="37.7" x="624.6" y="-418.8" bottomLeftOrigin="true"></sliceSourceBounds>
	</sfw>
</metadata>
<g>
	<path d="M9.7,30.3h5.1v3.4H9.7V30.3z M9.7,25.1h5.1v3.4H9.7V25.1z M23.4,20v6.9h6.9c0,3.8-3.1,6.9-6.9,6.9s-6.9-3.1-6.9-6.9
		S19.6,20,23.4,20z M9.7,20h5.1v3.4H9.7V20z M25.1,18.3c3.8,0,6.9,3.1,6.9,6.9h-6.9V18.3z M9.7,13.1h20.6v1.7H9.7L9.7,13.1L9.7,13.1
		z M9.7,9.7h20.6v1.7H9.7L9.7,9.7L9.7,9.7z M8,1.1c-1.9,0-3.4,1.5-3.4,3.4v13.7v6.9v10.3c0,1.9,1.5,3.4,3.4,3.4h24
		c1.9,0,3.4-1.5,3.4-3.4V25.1v-6.9v-6.9L25.1,1.1H8L8,1.1z"/>
</g>
</svg>
