<?xml version="1.0" encoding="utf-8"?>
<!-- Generator: Adobe Illustrator 18.0.0, SVG Export Plug-In . SVG Version: 6.00 Build 0)  -->
<!DOCTYPE svg PUBLIC "-//W3C//DTD SVG 1.1//EN" "http://www.w3.org/Graphics/SVG/1.1/DTD/svg11.dtd" [
	<!ENTITY ns_extend "http://ns.adobe.com/Extensibility/1.0/">
	<!ENTITY ns_ai "http://ns.adobe.com/AdobeIllustrator/10.0/">
	<!ENTITY ns_graphs "http://ns.adobe.com/Graphs/1.0/">
	<!ENTITY ns_vars "http://ns.adobe.com/Variables/1.0/">
	<!ENTITY ns_imrep "http://ns.adobe.com/ImageReplacement/1.0/">
	<!ENTITY ns_sfw "http://ns.adobe.com/SaveForWeb/1.0/">
	<!ENTITY ns_custom "http://ns.adobe.com/GenericCustomNamespace/1.0/">
	<!ENTITY ns_adobe_xpath "http://ns.adobe.com/XPath/1.0/">
]>
<svg version="1.1" id="Lag_1" xmlns:x="&ns_extend;" xmlns:i="&ns_ai;" xmlns:graph="&ns_graphs;"
	 xmlns="http://www.w3.org/2000/svg" xmlns:xlink="http://www.w3.org/1999/xlink" x="0px" y="0px" width="40px" height="40px"
	 viewBox="0 0 40 40" enable-background="new 0 0 40 40" xml:space="preserve">
<metadata>
	<sfw  xmlns="&ns_sfw;">
		<slices></slices>
		<sliceSourceBounds  height="40" width="40" y="43" x="42" bottomLeftOrigin="true"></sliceSourceBounds>
		<optimizationSettings>
			<targetSettings  fileFormat="PNG24Format" targetSettingsID="0">
				<PNG24Format  transparency="true" interlaced="false" noMatteColor="false" filtered="false" matteColor="#FFFFFF">
					</PNG24Format>
			</targetSettings>
		</optimizationSettings>
	</sfw>
</metadata>
<g id="Lag_1_1_">
	<path fill="#464665" d="M39.9,18.2c0-0.3-0.1-0.6-0.2-0.9c-0.1-0.6-0.7-1-1.3-1c-0.1,0-0.2,0-0.3,0c-0.6,0-1.8,0-1.8,0h-0.1
		c-0.4,0-0.7-0.3-0.8-0.7c-0.4-1.2-0.9-2.4-1.5-3.5c0,0.1,0.1,0.1,0.1,0.2c-0.2-0.3-0.2-0.8,0.1-1.1c0,0,0-0.1,0.1-0.1l1.2-1.2
		c0,0,0.1-0.1,0.2-0.2C36,9.2,36.1,8.5,35.8,8c-0.5-0.8-1-1.5-1.6-2.1l0,0c-0.1-0.1-0.1-0.1-0.2-0.2c-0.4-0.4-0.8-0.7-1.2-1.1
		c-0.3-0.2-0.5-0.4-0.8-0.5c-0.5-0.3-1.2-0.2-1.6,0.2c0,0-0.1,0.1-0.2,0.2C29.9,4.8,29,5.7,29,5.7s0,0.1-0.1,0.1
		c-0.3,0.3-0.8,0.3-1.1,0.1C27.9,6,27.9,6,28,6.1c-1.1-0.6-2.3-1.2-3.6-1.5c-0.4-0.1-0.7-0.4-0.7-0.9V3.6V1.9c0-0.1,0-0.1,0-0.2
		c0-0.6-0.5-1.1-1-1.3C21.9,0.1,21,0,20.1,0l0,0l0,0h-0.2l0,0c-0.5,0-1.1,0-1.6,0.1c-0.3,0-0.6,0.1-0.9,0.2c-0.6,0.1-1,0.7-1,1.3
		c0,0.1,0,0.2,0,0.3c0,0.6,0,1.8,0,1.8v0.1c0,0.4-0.3,0.7-0.7,0.9h0.1c-1.2,0.3-2.4,0.8-3.4,1.4c-0.3,0.2-0.8,0.2-1.1-0.1
		c0,0-0.1,0-0.1-0.1L9.8,4.5c0,0-0.1-0.1-0.2-0.2C9.2,4,8.5,3.9,8,4.2c-0.8,0.5-1.5,1-2.1,1.6l0,0l0,0c0,0.1-0.1,0.1-0.2,0.2
		C5.4,6.4,5,6.8,4.7,7.2C4.5,7.5,4.3,7.7,4.2,8C3.9,8.5,3.9,9.2,4.3,9.6c0,0,0.1,0.1,0.2,0.2C5,10.3,5.7,11,5.7,11s0,0,0.1,0.1
		c0.3,0.3,0.3,0.8,0.1,1.1C6,12.2,6,12.1,6.1,12c-0.6,1.1-1.1,2.3-1.5,3.5c-0.1,0.4-0.4,0.7-0.8,0.7H3.7H1.9c-0.1,0-0.1,0-0.2,0
		c-0.6,0-1.1,0.5-1.3,1C0.1,18.1,0,19,0,19.9l0,0l0,0v0.2c0,0.5,0,1.1,0.1,1.6c0,0.3,0.1,0.6,0.2,0.9c0.1,0.6,0.7,1,1.3,1
		c0.1,0,0.2,0,0.3,0c0.6,0,1.8,0,1.8,0h0.1c0.4,0,0.7,0.3,0.8,0.7l0,0c0.3,1.2,0.8,2.3,1.4,3.4c0,0,0-0.1-0.1-0.1
		c0.2,0.3,0.2,0.8-0.1,1.1c0,0,0,0.1-0.1,0.1L4.5,30c0,0-0.1,0.1-0.2,0.2C4,30.8,3.9,31.5,4.2,32c0.5,0.8,1,1.5,1.6,2.1l0,0l0,0
		c0.1,0.1,0.1,0.1,0.2,0.2c0.4,0.4,0.8,0.7,1.2,1.1c0.3,0.2,0.5,0.4,0.8,0.5c0.5,0.3,1.2,0.2,1.6-0.2c0,0,0.1-0.1,0.2-0.2l1.2-1.2
		c0,0,0.1,0,0.1-0.1c0.3-0.3,0.8-0.3,1.1-0.1c1,0.6,2.1,1,3.3,1.4c0.4,0.1,0.7,0.4,0.7,0.8v0.1v1.8c0,0.1,0,0.1,0,0.2
		c0,0.6,0.5,1.1,1,1.3c0.9,0.2,1.7,0.3,2.6,0.3l0,0l0,0H20c0.5,0,1.1,0,1.6-0.1c0.3,0,0.6-0.1,0.9-0.2c0.6-0.1,1-0.7,1-1.3
		c0-0.1,0-0.2,0-0.3c0-0.6,0-1.8,0-1.8v-0.1c0-0.4,0.3-0.7,0.7-0.8c-0.1,0-0.2,0-0.2,0.1c1.3-0.3,2.4-0.8,3.5-1.4
		c0.3-0.2,0.8-0.2,1.1,0.1c0,0,0.1,0,0.1,0.1l1.2,1.2c0,0,0.1,0.1,0.2,0.2c0.4,0.4,1.1,0.5,1.6,0.2c0.8-0.5,1.5-1,2.1-1.6l0,0l0,0
		c0.1-0.1,0.1-0.1,0.2-0.2c0.4-0.4,0.7-0.8,1.1-1.2c0.2-0.3,0.4-0.5,0.5-0.8c0.3-0.5,0.2-1.2-0.2-1.6c0,0-0.1-0.1-0.2-0.2
		c-0.5-0.5-1.2-1.2-1.2-1.2s0-0.1-0.1-0.1c-0.3-0.3-0.3-0.8-0.1-1.1c0,0.1-0.1,0.1-0.1,0.2c0.7-1.2,1.2-2.4,1.5-3.7
		c0,0.1,0,0.2-0.1,0.3c0.1-0.4,0.4-0.7,0.8-0.7H36h1.8c0.1,0,0.1,0,0.2,0c0.6,0,1.1-0.4,1.3-1c0.2-0.9,0.3-1.7,0.3-2.6l0,0l0,0v-0.2
		l0,0C40,19.3,40,18.8,39.9,18.2z M20,29.5c-5.3,0-9.5-4.3-9.5-9.5s4.3-9.5,9.5-9.5s9.5,4.3,9.5,9.5S25.3,29.5,20,29.5z"/>
</g>
<g id="tekst">
</g>
</svg>
