<?xml version="1.0" encoding="utf-8"?>
<svg version="1.1" id="Large" xmlns="http://www.w3.org/2000/svg" xmlns:xlink="http://www.w3.org/1999/xlink" x="0px" y="0px"
	 viewBox="0 0 255.1 85" style="enable-background:new 0 0 255.1 85;" xml:space="preserve" width="255.1px" height="85px">
<path d="M108.1,49.2c0,5-4.3,6.9-9.4,6.9c-4.1,0-7.7-1.5-9.1-3.5l3.4-2.9c1,0.8,3.3,2.2,6,2.2c2.1,0,3.3-0.7,3.3-1.8
	c0-1.3-2-1.5-4.7-1.8c-3.5-0.4-7.4-1.2-7.4-5.9c0-3.7,3.4-6.3,8.8-6.3c3.9,0,6.9,1.4,8.7,3.3l-3.6,2.9c-1-0.8-2.8-1.8-5-1.8
	c-1.9,0-3.2,0.4-3.2,1.5c0,1.2,2,1.4,4.6,1.7C104.3,44.2,108.1,45.1,108.1,49.2z M130.6,36.4h-6.7l-7,7.2v-15l-5.9,1.3v25.8h5.9
	v-6.3l2.2-2.1l5.4,8.3h6.7l-7.9-12.1L130.6,36.4z M146,36.4h6v19.3h-6v-1.6c-1.4,1.2-3.2,2-5.6,2c-4.8,0-9.5-3.6-9.5-10
	c0-6.5,4.8-10,9.6-10c2.4,0,4.3,0.9,5.5,2V36.4z M146,42.7c-1.1-0.8-2.5-1.5-4.5-1.5c-2.5,0-4.7,2-4.7,4.9c0,3,2.2,5,4.9,5
	c1.8,0,3.4-1,4.3-1.8V42.7z M168.2,36.4h-4v-5.7l-6,0.7v5h-3.7v4.7h3.7v14.6h6V41.1h4V36.4z M171.6,49.1c-2,0-3.5,1.6-3.5,3.5
	c0,2,1.5,3.5,3.5,3.5s3.5-1.5,3.5-3.5C175.1,50.7,173.6,49.1,171.6,49.1z M192.3,30l6-1.3v27h-6V54c-1.5,1.2-3.4,2-5.6,2
	c-4.8,0-9.5-3.6-9.5-10c0-6.5,4.8-10,9.9-10c2,0,3.8,0.6,5.2,1.6V30z M192.3,42.7c-1.1-0.8-2.6-1.5-4.2-1.5c-2.9,0-5,2-5,4.9
	c0,3,2.2,5,4.9,5c1.7,0,3.2-0.9,4.3-1.8L192.3,42.7L192.3,42.7z M214.6,43.6l7.3-7.2h-6.7l-7,7.2v-15l-5.9,1.3v25.8h5.9v-6.3
	l2.2-2.1l5.4,8.3h6.7L214.6,43.6z M77.2,63.8h1.7V21.9h-1.7V63.8z M39.1,49.3L39.1,49.3c0-0.9,0.4-2.5-0.1-3.4c-0.6-1-1.9-2-3.1-3.2
	c-0.5-0.5-1.6-1.3-1.6-2.6c0-1.8,1.3-2.3,2.3-2.3c0.3,0,0.6,0,1,0.1c0.1-0.6,0.4-1.2,0.8-1.7c-0.5-0.2-1.1-0.3-1.7-0.3
	c-1.7,0-4.2,1.2-4.2,4.2c0,2,1.2,3.1,2.4,4.2c1.3,1.3,2.3,2.5,2.5,5C37.4,49.3,39.1,49.3,39.1,49.3z M37.3,52.5h24.9v-1.8H37.3
	C37.3,50.7,37.3,52.5,37.3,52.5z M37.3,55.8h24.9V54H37.3C37.3,54,37.3,55.8,37.3,55.8z M42.6,49.3h2c0.2-1.5,0.8-2.8,0.4-3.9
	c-0.4-1.2-2-2.6-3-3.6c-0.8-0.9-1.3-1.6-1.3-2.7c0-1.2,1-2.3,2.4-2.3c1.6,0,2.6,1.5,4.6,1.5v-1.8c-1.2-0.1-2.3-1.5-4.6-1.5
	c-1.2,0-2.3,0.4-3.1,1.2c-0.7,0.8-1.2,1.8-1.2,2.9c0,1.7,0.8,2.8,1.6,3.8C41.5,44.3,42.6,45.8,42.6,49.3z M62.9,35.9
	c-0.6,0-1.1,0.1-1.7,0.3c0.4,0.5,0.6,1.1,0.8,1.7c0.3-0.1,0.6-0.1,1-0.1c0.9,0,2.3,0.5,2.3,2.3c0,1.4-1.1,2.1-1.6,2.6
	c-1.2,1.1-2.5,2.1-3.1,3.2c-0.5,0.9-0.2,2.5-0.1,3.4h1.8c0.2-2.5,1.2-3.7,2.5-5c1.1-1.1,2.4-2.3,2.4-4.2C67,37.2,64.6,36,62.9,35.9z
	 M51.9,38.3c2,0,2.9-1.5,4.6-1.5c1.4,0,2.4,1.1,2.4,2.3c0,1.1-0.5,1.8-1.3,2.7c-1,1.1-2.6,2.4-3,3.6c-0.4,1.1,0.2,2.4,0.4,3.9h2
	c-0.1-3.5,1.1-5.1,2.1-6.4c0.8-1,1.6-2.1,1.6-3.8c0-1.1-0.4-2.2-1.2-2.9c-0.8-0.8-1.9-1.2-3.1-1.2c-2.3,0-3.4,1.4-4.6,1.5v1.8H51.9z
	 M50.7,49.3L50.7,49.3L50.7,49.3c0.3-1.6,0.9-2,0.9-3.5c0-1.1-0.9-2-0.9-5.4l0,0v-5.3h-1.9v5.3l0,0c0,3.4-0.9,4.2-0.9,5.4
	c0,1.4,0.6,1.9,0.9,3.5l0,0l0,0C48.8,49.3,50.7,49.3,50.7,49.3z M48.9,27.2H47v-1.7h1.9v-1.9h1.7v1.9h1.9v1.7h-1.9v1.9
	c1,0.3,1.7,1.3,1.7,2.4c0,1.4-1.2,2.6-2.6,2.6c-1.4,0-2.6-1.2-2.6-2.6c0-1.1,0.7-2.1,1.7-2.4v-1.9H48.9z M48.8,31.5c0,0.5,0.4,1,1,1
	c0.5,0,1-0.4,1-1c0-0.5-0.4-1-1-1S48.8,31,48.8,31.5z"/>
</svg>
