<?xml version="1.0" encoding="utf-8"?>
<!-- Generator: Adobe Illustrator 18.0.0, SVG Export Plug-In . SVG Version: 6.00 Build 0)  -->
<!DOCTYPE svg PUBLIC "-//W3C//DTD SVG 1.1//EN" "http://www.w3.org/Graphics/SVG/1.1/DTD/svg11.dtd" [
	<!ENTITY ns_extend "http://ns.adobe.com/Extensibility/1.0/">
	<!ENTITY ns_ai "http://ns.adobe.com/AdobeIllustrator/10.0/">
	<!ENTITY ns_graphs "http://ns.adobe.com/Graphs/1.0/">
	<!ENTITY ns_vars "http://ns.adobe.com/Variables/1.0/">
	<!ENTITY ns_imrep "http://ns.adobe.com/ImageReplacement/1.0/">
	<!ENTITY ns_sfw "http://ns.adobe.com/SaveForWeb/1.0/">
	<!ENTITY ns_custom "http://ns.adobe.com/GenericCustomNamespace/1.0/">
	<!ENTITY ns_adobe_xpath "http://ns.adobe.com/XPath/1.0/">
]>
<svg version="1.1" id="Large" xmlns:x="&ns_extend;" xmlns:i="&ns_ai;" xmlns:graph="&ns_graphs;"
	 xmlns="http://www.w3.org/2000/svg" xmlns:xlink="http://www.w3.org/1999/xlink" x="0px" y="0px" width="136px" height="30px"
	 viewBox="0 0 136 30" enable-background="new 0 0 136 30" xml:space="preserve">
<metadata>
	<sfw  xmlns="&ns_sfw;">
		<slices></slices>
		<sliceSourceBounds  width="136" height="30" bottomLeftOrigin="true" y="-128.8" x="144.5"></sliceSourceBounds>
	</sfw>
</metadata>
<path fill="#FFFFFF" d="M54.1,19.5c0,3.6-3.1,4.9-6.7,4.9c-2.9,0-5.5-1.1-6.5-2.5l2.5-2.1c0.7,0.6,2.4,1.5,4.3,1.5
	c1.5,0,2.4-0.5,2.4-1.3c0-0.9-1.4-1.1-3.4-1.3c-2.5-0.3-5.3-0.9-5.3-4.2c0-2.6,2.4-4.5,6.3-4.5c2.8,0,5,1,6.2,2.3l-2.6,2.1
	c-0.7-0.6-2-1.3-3.6-1.3c-1.4,0-2.3,0.3-2.3,1.1c0,0.9,1.5,1,3.3,1.2C51.4,15.9,54.1,16.6,54.1,19.5z M70.2,10.4h-4.8l-5,5.2V4.9
	l-4.2,0.9v18.4h4.2v-4.5l1.5-1.5l3.8,6h4.8L65,15.5L70.2,10.4z M81.3,10.4h4.3v13.8h-4.3V23c-1,0.9-2.3,1.4-4,1.4
	c-3.4,0-6.8-2.6-6.8-7.2c0-4.6,3.4-7.2,6.9-7.2c1.7,0,3.1,0.6,3.9,1.4V10.4z M81.3,14.8c-0.8-0.5-1.8-1.1-3.2-1.1
	c-1.8,0-3.4,1.4-3.4,3.5c0,2.1,1.6,3.6,3.5,3.6c1.3,0,2.4-0.7,3.1-1.3V14.8z M97.1,10.4h-2.9V6.3L90,6.8v3.6h-2.6v3.3H90v10.5h4.3
	V13.7h2.9V10.4z M99.6,19.4c-1.4,0-2.5,1.2-2.5,2.5c0,1.4,1.1,2.5,2.5,2.5c1.4,0,2.5-1.1,2.5-2.5C102.1,20.6,101,19.4,99.6,19.4z
	 M114.3,5.8l4.3-0.9v19.3h-4.3V23c-1.1,0.9-2.4,1.5-4,1.5c-3.4,0-6.8-2.6-6.8-7.2c0-4.6,3.4-7.2,7.1-7.2c1.4,0,2.7,0.4,3.7,1.2V5.8z
	 M114.3,14.8c-0.8-0.6-1.9-1.1-3-1.1c-2.1,0-3.6,1.4-3.6,3.5c0,2.1,1.6,3.6,3.5,3.6c1.2,0,2.3-0.7,3.1-1.3V14.8z M130.3,15.5
	l5.2-5.1h-4.8l-5,5.2V4.9l-4.2,0.9v18.4h4.2v-4.5l1.5-1.5l3.8,6h4.8L130.3,15.5z M32,30h1.2V0H32V30z M4.8,19.6L4.8,19.6
	c0-0.6,0.3-1.8-0.1-2.5c-0.4-0.7-1.3-1.4-2.2-2.3C2.1,14.5,1.3,14,1.3,13c0-1.3,1-1.6,1.6-1.7c0.2,0,0.5,0,0.7,0.1
	c0.1-0.4,0.3-0.9,0.5-1.2C3.8,10.1,3.4,10,3,10c-1.2,0-3,0.9-3,3c0,1.4,0.9,2.2,1.7,3c0.9,0.9,1.6,1.8,1.8,3.6H4.8z M3.5,21.9h17.8
	v-1.3H3.5V21.9z M3.5,24.2h17.8v-1.3H3.5V24.2z M7.2,19.6h1.4c0.1-1.1,0.5-2,0.3-2.8c-0.3-0.9-1.5-1.8-2.1-2.6
	c-0.6-0.6-0.9-1.2-0.9-1.9c0-0.9,0.7-1.6,1.7-1.6c1.2,0,1.8,1.1,3.3,1.1v-1.3C10,10.4,9.2,9.4,7.5,9.4c-0.9,0-1.7,0.3-2.2,0.9
	c-0.5,0.5-0.8,1.3-0.8,2.1c0,1.2,0.6,2,1.2,2.7C6.4,16,7.3,17.1,7.2,19.6z M21.7,10c-0.4,0-0.8,0.1-1.2,0.2c0.3,0.4,0.4,0.8,0.5,1.2
	c0.2-0.1,0.5-0.1,0.7-0.1c0.7,0,1.6,0.4,1.6,1.7c0,1-0.8,1.5-1.1,1.9c-0.9,0.8-1.8,1.5-2.2,2.3c-0.4,0.7-0.1,1.8-0.1,2.5h1.3
	c0.1-1.8,0.9-2.6,1.8-3.6c0.8-0.8,1.7-1.6,1.7-3C24.7,10.9,23,10,21.7,10z M13.9,11.7c1.4,0,2.1-1.1,3.3-1.1c1,0,1.7,0.8,1.7,1.6
	c0,0.8-0.4,1.3-0.9,1.9c-0.7,0.8-1.9,1.7-2.1,2.6c-0.3,0.8,0.2,1.7,0.3,2.8h1.4c0-2.5,0.8-3.6,1.5-4.6c0.6-0.7,1.2-1.5,1.2-2.7
	c0-0.8-0.3-1.5-0.8-2.1c-0.6-0.6-1.3-0.9-2.2-0.9c-1.6,0-2.4,1-3.3,1.1V11.7z M13.1,19.5L13.1,19.5C13.1,19.5,13.1,19.5,13.1,19.5
	c0.2-1.1,0.6-1.5,0.6-2.5c0-0.8-0.6-1.4-0.6-3.8c0,0,0,0,0,0V9.4h-1.4v3.8c0,0,0,0,0,0c0,2.4-0.6,3-0.6,3.8c0,1,0.4,1.4,0.6,2.5
	c0,0,0,0,0,0v0H13.1z M11.8,3.8h-1.3V2.6h1.3V1.2H13v1.4h1.3v1.2H13v1.3c0.7,0.2,1.2,0.9,1.2,1.7c0,1-0.8,1.8-1.8,1.8
	c-1,0-1.8-0.8-1.8-1.8c0-0.8,0.5-1.5,1.2-1.7V3.8z M11.7,6.9c0,0.4,0.3,0.7,0.7,0.7c0.4,0,0.7-0.3,0.7-0.7c0-0.4-0.3-0.7-0.7-0.7
	C12,6.2,11.7,6.5,11.7,6.9z"/>
</svg>
